<?xml version="1.0" standalone="no"?>
<!DOCTYPE svg PUBLIC "-//W3C//DTD SVG 1.1//EN" "http://www.w3.org/Graphics/SVG/1.1/DTD/svg11.dtd" >
<svg>
<metadata>
Created by FontForge 20120731 at Thu Aug 29 19:57:00 2019
 By www
Copyright (c) 2015 by Colophon Foundry. All rights reserved.
</metadata>
<defs>
<font id="RostelecomBasis-Regular" horiz-adv-x="0" >
  <font-face 
    font-family="Rostelecom Basis"
    font-weight="400"
    font-stretch="normal"
    units-per-em="1000"
    panose-1="2 11 5 3 3 6 4 4 1 3"
    ascent="800"
    descent="-200"
    x-height="496"
    cap-height="700"
    bbox="-713 -275 1106 938"
    underline-thickness="50"
    underline-position="-50"
    unicode-range="U+000D-FB02"
  />
<missing-glyph horiz-adv-x="500" 
 />
    <glyph glyph-name="f_f" unicode="ff" horiz-adv-x="583" 
d="M98 0v433h-76v63h76v92q0 76 40 119t114 43q29 0 52 -10l-13 -69q-18 7 -39 7q-32 0 -52.5 -21.5t-20.5 -64.5v-96h185v92q0 76 39.5 119t113.5 43q29 0 52 -10l-13 -69q-18 7 -39 7q-32 0 -52.5 -21.5t-20.5 -64.5v-96h117v-63h-117v-433h-80v433h-185v-433h-81z" />
    <glyph glyph-name="f_f_i" unicode="ffi" horiz-adv-x="817" 
d="M98 433h-76v63h76v92q0 76 40 119t114 43q29 0 52 -10l-13 -69q-18 7 -39 7q-32 0 -52.5 -21.5t-20.5 -64.5v-96h198v92q0 76 39.5 119t113.5 43q28 0 53 -10l-14 -69q-18 7 -39 7q-32 0 -52 -21.5t-20 -64.5v-96h287v-496h-80v433h-207v-433h-81v433h-198v-433h-81v433z
M657 680h96v-97h-96v97z" />
    <glyph glyph-name="f_f_l" unicode="ffl" horiz-adv-x="814" 
d="M98 433h-76v63h76v92q0 76 40 119t114 43q29 0 52 -10l-13 -69q-18 7 -39 7q-32 0 -52.5 -21.5t-20.5 -64.5v-96h198v92q0 76 39.5 119t113.5 43q28 0 53 -10l-14 -69q-18 7 -39 7q-32 0 -52 -21.5t-20 -64.5v-96h116v-63h-116v-433h-81v433h-198v-433h-81v433zM744 700
v-700h-81v700h81z" />
    <glyph glyph-name="f_i" unicode="fi" horiz-adv-x="540" 
d="M179 433v-433h-81v433h-76v63h76v92q0 76 40 119t114 43q29 0 52 -10l-13 -69q-18 7 -39 7q-32 0 -52.5 -21.5t-20.5 -64.5v-96h290v-496h-81v433h-209zM476 680v-97h-95v97h95z" />
    <glyph glyph-name="f_l" unicode="fl" horiz-adv-x="538" 
d="M98 496v92q0 76 40 119t114 43q29 0 52 -10l-13 -69q-18 7 -39 7q-32 0 -52.5 -21.5t-20.5 -64.5v-96h117v-63h-117v-433h-81v433h-76v63h76zM468 700v-700h-81v700h81z" />
    <glyph glyph-name=".notdef" horiz-adv-x="500" 
 />
    <glyph glyph-name=".null" 
 />
    <glyph glyph-name="nonmarkingreturn" unicode="&#xd;" horiz-adv-x="289" 
 />
    <glyph glyph-name="space" unicode=" " horiz-adv-x="276" 
 />
    <glyph glyph-name="exclam" unicode="!" horiz-adv-x="265" 
d="M90 477v223h84v-223l-12 -293h-59zM83 102h99v-102h-99v102z" />
    <glyph glyph-name="quotedbl" unicode="&#x22;" horiz-adv-x="337" 
d="M54 642v58h82v-58l-13 -155h-56zM200 642v58h83v-58l-13 -155h-57z" />
    <glyph glyph-name="numbersign" unicode="#" horiz-adv-x="661" 
d="M155 223h-104v59h115l25 136h-120v59h131l41 223h74l-41 -223h161l42 223h74l-42 -223h104v-59h-115l-25 -136h120v-59h-131l-41 -223h-74l41 223h-161l-42 -223h-74zM401 282l25 136h-161l-25 -136h161z" />
    <glyph glyph-name="dollar" unicode="$" horiz-adv-x="644" 
d="M289 -11q-98 10 -159.5 68.5t-79.5 145.5l75 39q15 -77 56 -123t108 -56v271q-96 21 -151 69.5t-55 127.5q0 75 57 125t149 57v87h75v-90q75 -10 129 -54t77 -113l-66 -39q-19 54 -55 87.5t-85 44.5v-242q109 -23 164.5 -71t55.5 -127q0 -54 -27.5 -99t-77.5 -74
t-115 -35v-88h-75v89zM289 640q-57 -5 -91.5 -34.5t-34.5 -75.5q0 -43 32.5 -72t93.5 -47v229zM463.5 106q36.5 36 36.5 84q0 49 -33.5 78.5t-102.5 47.5v-254q63 8 99.5 44z" />
    <glyph glyph-name="percent" unicode="%" horiz-adv-x="880" 
d="M132 387q-39 23 -61 63t-22 89t22 89t61 63t88 23t88 -23t60.5 -63t21.5 -89t-21.5 -89t-60.5 -63t-88 -23t-88 23zM197 35l435 665l51 -35l-434 -665zM295 457.5q29 31.5 29 81.5t-29 81.5t-75 31.5t-75 -31.5t-29 -81.5t29 -81.5t75 -31.5t75 31.5zM573 9
q-39 23 -61 63t-22 89t22 89t61 63t88 23t88 -23t60.5 -63t21.5 -89t-21.5 -89t-60.5 -63t-88 -23t-88 23zM736 79.5q29 31.5 29 81.5t-29 81.5t-75 31.5t-75 -31.5t-29 -81.5t29 -81.5t75 -31.5t75 31.5z" />
    <glyph glyph-name="ampersand" unicode="&#x26;" horiz-adv-x="641" 
d="M163 13q-49 27 -77 75t-28 107q0 71 36 123t102 90q-51 75 -51 144q0 47 21.5 84t59 57.5t83.5 20.5q69 0 113 -37.5t44 -100.5q0 -57 -38 -99t-127 -87l165 -213q34 62 51 153l64 -36q-22 -102 -71 -176l91 -118h-94l-47 60q-76 -74 -185 -74q-63 0 -112 27zM366 504
q29 28 29 67q0 33 -24.5 55.5t-61.5 22.5t-64.5 -25.5t-27.5 -70.5q0 -28 11 -54.5t34 -56.5q75 34 104 62zM419 114l-182 240q-49 -31 -74 -68t-25 -89q0 -64 41.5 -102.5t101.5 -38.5q80 0 138 58z" />
    <glyph glyph-name="quotesingle" unicode="'" horiz-adv-x="199" 
d="M58 642v58h83v-58l-13 -155h-57z" />
    <glyph glyph-name="parenleft" unicode="(" horiz-adv-x="337" 
d="M102 43q-30 108 -30 233t30 233t76 191h73q-44 -86 -70.5 -196.5t-26.5 -227.5t26.5 -227.5t70.5 -196.5h-73q-46 83 -76 191z" />
    <glyph glyph-name="parenright" unicode=")" horiz-adv-x="337" 
d="M157 48.5q26 110.5 26 227.5t-26 227.5t-70 196.5h72q47 -82 77 -190.5t30 -233.5t-30 -233.5t-77 -190.5h-72q44 86 70 196.5z" />
    <glyph glyph-name="asterisk" unicode="*" horiz-adv-x="409" 
d="M180 506l-87 -69l-40 70l104 41l-104 41l40 70l87 -69l-16 110h81l-17 -110l87 69l41 -70l-104 -41l104 -41l-41 -70l-87 69l17 -110h-81z" />
    <glyph glyph-name="plus" unicode="+" horiz-adv-x="513" 
d="M224 333h-179v64h179v179h64v-179h179v-64h-179v-179h-64v179z" />
    <glyph glyph-name="comma" unicode="," horiz-adv-x="189" 
d="M48 -119l32 119h-35v99h98v-99l-74 -126z" />
    <glyph glyph-name="hyphen" unicode="-" horiz-adv-x="453" 
d="M45 343h363v-64h-363v64z" />
    <glyph glyph-name="period" unicode="." horiz-adv-x="189" 
d="M45 99h98v-99h-98v99z" />
    <glyph glyph-name="slash" unicode="/" horiz-adv-x="495" 
d="M406 730h84l-400 -760h-84z" />
    <glyph glyph-name="zero" unicode="0" horiz-adv-x="711" 
d="M198.5 31.5q-69.5 45.5 -108.5 128.5t-39 190t39 190t108.5 128.5t157.5 45.5t157.5 -45.5t108 -128t38.5 -190.5t-38.5 -190.5t-108 -128t-157.5 -45.5t-157.5 45.5zM470.5 96q50.5 35 79 100t28.5 154t-28.5 154t-79 100t-114.5 35t-114.5 -35t-79 -100t-28.5 -154
t28.5 -154t79 -100t114.5 -35t114.5 35z" />
    <glyph glyph-name="one" unicode="1" horiz-adv-x="361" 
d="M199 590q-25 -29 -59.5 -41t-87.5 -12v75q59 0 95 21t60 67h75v-700h-83v590z" />
    <glyph glyph-name="two" unicode="2" horiz-adv-x="578" 
d="M54 59l269 266q53 53 76 95t23 90q0 60 -38.5 95.5t-104.5 35.5q-61 0 -101 -37.5t-40 -99.5q0 -23 6 -46l-81 -6q-7 31 -7 59q0 53 27.5 99.5t78.5 75t118 28.5q70 0 120.5 -25.5t76.5 -69.5t26 -101q0 -65 -27.5 -119.5t-98.5 -124.5l-194 -193h323v-81h-452v59z" />
    <glyph glyph-name="three" unicode="3" horiz-adv-x="584" 
d="M167.5 13.5q-53.5 27.5 -81.5 73t-28 96.5q0 22 5 45l81 -10q-3 -16 -3 -32q0 -35 19 -64.5t54.5 -46.5t80.5 -17q68 0 110 37t42 105q0 71 -50.5 105.5t-131.5 34.5v70q76 0 116.5 36t40.5 88q0 51 -35 80t-95 29q-55 0 -93.5 -30.5t-38.5 -77.5q0 -9 3 -27l-79 -9
q-4 18 -4 40q0 48 28 88t76.5 63.5t108.5 23.5q66 0 113.5 -22.5t72 -62t24.5 -89.5t-30 -93.5t-87 -62.5q64 -17 104.5 -63.5t40.5 -116.5q0 -66 -30 -115.5t-83.5 -76t-122.5 -26.5q-74 0 -127.5 27.5z" />
    <glyph glyph-name="four" unicode="4" horiz-adv-x="581" 
d="M387 139h-341v75l341 486h84v-486h77v-75h-77v-139h-84v139zM387 214v363l-253 -363h253z" />
    <glyph glyph-name="five" unicode="5" horiz-adv-x="592" 
d="M162.5 12.5q-52.5 26.5 -79 70.5t-26.5 96q0 19 3 34l81 -6q-2 -14 -2 -25q0 -58 41 -91t110 -33q75 0 121.5 48t46.5 130q0 81 -43.5 126.5t-119.5 45.5q-48 0 -91 -23.5t-70 -57.5l-69 19l30 354h404v-75h-340l-23 -214q33 30 80 48.5t94 18.5q110 0 171 -66.5
t61 -175.5q0 -72 -32 -129t-89.5 -89t-131.5 -32t-126.5 26.5z" />
    <glyph glyph-name="six" unicode="6" horiz-adv-x="604" 
d="M120 71q-69 85 -69 238q0 142 35 231q33 83 93.5 128.5t139.5 45.5q96 0 151.5 -42.5t55.5 -115.5q0 -18 -3 -33l-79 7q3 15 3 27q0 41 -33.5 64.5t-92.5 23.5q-90 0 -136.5 -77.5t-51.5 -215.5q26 49 78 77.5t112 28.5q66 0 119.5 -30t84 -83t30.5 -120
q0 -66 -32 -120.5t-88 -86.5t-127 -32q-121 0 -190 85zM391.5 77q37.5 20 60 57.5t22.5 87.5q0 51 -22.5 88.5t-60 57t-82.5 19.5t-83.5 -19.5t-61 -57t-22.5 -88.5q0 -50 23 -87.5t61 -57.5t83 -20t82.5 20z" />
    <glyph glyph-name="seven" unicode="7" horiz-adv-x="536" 
d="M411 625h-370v75h453v-69l-280 -631h-83z" />
    <glyph glyph-name="eight" unicode="8" horiz-adv-x="574" 
d="M166 12q-53 26 -83 73t-30 109t32.5 109t85.5 72q-45 24 -71 66t-26 91q0 53 27.5 94.5t76.5 64.5t109 23t109 -23t76.5 -64.5t27.5 -94.5q0 -49 -26 -91t-71 -66q53 -25 85.5 -72t32.5 -109t-30 -109t-83 -73t-121 -26t-121 26zM382 438q37 33 37 89q0 55 -38 88t-94 33
t-94 -33t-38 -88q0 -56 37 -89t95 -33t95 33zM396.5 95.5q42.5 38.5 42.5 101.5q0 41 -20.5 73t-55.5 49.5t-76 17.5t-76 -17.5t-55.5 -49.5t-20.5 -73q0 -63 42.5 -101.5t109.5 -38.5t109.5 38.5z" />
    <glyph glyph-name="nine" unicode="9" horiz-adv-x="614" 
d="M178 7.5q-47 21.5 -71.5 59t-24.5 83.5q0 20 3 35l80 -7q-2 -14 -2 -28q0 -42 34 -68.5t93 -26.5q87 0 137 75.5t56 215.5q-25 -50 -74.5 -77t-112.5 -27q-67 0 -121.5 30t-86 83t-31.5 120q0 66 31.5 120.5t87.5 86.5t127 32q126 0 192.5 -84t66.5 -239q0 -130 -40 -232
q-32 -83 -92.5 -128t-140.5 -45q-64 0 -111 21.5zM387 333q38 20 61 57.5t23 87.5t-23 87.5t-61 57.5t-83 20t-82.5 -20t-60 -57.5t-22.5 -87.5t22.5 -87.5t60 -57.5t82.5 -20t83 20z" />
    <glyph glyph-name="colon" unicode=":" horiz-adv-x="189" 
d="M45 476h98v-99h-98v99zM45 99h98v-99h-98v99z" />
    <glyph glyph-name="semicolon" unicode=";" horiz-adv-x="189" 
d="M45 476h98v-99h-98v99zM47 -122l33 122h-35v99h98v-99l-75 -130z" />
    <glyph glyph-name="less" unicode="&#x3c;" horiz-adv-x="507" 
d="M45 272v76l407 200v-80l-329 -158l329 -158v-81z" />
    <glyph glyph-name="equal" unicode="=" horiz-adv-x="513" 
d="M45 477h422v-64h-422v64zM45 284h422v-65h-422v65z" />
    <glyph glyph-name="greater" unicode="&#x3e;" horiz-adv-x="507" 
d="M56 152l328 158l-328 158v80l406 -200v-76l-406 -201v81z" />
    <glyph glyph-name="question" unicode="?" horiz-adv-x="533" 
d="M215 200q0 54 18 89t68 77q57 47 79 80.5t22 79.5q0 53 -38.5 85t-99.5 32q-58 0 -98 -35t-40 -98q0 -22 8 -41l-74 -15q-13 26 -13 64q0 50 26.5 95t75.5 73t114 28q68 0 117.5 -23.5t75.5 -64.5t26 -93q0 -62 -26.5 -106.5t-98.5 -106.5q-33 -28 -46.5 -55.5
t-13.5 -78.5h-82v14zM208 102h98v-102h-98v102z" />
    <glyph glyph-name="at" unicode="@" horiz-adv-x="945" 
d="M254.5 -106.5q-90.5 45.5 -147 140t-56.5 235.5q0 122 57 224t158 161.5t228 59.5q107 0 196.5 -41.5t143.5 -125.5t54 -206q0 -91 -32.5 -162.5t-86.5 -111.5t-115 -40q-42 0 -66.5 22t-24.5 59q0 13 3 27q-23 -47 -68 -77.5t-95 -30.5q-48 0 -87 25t-61.5 72t-22.5 111
q0 95 37 164.5t94 105t116 35.5q44 0 80 -22.5t49 -62.5l11 69h70l-56 -377l-1 -16q0 -41 37 -41q33 0 67 28.5t56.5 84.5t22.5 134q0 91 -37.5 161t-111.5 109.5t-179 39.5q-95 0 -178.5 -50t-133.5 -137t-50 -193q0 -115 45.5 -195t121.5 -119.5t167 -39.5
q60 0 102.5 14.5t81.5 42.5l34 -57q-49 -33 -101 -49t-128 -16q-103 0 -193.5 45.5zM501 125.5q41 35.5 65.5 94.5t24.5 124q0 62 -28.5 96.5t-76.5 34.5q-44 0 -85.5 -29t-68 -83t-26.5 -126q0 -73 30.5 -110t76.5 -37q47 0 88 35.5z" />
    <glyph glyph-name="A" unicode="A" horiz-adv-x="658" 
d="M286 700h86l280 -700h-89l-80 206h-308l-80 -206h-89zM455 278l-107 276q-11 25 -19 53q-8 -28 -19 -53l-107 -276h252z" />
    <glyph glyph-name="B" unicode="B" horiz-adv-x="635" 
d="M336 700q67 0 117 -21.5t76.5 -59t26.5 -85.5q0 -59 -34 -100t-82 -59q142 -44 142 -173q0 -60 -32.5 -106t-88 -71t-121.5 -25h-259v700h255zM332 408q65 0 103 26.5t38 82.5t-38 83t-103 27h-167v-219h167zM329 74q77 0 123 32.5t46 97.5q0 66 -46 98.5t-123 32.5h-164
v-261h164z" />
    <glyph glyph-name="C" unicode="C" horiz-adv-x="747" 
d="M569 27q-69 -41 -176 -41q-97 0 -174.5 47.5t-121.5 130.5t-44 186q0 102 46.5 185.5t126 131t172.5 47.5q100 0 174 -43t116 -117l-66 -45q-43 68 -97.5 99t-128.5 31q-70 0 -129.5 -37.5t-94.5 -103.5t-35 -148t33 -148t92 -103.5t133 -37.5q77 0 132 32t98 98l66 -42
q-53 -81 -122 -122z" />
    <glyph glyph-name="D" unicode="D" horiz-adv-x="682" 
d="M273 700q105 0 186 -41.5t126 -121t45 -187.5t-45 -187.5t-126 -121t-186 -41.5h-192v700h192zM470.5 145q74.5 70 74.5 205t-74.5 205t-200.5 70h-105v-550h105q126 0 200.5 70z" />
    <glyph glyph-name="E" unicode="E" horiz-adv-x="585" 
d="M518 700v-74h-353v-227h325v-74h-325v-251h356v-74h-440v700h437z" />
    <glyph glyph-name="F" unicode="F" horiz-adv-x="588" 
d="M81 700h450v-74h-366v-247h336v-74h-336v-305h-84v700z" />
    <glyph glyph-name="G" unicode="G" horiz-adv-x="761" 
d="M522 21.5q-56 -35.5 -134 -35.5q-97 0 -173.5 47.5t-119 130.5t-42.5 186q0 102 46.5 185t126 131t172.5 48q94 0 167 -39t115 -109l-65 -43q-75 118 -219 118q-68 0 -128 -37.5t-95.5 -104t-35.5 -149.5t32 -149t89.5 -103t131.5 -37q62 0 109.5 29t75.5 79t35 111h-246
v71h330v-351h-57l-24 121q-35 -64 -91 -99.5z" />
    <glyph glyph-name="H" unicode="H" horiz-adv-x="685" 
d="M165 700v-305h355v305h84v-700h-84v319h-355v-319h-84v700h84z" />
    <glyph glyph-name="I" unicode="I" horiz-adv-x="246" 
d="M165 700v-700h-84v700h84z" />
    <glyph glyph-name="J" unicode="J" horiz-adv-x="532" 
d="M411.5 44.5q-57.5 -58.5 -153.5 -58.5q-95 0 -152.5 56.5t-57.5 154.5l84 -5q0 -63 35.5 -97t90.5 -34q59 0 93 36.5t34 103.5v499h84v-499q0 -98 -57.5 -156.5z" />
    <glyph glyph-name="K" unicode="K" horiz-adv-x="613" 
d="M81 700h84v-319l65 71l236 248h105l-243 -257l264 -443h-98l-227 379l-102 -107v-272h-84v700z" />
    <glyph glyph-name="L" unicode="L" horiz-adv-x="567" 
d="M81 700h84v-625h355v-75h-439v700z" />
    <glyph glyph-name="M" unicode="M" horiz-adv-x="849" 
d="M173 700l251 -621l252 621h92v-700h-82v539l-35 -99l-183 -440h-87l-183 439l-36 100v-539h-81v700h92z" />
    <glyph glyph-name="N" unicode="N" horiz-adv-x="695" 
d="M168 700l335 -523q24 -41 30 -55v578h81v-700h-87l-335 524q-24 41 -30 55v-579h-81v700h87z" />
    <glyph glyph-name="O" unicode="O" horiz-adv-x="784" 
d="M686.5 160.5q-44.5 -82.5 -122 -128.5t-172.5 -46t-172.5 46t-122 128.5t-44.5 189.5t44.5 189.5t122 128.5t172.5 46t172.5 -46t122 -128.5t44.5 -189.5t-44.5 -189.5zM523 97q58 36 91 101.5t33 151.5t-33 151.5t-91 101.5t-131 36t-131 -36t-91 -101.5t-33 -151.5
t33 -151.5t91 -101.5t131 -36t131 36z" />
    <glyph glyph-name="P" unicode="P" horiz-adv-x="670" 
d="M81 700h293q113 0 179.5 -58.5t66.5 -160.5t-66.5 -161t-179.5 -59h-209v-261h-84v700zM372 335q81 0 122.5 38t41.5 108q0 69 -41.5 107t-122.5 38h-207v-291h207z" />
    <glyph glyph-name="Q" unicode="Q" horiz-adv-x="784" 
d="M694.5 176.5q-36.5 -77.5 -100.5 -125.5q43 -24 96 -43l-33 -75q-88 33 -144 74q-57 -21 -121 -21q-95 0 -172.5 46t-122 128.5t-44.5 189.5t44.5 189.5t122 128.5t172.5 46t172.5 -46t122 -128.5t44.5 -189.5q0 -96 -36.5 -173.5zM170 198.5q33 -65.5 91 -101.5t131 -36
t131 36t91 101.5t33 151.5t-33 151.5t-91 101.5t-131 36t-131 -36t-91 -101.5t-33 -151.5t33 -151.5z" />
    <glyph glyph-name="R" unicode="R" horiz-adv-x="630" 
d="M165 303v-303h-84v700h278q69 0 120 -25t78 -69.5t27 -100.5q0 -77 -44 -127.5t-124 -68.5l174 -309h-93l-172 303h-160zM349 376q74 0 112.5 31.5t38.5 93.5q0 63 -38.5 94.5t-112.5 31.5h-184v-251h184z" />
    <glyph glyph-name="S" unicode="S" horiz-adv-x="644" 
d="M212 447.5q48 -31.5 145 -50.5q112 -21 169.5 -70.5t57.5 -130.5q0 -58 -32 -106t-89.5 -76t-131.5 -28q-109 0 -182 51.5t-99 129.5l74 33q24 -63 75 -102t129 -39q52 0 91 18t60 48t21 65q0 58 -47.5 91t-140.5 50q-229 42 -229 200q0 53 30 95t83 65t120 23
q180 0 252 -145l-68 -40q-62 112 -185 112q-66 0 -108.5 -29t-42.5 -80q0 -53 48 -84.5z" />
    <glyph glyph-name="T" unicode="T" horiz-adv-x="553" 
d="M235 625h-217v75h517v-75h-216v-625h-84v625z" />
    <glyph glyph-name="U" unicode="U" horiz-adv-x="669" 
d="M565 105.5q-33 -58.5 -92.5 -89t-137.5 -30.5t-137.5 30.5t-92.5 89t-33 139.5v455h84v-450q0 -87 49 -138t130 -51q80 0 129.5 51t49.5 138v450h84v-455q0 -81 -33 -139.5z" />
    <glyph glyph-name="V" unicode="V" horiz-adv-x="615" 
d="M90 700l192 -530q16 -46 26 -81q10 35 26 81l192 530h87l-260 -700h-91l-260 700h88z" />
    <glyph glyph-name="W" unicode="W" horiz-adv-x="895" 
d="M5 700h85l140 -521q14 -53 19 -77l17 78l136 520h91l136 -520q13 -54 18 -78q5 24 18 77l140 521h85l-197 -700h-90l-155 593l-155 -593h-90z" />
    <glyph glyph-name="X" unicode="X" horiz-adv-x="572" 
d="M447 700h89l-203 -319l235 -381h-92l-191 311l-189 -311h-93l236 376l-203 324h93l156 -259z" />
    <glyph glyph-name="Y" unicode="Y" horiz-adv-x="551" 
d="M234 286l-230 414h91l159 -295q13 -25 22 -48q9 23 22 48l158 295h91l-229 -414v-286h-84v286z" />
    <glyph glyph-name="Z" unicode="Z" horiz-adv-x="593" 
d="M533 700v-77l-395 -546h412v-77h-510v75l399 548h-386v77h480z" />
    <glyph glyph-name="bracketleft" unicode="[" horiz-adv-x="325" 
d="M83 700h191v-73h-110v-704h110v-73h-191v850z" />
    <glyph glyph-name="backslash" unicode="\" horiz-adv-x="495" 
d="M6 730h84l400 -760h-84z" />
    <glyph glyph-name="bracketright" unicode="]" horiz-adv-x="325" 
d="M51 -77h110v704h-110v73h191v-850h-191v73z" />
    <glyph glyph-name="asciicircum" unicode="^" horiz-adv-x="442" 
d="M182 700h78l162 -252h-75l-126 194l-126 -194h-75z" />
    <glyph glyph-name="underscore" unicode="_" horiz-adv-x="452" 
d="M8 -7h436v-65h-436v65z" />
    <glyph glyph-name="grave" unicode="`" horiz-adv-x="292" 
d="M59 703h107l67 -145h-66z" />
    <glyph glyph-name="a" unicode="a" horiz-adv-x="525" 
d="M387 98q-20 -50 -68.5 -81t-103.5 -31q-75 0 -120.5 42.5t-45.5 109.5q0 69 47 108.5t122 50.5l168 26v25q0 48 -30.5 73t-86.5 25q-55 0 -86.5 -23.5t-31.5 -57.5q0 -8 2 -14l-71 -15q-6 14 -6 34q0 38 24.5 70t68.5 51t100 19q95 0 146 -43t51 -121v-222q0 -41 3.5 -68
t11.5 -56h-80q-14 44 -14 98zM311 81.5q36 25.5 55.5 68t19.5 91.5v20l-152 -24q-51 -9 -78 -33.5t-27 -62.5t27 -61.5t71 -23.5q48 0 84 25.5z" />
    <glyph glyph-name="b" unicode="b" horiz-adv-x="601" 
d="M151 700v-287q28 45 76 71t106 26q65 0 117.5 -33.5t82.5 -93t30 -135.5t-31 -135.5t-86 -93t-122 -33.5q-58 0 -104.5 28.5t-68.5 69.5v-84h-81v700h81zM399 83q38 24 59.5 67t21.5 98t-21.5 98t-60 67t-86.5 24t-86.5 -24.5t-60 -67.5t-21.5 -97t21.5 -97t59.5 -67.5
t87 -24.5t87 24z" />
    <glyph glyph-name="c" unicode="c" horiz-adv-x="542" 
d="M420 19.5q-54 -33.5 -127 -33.5q-72 0 -130 33.5t-91 93.5t-33 135t34.5 135t92.5 93.5t127 33.5q77 0 131.5 -32.5t83.5 -92.5l-65 -39q-25 44 -63.5 67t-85.5 23q-48 0 -87.5 -23t-62.5 -65.5t-23 -99.5q0 -56 22.5 -98.5t62 -66t88.5 -23.5q53 0 88.5 22.5t64.5 66.5
l61 -37q-34 -59 -88 -92.5z" />
    <glyph glyph-name="d" unicode="d" horiz-adv-x="601" 
d="M451 0v88q-22 -44 -68 -73t-104 -29q-68 0 -123 33.5t-86 93t-31 135.5q0 75 32 135t86 93.5t119 33.5q59 0 104.5 -25.5t70.5 -72.5v288h80v-700h-80zM376 83.5q38 24.5 59.5 67.5t21.5 97t-21.5 97t-59.5 67.5t-87 24.5q-48 0 -86.5 -24t-60 -67t-21.5 -98t21.5 -98
t60 -67t86.5 -24q49 0 87 24.5z" />
    <glyph glyph-name="e" unicode="e" horiz-adv-x="566" 
d="M168.5 106q46.5 -51 119.5 -51q58 0 91.5 22.5t64.5 65.5l61 -34q-35 -58 -88 -90.5t-132 -32.5q-68 0 -124 33.5t-89 93.5t-33 135t33.5 135t90.5 93.5t126 33.5q72 0 126 -31.5t83 -88t29 -128.5v-27h-409q4 -78 50.5 -129zM177.5 404q-47.5 -41 -59.5 -104h328
q-4 68 -49 106.5t-109 38.5q-63 0 -110.5 -41z" />
    <glyph glyph-name="f" unicode="f" horiz-adv-x="317" 
d="M98 496v92q0 76 40 119t114 43q29 0 52 -10l-13 -69q-18 7 -39 7q-32 0 -52.5 -21.5t-20.5 -64.5v-96h117v-63h-117v-433h-81v433h-76v63h76z" />
    <glyph glyph-name="g" unicode="g" horiz-adv-x="584" 
d="M148 -74q0 -34 36.5 -55.5t97.5 -21.5q77 0 117 45.5t40 134.5v70q-56 -91 -167 -91q-65 0 -118 30.5t-83.5 87.5t-30.5 133q0 77 31.5 134t84.5 87t116 30q57 0 100 -23t67 -62v71h81v-463q0 -118 -63 -184.5t-175 -66.5q-105 0 -160 41t-55 105q0 12 4 30l79 -10
q-2 -12 -2 -22zM164.5 391q-44.5 -49 -44.5 -132t44.5 -132t117.5 -49t118 49t45 132t-45 132t-118 49t-117.5 -49z" />
    <glyph glyph-name="h" unicode="h" horiz-adv-x="573" 
d="M423 0v316q0 58 -32.5 89.5t-88.5 31.5q-39 0 -74 -22t-56 -61t-21 -87v-267h-81v700h81v-295q27 49 74 77t104 28q81 0 127.5 -46t46.5 -128v-336h-80z" />
    <glyph glyph-name="i" unicode="i" horiz-adv-x="223" 
d="M152 496v-496h-81v496h81zM64 680h95v-97h-95v97z" />
    <glyph glyph-name="j" unicode="j" horiz-adv-x="224" 
d="M160 680v-97h-95v97h95zM15 -138q57 0 57 70v564h81v-560q0 -68 -31 -107.5t-95 -39.5q-34 0 -63 9l11 72q19 -8 40 -8z" />
    <glyph glyph-name="k" unicode="k" horiz-adv-x="502" 
d="M72 700h80v-391l194 187h102l-178 -172l208 -324h-92l-172 268l-62 -60v-208h-80v700z" />
    <glyph glyph-name="l" unicode="l" horiz-adv-x="221" 
d="M151 700v-700h-81v700h81z" />
    <glyph glyph-name="m" unicode="m" horiz-adv-x="816" 
d="M665 0v339q0 101 -96 101q-51 0 -86.5 -45t-35.5 -129v-266h-80v336q0 48 -24 76t-70 28q-33 0 -61 -20t-44.5 -58.5t-16.5 -91.5v-270h-81v496h81v-77q22 41 61.5 66t86.5 25q49 0 85.5 -25t51.5 -70q24 43 66 69t91 26q70 0 111.5 -39.5t41.5 -108.5v-362h-81z" />
    <glyph glyph-name="n" unicode="n" horiz-adv-x="567" 
d="M416 0v316q0 58 -32.5 89.5t-87.5 31.5q-38 0 -71.5 -21.5t-53.5 -59.5t-20 -85v-271h-81v496h81v-88q27 47 73 74.5t99 27.5q76 0 125 -44.5t49 -128.5v-337h-81z" />
    <glyph glyph-name="o" unicode="o" horiz-adv-x="597" 
d="M522 107.5q-36 -59.5 -95.5 -90.5t-128.5 -31t-128 31t-95 90.5t-36 140.5t36 140.5t95 90.5t128 31t128.5 -31t95.5 -90.5t36 -140.5t-36 -140.5zM389 83q41 24 64.5 67t23.5 98t-23.5 98t-64.5 67t-91 24q-49 0 -90 -24t-64.5 -67t-23.5 -98t23.5 -98t64.5 -67t90 -24
q50 0 91 24z" />
    <glyph glyph-name="p" unicode="p" horiz-adv-x="603" 
d="M152 496v-90q25 45 73 74.5t107 29.5q65 0 118 -33.5t83.5 -93t30.5 -135.5q0 -75 -30.5 -135t-84 -93.5t-121.5 -33.5q-57 0 -103.5 25t-72.5 69v-284h-80v700h80zM227 412.5q-38 -24.5 -59.5 -67.5t-21.5 -97t21.5 -97t59.5 -67.5t87 -24.5t87 24t59.5 67.5t21.5 97.5
t-21.5 97.5t-59.5 67.5t-87 24t-87 -24.5z" />
    <glyph glyph-name="q" unicode="q" horiz-adv-x="603" 
d="M451 -204v286q-27 -47 -71.5 -71.5t-102.5 -24.5q-66 0 -120.5 34t-86 93.5t-31.5 134.5t31.5 135t86 93.5t120.5 33.5q61 0 107 -27t67 -72v85h80v-700h-80zM202 413q-38 -24 -59.5 -67.5t-21.5 -97.5t21.5 -97.5t59.5 -67.5t87 -24t87 24.5t59.5 67.5t21.5 97t-21.5 97
t-59.5 67.5t-87 24.5t-87 -24z" />
    <glyph glyph-name="r" unicode="r" horiz-adv-x="349" 
d="M282 437q-36 0 -66 -23.5t-47.5 -64t-17.5 -87.5v-262h-81v496h81v-89q19 45 56.5 74t84.5 29q25 0 42 -5l-14 -73q-17 5 -38 5z" />
    <glyph glyph-name="s" unicode="s" horiz-adv-x="482" 
d="M178.5 324q32.5 -20 98.5 -33q81 -16 122.5 -51t41.5 -96q0 -42 -22 -78t-64 -58t-100 -22q-80 0 -132.5 33t-76.5 85l67 42q19 -40 56 -65.5t87 -25.5t79 23t29 62q0 36 -30 57t-94 33q-77 14 -122 50t-45 97q0 60 49 96.5t121 36.5q69 0 111.5 -24t69.5 -71l-57 -40
q-39 69 -123 69q-42 0 -70 -18t-28 -49q0 -33 32.5 -53z" />
    <glyph glyph-name="t" unicode="t" horiz-adv-x="344" 
d="M110 496v134h80v-134h119v-63h-119v-300q0 -76 69 -76q18 0 38 6l8 -67q-30 -10 -64 -10q-58 0 -94.5 34.5t-36.5 106.5v306h-84v63h84z" />
    <glyph glyph-name="u" unicode="u" horiz-adv-x="567" 
d="M152 496v-314q0 -59 32 -91t87 -32q40 0 73 22t52.5 61.5t19.5 89.5v264h81v-496h-81v87q-24 -46 -68.5 -73.5t-97.5 -27.5q-77 0 -127.5 46.5t-50.5 139.5v324h80z" />
    <glyph glyph-name="v" unicode="v" horiz-adv-x="494" 
d="M207 0l-199 496h86l153 -400l153 400h86l-199 -496h-80z" />
    <glyph glyph-name="w" unicode="w" horiz-adv-x="689" 
d="M603 496h79l-142 -496h-85l-111 404l-110 -404h-85l-142 496h79l107 -401l109 401h84l110 -401z" />
    <glyph glyph-name="x" unicode="x" horiz-adv-x="447" 
d="M331 496h91l-151 -228l175 -268h-90l-132 203l-131 -203h-94l181 264l-153 232h92l105 -168z" />
    <glyph glyph-name="y" unicode="y" horiz-adv-x="500" 
d="M114 -136q21 0 35.5 12.5t25.5 38.5l33 84l-203 497h91l155 -388l154 388h89l-248 -606q-21 -53 -52 -76.5t-78 -23.5q-31 0 -55 9l14 75q20 -10 39 -10z" />
    <glyph glyph-name="z" unicode="z" horiz-adv-x="481" 
d="M441 0h-400v67l294 362h-285v67h376v-67l-295 -362h310v-67z" />
    <glyph glyph-name="braceleft" unicode="{" horiz-adv-x="372" 
d="M166.5 -110q-36.5 40 -36.5 130v127q0 53 -17.5 73t-57.5 20v70q40 0 57.5 20t17.5 73v127q0 90 36.5 130t117.5 40h37v-73h-29q-81 0 -81 -90v-140q0 -55 -15 -80.5t-51 -41.5q36 -16 51 -41.5t15 -80.5v-140q0 -90 81 -90h29v-73h-37q-81 0 -117.5 40z" />
    <glyph glyph-name="bar" unicode="|" horiz-adv-x="247" 
d="M83 740h81v-850h-81v850z" />
    <glyph glyph-name="braceright" unicode="}" horiz-adv-x="372" 
d="M51 -77h29q81 0 81 90v140q0 55 15 80.5t51 41.5q-36 16 -51 41.5t-15 80.5v140q0 90 -81 90h-29v73h37q80 0 116.5 -40t36.5 -130v-127q0 -53 18 -73t58 -20v-70q-40 0 -58 -20t-18 -73v-127q0 -90 -36.5 -130t-116.5 -40h-37v73z" />
    <glyph glyph-name="asciitilde" unicode="~" horiz-adv-x="438" 
d="M45 313q0 40 27 62.5t67 22.5q32 0 53.5 -10t45.5 -29q18 -14 29 -20t25 -6t22.5 8.5t8.5 21.5q0 12 -6 22l64 13q12 -18 12 -45q0 -40 -27 -62.5t-66 -22.5q-33 0 -54.5 10t-45.5 29q-18 14 -29 20t-25 6t-22.5 -8.5t-8.5 -21.5q0 -10 7 -22l-65 -13q-12 18 -12 45z" />
    <glyph glyph-name="uni00A0" unicode="&#xa0;" horiz-adv-x="276" 
 />
    <glyph glyph-name="exclamdown" unicode="&#xa1;" horiz-adv-x="265" 
d="M83 496h99v-102h-99v102zM90 19l13 293h59l12 -293v-223h-84v223z" />
    <glyph glyph-name="cent" unicode="&#xa2;" horiz-adv-x="564" 
d="M402.5 91q28.5 22 51.5 58l61 -37q-62 -110 -180 -124v-98h-73v99q-63 8 -112 43.5t-76.5 91.5t-27.5 124t28.5 124t78 91t109.5 44v113h73v-112q64 -7 109.5 -38.5t70.5 -84.5l-65 -39q-41 71 -115 87v-370q39 6 67.5 28zM165.5 126.5q36.5 -49.5 96.5 -62.5v368
q-59 -13 -96 -62t-37 -122q0 -72 36.5 -121.5z" />
    <glyph glyph-name="sterling" unicode="&#xa3;" horiz-adv-x="562" 
d="M68 57q33 44 49 84t16 94q0 44 -10 81h-92v64h75q-22 70 -22 122q0 65 29.5 113t80 73.5t113.5 25.5q66 0 114 -22.5t73 -61.5t25 -88q0 -21 -3 -37t-11 -34l-76 13q11 28 11 55q0 43 -35.5 74t-98.5 31q-62 0 -101 -38t-39 -108q0 -27 5.5 -54.5t15.5 -63.5h199v-64
h-184q9 -37 9 -77q0 -50 -13 -88.5t-37 -77.5h348v-73h-441v57z" />
    <glyph glyph-name="currency" unicode="&#xa4;" horiz-adv-x="631" 
d="M66 153l67 67q-40 56 -40 130t40 130l-67 67l53 52l67 -66q60 40 129 40q70 0 130 -40l67 66l53 -52l-67 -67q39 -55 39 -130t-39 -130l67 -67l-53 -52l-67 66q-60 -40 -130 -40q-69 0 -129 40l-67 -66zM421.5 238.5q41.5 43.5 41.5 111.5t-41.5 111.5t-106.5 43.5
t-106.5 -43.5t-41.5 -111.5t41.5 -111.5t106.5 -43.5t106.5 43.5z" />
    <glyph glyph-name="yen" unicode="&#xa5;" horiz-adv-x="558" 
d="M237 143h-148v64h148v79h-148v65h113l-187 349h91l151 -293q13 -26 22 -49q9 23 22 49l151 293h91l-187 -349h114v-65h-149v-79h149v-64h-149v-143h-84v143z" />
    <glyph glyph-name="brokenbar" unicode="&#xa6;" horiz-adv-x="247" 
d="M83 740h81v-358h-81v358zM83 248h81v-358h-81v358z" />
    <glyph glyph-name="section" unicode="&#xa7;" horiz-adv-x="516" 
d="M133 -57q-52 36 -79 96l60 44q22 -54 60.5 -81.5t89.5 -27.5q48 0 81 24t33 67t-33.5 71t-122.5 49q-78 17 -120 56t-42 94q0 31 14.5 58t39.5 46q-50 47 -50 113q0 50 26 87t69 56t94 19q77 0 129.5 -36t79.5 -96l-60 -44q-22 54 -60.5 81.5t-89.5 27.5q-48 0 -81 -24
t-33 -69q0 -39 34 -69t122 -49q87 -20 124.5 -54t37.5 -88q0 -67 -54 -109q50 -44 50 -116q0 -50 -26 -87t-69.5 -56t-94.5 -19q-77 0 -129 36zM382 284q0 32 -30 53.5t-101 37.5q-53 12 -86 30q-15 -12 -23.5 -28.5t-8.5 -32.5q0 -35 29.5 -57.5t100.5 -40.5q43 -10 85 -28
q34 27 34 66z" />
    <glyph glyph-name="dieresis" unicode="&#xa8;" horiz-adv-x="383" 
d="M66 680h93v-92h-93v92zM225 680h92v-92h-92v92z" />
    <glyph glyph-name="copyright" unicode="&#xa9;" horiz-adv-x="841" 
d="M238.5 35q-83.5 49 -132.5 132.5t-49 182.5t49 182.5t132.5 132.5t182.5 49t182.5 -49t132.5 -132.5t49 -182.5t-49 -182.5t-132.5 -132.5t-182.5 -49t-182.5 49zM573 86q69 41 109.5 111t40.5 153t-40.5 153t-109.5 111t-152 41t-152.5 -41t-110 -111t-40.5 -153
t40.5 -153t110 -111t152.5 -41t152 41zM320.5 172q-45.5 26 -71 72.5t-25.5 105.5t26.5 105.5t72 72.5t99.5 26q62 0 107 -28t65 -78l-48 -31q-38 79 -124 79q-36 0 -66.5 -18t-48.5 -51t-18 -77q0 -66 38 -105.5t96 -39.5q83 0 125 83l48 -31q-26 -53 -70.5 -82t-101.5 -29
q-58 0 -103.5 26z" />
    <glyph glyph-name="ordfeminine" unicode="&#xaa;" horiz-adv-x="381" 
d="M278 366q-16 -34 -47 -53.5t-69 -19.5q-52 0 -84 29.5t-32 76.5q0 48 32.5 75.5t87.5 36.5l111 18v11q0 68 -75 68q-36 0 -56 -14t-20 -35q0 -6 1 -10l-58 -20q-5 11 -5 28q0 26 17 49t48.5 37t72.5 14q68 0 103.5 -30t35.5 -86v-152q0 -30 4.5 -50t16.5 -39h-64
q-20 24 -20 66zM249 383q28 35 28 85v12l-101 -16q-31 -5 -48.5 -20.5t-17.5 -40.5t17 -40t44 -15q50 0 78 35z" />
    <glyph glyph-name="guillemotleft" unicode="&#xab;" horiz-adv-x="512" 
d="M45 275l157 200h94l-156 -200l156 -200h-94zM227 275l157 200h94l-156 -200l156 -200h-94z" />
    <glyph glyph-name="logicalnot" unicode="&#xac;" horiz-adv-x="528" 
d="M376 331h-331v68h412v-202h-81v134z" />
    <glyph glyph-name="uni00AD" unicode="&#xad;" horiz-adv-x="453" 
d="M45 343h363v-64h-363v64z" />
    <glyph glyph-name="registered" unicode="&#xae;" horiz-adv-x="841" 
d="M238.5 35q-83.5 49 -132.5 132.5t-49 182.5t49 182.5t132.5 132.5t182.5 49t182.5 -49t132.5 -132.5t49 -182.5t-49 -182.5t-132.5 -132.5t-182.5 -49t-182.5 49zM573 86q69 41 109.5 111t40.5 153t-40.5 153t-109.5 111t-152 41t-152.5 -41t-110 -111t-40.5 -153
t40.5 -153t110 -111t152.5 -41t152 41zM282 549h160q62 0 96.5 -32t34.5 -84q0 -44 -27.5 -73.5t-73.5 -39.5l98 -169h-66l-95 166h-67v-166h-60v398zM440 367q36 0 55 18t19 48t-19 47t-55 17h-98v-130h98z" />
    <glyph glyph-name="macron" unicode="&#xaf;" horiz-adv-x="311" 
d="M45 669h220v-68h-220v68z" />
    <glyph glyph-name="degree" unicode="&#xb0;" horiz-adv-x="358" 
d="M109 459.5q-31 18.5 -49 49.5t-18 69q0 37 18 68.5t49 49.5t70 18t70 -18t49 -49.5t18 -68.5q0 -38 -18 -69t-49 -49.5t-70 -18.5t-70 18.5zM236 521q22 23 22 57t-22 56.5t-57 22.5t-57 -22.5t-22 -56.5t22 -57t57 -23t57 23z" />
    <glyph glyph-name="plusminus" unicode="&#xb1;" horiz-adv-x="516" 
d="M226 338h-179v64h179v179h64v-179h179v-64h-179v-179h-64v179zM47 64h422v-64h-422v64z" />
    <glyph glyph-name="uni00B2" unicode="&#xb2;" horiz-adv-x="336" 
d="M59 392l131 126q25 25 34.5 44t9.5 42q0 22 -15.5 36.5t-42.5 14.5t-43.5 -15.5t-16.5 -40.5q0 -14 4 -23l-54 -8q-6 15 -6 36q0 41 32 72t84 31q54 0 85.5 -28t31.5 -72q0 -35 -14.5 -61.5t-49.5 -61.5l-82 -80h150v-54h-238v42z" />
    <glyph glyph-name="uni00B3" unicode="&#xb3;" horiz-adv-x="339" 
d="M83 373.5q-34 30.5 -34 71.5q0 16 6 32l55 -12q-3 -7 -3 -18q0 -24 19 -38t48 -14q30 0 47.5 15.5t17.5 44.5t-25.5 44t-67.5 15v46q39 0 57.5 14.5t18.5 40.5q0 19 -14.5 30.5t-38.5 11.5t-40 -12.5t-16 -33.5q0 -7 2 -17l-52 -6q-5 13 -5 27q0 38 31 65t80 27
q52 0 82 -24.5t30 -61.5q0 -24 -13 -44.5t-39 -33.5q29 -10 48.5 -33t19.5 -56q0 -51 -34.5 -81t-89.5 -30q-56 0 -90 30.5z" />
    <glyph glyph-name="acute" unicode="&#xb4;" horiz-adv-x="292" 
d="M126 703h107l-108 -145h-66z" />
    <glyph glyph-name="uni00B5" unicode="&#xb5;" horiz-adv-x="569" 
d="M72 496h80v-314q0 -59 32 -91t87 -32q40 0 73 22t52.5 61.5t19.5 89.5v264h81v-496h-81v87q-24 -46 -68.5 -73.5t-97.5 -27.5q-59 0 -100 28q2 -36 2 -63v-155h-80v700z" />
    <glyph glyph-name="paragraph" unicode="&#xb6;" horiz-adv-x="615" 
d="M288 324h-36q-59 0 -107 23t-75.5 66t-27.5 99t27.5 99t75.5 66t107 23h328v-69h-62v-751h-77v751h-76v-751h-77v444z" />
    <glyph glyph-name="periodcentered" unicode="&#xb7;" horiz-adv-x="189" 
d="M45 408h98v-99h-98v99z" />
    <glyph glyph-name="cedilla" unicode="&#xb8;" horiz-adv-x="298" 
d="M89.5 -188q-22.5 16 -29.5 44l49 13q7 -28 39 -28q15 0 25 9.5t10 26.5t-10.5 27.5t-27.5 10.5q-23 0 -47 -20l-31 29l33 92h55l-39 -73q19 13 47 13q32 0 53 -21.5t21 -55.5q0 -39 -26 -61t-65 -22q-34 0 -56.5 16z" />
    <glyph glyph-name="uni00B9" unicode="&#xb9;" horiz-adv-x="244" 
d="M118 623q-12 -13 -30 -18.5t-45 -5.5v58q32 0 50 10t29 33h56v-350h-60v273z" />
    <glyph glyph-name="ordmasculine" unicode="&#xba;" horiz-adv-x="455" 
d="M383 377.5q-26 -41.5 -68 -63t-87 -21.5q-46 0 -88 21.5t-68 63t-26 97.5t26 97.5t68 63t88 21.5q45 0 87 -21.5t68 -63t26 -97.5t-26 -97.5zM311.5 385q33.5 35 33.5 90t-33.5 90t-83.5 35q-51 0 -84.5 -35.5t-33.5 -89.5t33.5 -89.5t84.5 -35.5q50 0 83.5 35z" />
    <glyph glyph-name="guillemotright" unicode="&#xbb;" horiz-adv-x="512" 
d="M190 275l-156 200h94l157 -200l-157 -200h-94zM372 275l-156 200h94l157 -200l-157 -200h-94z" />
    <glyph glyph-name="onequarter" unicode="&#xbc;" horiz-adv-x="737" 
d="M118 623q-12 -13 -30 -18.5t-45 -5.5v58q32 0 50 10t29 33h56v-350h-60v273zM123 35l434 665l52 -35l-435 -665zM586 66h-167v51l167 233h61v-233h39v-51h-39v-66h-61v66zM586 117v147l-108 -147h108z" />
    <glyph glyph-name="onehalf" unicode="&#xbd;" horiz-adv-x="752" 
d="M118 623q-12 -13 -30 -18.5t-45 -5.5v58q32 0 50 10t29 33h56v-350h-60v273zM123 35l434 665l52 -35l-435 -665zM475 42l131 126q25 25 34.5 44t9.5 42q0 22 -15.5 36.5t-42.5 14.5t-43.5 -15.5t-16.5 -40.5q0 -14 4 -23l-54 -8q-6 15 -6 36q0 41 32 72t84 31
q54 0 85.5 -28t31.5 -72q0 -35 -14.5 -61.5t-49.5 -61.5l-82 -80h150v-54h-238v42z" />
    <glyph glyph-name="threequarters" unicode="&#xbe;" horiz-adv-x="772" 
d="M176 35l434 665l52 -35l-435 -665zM621 66h-167v51l167 233h61v-233h39v-51h-39v-66h-61v66zM621 117v147l-108 -147h108zM83 373.5q-34 30.5 -34 71.5q0 16 6 32l55 -12q-3 -7 -3 -18q0 -24 19 -38t48 -14q30 0 47.5 15.5t17.5 44.5t-25.5 44t-67.5 15v46
q39 0 57.5 14.5t18.5 40.5q0 19 -14.5 30.5t-38.5 11.5t-40 -12.5t-16 -33.5q0 -7 2 -17l-52 -6q-5 13 -5 27q0 38 31 65t80 27q52 0 82 -24.5t30 -61.5q0 -24 -13 -44.5t-39 -33.5q29 -10 48.5 -33t19.5 -56q0 -51 -34.5 -81t-89.5 -30q-56 0 -90 30.5z" />
    <glyph glyph-name="questiondown" unicode="&#xbf;" horiz-adv-x="533" 
d="M325 394h-98v102h98v-102zM318 296q0 -54 -18 -89t-68 -77q-57 -47 -79 -80.5t-22 -79.5q0 -53 38.5 -85t99.5 -32q58 0 98 35t40 98q0 22 -8 41l74 15q13 -26 13 -64q0 -50 -26.5 -95t-75.5 -73t-114 -28q-68 0 -117.5 23.5t-75.5 64.5t-26 93q0 62 26.5 106.5
t98.5 106.5q33 28 46.5 55.5t13.5 78.5h82v-14z" />
    <glyph glyph-name="Agrave" unicode="&#xc0;" horiz-adv-x="658" 
d="M286 700h86l280 -700h-89l-80 206h-308l-80 -206h-89zM455 278l-107 276q-11 25 -19 53q-8 -28 -19 -53l-107 -276h252zM206 907h107l67 -145h-66z" />
    <glyph glyph-name="Aacute" unicode="&#xc1;" horiz-adv-x="658" 
d="M286 700h86l280 -700h-89l-80 206h-308l-80 -206h-89zM455 278l-107 276q-11 25 -19 53q-8 -28 -19 -53l-107 -276h252zM344 907h107l-108 -145h-66z" />
    <glyph glyph-name="Acircumflex" unicode="&#xc2;" horiz-adv-x="658" 
d="M286 700h86l280 -700h-89l-80 206h-308l-80 -206h-89zM455 278l-107 276q-11 25 -19 53q-8 -28 -19 -53l-107 -276h252zM297 906h64l102 -144h-66l-68 72l-68 -72h-66z" />
    <glyph glyph-name="Atilde" unicode="&#xc3;" horiz-adv-x="658" 
d="M286 700h86l280 -700h-89l-80 206h-308l-80 -206h-89zM455 278l-107 276q-11 25 -19 53q-8 -28 -19 -53l-107 -276h252zM351 775.5q-21 10.5 -43 29.5q-16 14 -27.5 20.5t-26.5 6.5q-13 0 -21 -8t-8 -20q0 -13 6 -24l-58 -12q-11 20 -11 45q0 38 26 58.5t62 20.5
q35 0 56 -10.5t43 -29.5q16 -14 27 -20.5t27 -6.5q14 0 21.5 8t7.5 20t-5 24l57 12q11 -19 11 -45q0 -38 -26 -58.5t-62 -20.5q-35 0 -56 10.5z" />
    <glyph glyph-name="Adieresis" unicode="&#xc4;" horiz-adv-x="658" 
d="M286 700h86l280 -700h-89l-80 206h-308l-80 -206h-89zM455 278l-107 276q-11 25 -19 53q-8 -28 -19 -53l-107 -276h252zM204 884h93v-92h-93v92zM363 884h92v-92h-92v92z" />
    <glyph glyph-name="Aring" unicode="&#xc5;" horiz-adv-x="658" 
d="M286 700h86l280 -700h-89l-80 206h-308l-80 -206h-89zM455 278l-107 276q-11 25 -19 53q-8 -28 -19 -53l-107 -276h252zM261 771.5q-28 27.5 -28 67.5t28 67.5t68 27.5t68 -27.5t28 -67.5t-28 -67.5t-68 -27.5t-68 27.5zM362 805.5q13 13.5 13 33.5t-13 33.5t-33 13.5
t-33 -13.5t-13 -33.5t13 -33.5t33 -13.5t33 13.5z" />
    <glyph glyph-name="AE" unicode="&#xc6;" horiz-adv-x="934" 
d="M185 206l-91 -206h-88l313 700h548v-74h-353v-227h325v-74h-325v-251h356v-74h-440v206h-245zM430 278v348h-59l-154 -348h213z" />
    <glyph glyph-name="Ccedilla" unicode="&#xc7;" horiz-adv-x="747" 
d="M378 -14l-16 -29q19 13 46 13q33 0 54 -21t21 -56q0 -39 -26 -61t-65 -22q-34 0 -56.5 16t-29.5 45l49 12q7 -27 38 -27q15 0 25.5 9.5t10.5 25.5q0 17 -10.5 27.5t-27.5 10.5q-26 0 -48 -19l-31 29l20 52q-81 14 -144.5 64t-99 126.5t-35.5 168.5q0 102 46.5 185.5
t126 131t172.5 47.5q100 0 174 -43t116 -117l-66 -45q-43 68 -97.5 99t-128.5 31q-70 0 -129.5 -37.5t-94.5 -103.5t-35 -148t33 -148t92 -103.5t133 -37.5q77 0 132 32t98 98l66 -42q-53 -81 -122 -122t-176 -41h-15z" />
    <glyph glyph-name="Egrave" unicode="&#xc8;" horiz-adv-x="585" 
d="M518 700v-74h-353v-227h325v-74h-325v-251h356v-74h-440v700h437zM180 907h107l67 -145h-66z" />
    <glyph glyph-name="Eacute" unicode="&#xc9;" horiz-adv-x="585" 
d="M518 700v-74h-353v-227h325v-74h-325v-251h356v-74h-440v700h437zM318 907h107l-108 -145h-66z" />
    <glyph glyph-name="Ecircumflex" unicode="&#xca;" horiz-adv-x="585" 
d="M518 700v-74h-353v-227h325v-74h-325v-251h356v-74h-440v700h437zM271 906h64l102 -144h-66l-68 72l-68 -72h-66z" />
    <glyph glyph-name="Edieresis" unicode="&#xcb;" horiz-adv-x="585" 
d="M518 700v-74h-353v-227h325v-74h-325v-251h356v-74h-440v700h437zM178 884h93v-92h-93v92zM337 884h92v-92h-92v92z" />
    <glyph glyph-name="Igrave" unicode="&#xcc;" horiz-adv-x="246" 
d="M165 700v-700h-84v700h84zM0 907h107l67 -145h-66z" />
    <glyph glyph-name="Iacute" unicode="&#xcd;" horiz-adv-x="246" 
d="M165 700v-700h-84v700h84zM138 907h107l-108 -145h-66z" />
    <glyph glyph-name="Icircumflex" unicode="&#xce;" horiz-adv-x="246" 
d="M165 700v-700h-84v700h84zM91 906h64l102 -144h-66l-68 72l-68 -72h-66z" />
    <glyph glyph-name="Idieresis" unicode="&#xcf;" horiz-adv-x="246" 
d="M165 700v-700h-84v700h84zM-2 884h93v-92h-93v92zM157 884h92v-92h-92v92z" />
    <glyph glyph-name="Eth" unicode="&#xd0;" horiz-adv-x="714" 
d="M112 386v314h193q105 0 185.5 -41.5t125.5 -121t45 -187.5t-45 -187.5t-125.5 -121t-185.5 -41.5h-193v314h-74v72h74zM501.5 145q74.5 70 74.5 205t-74.5 205t-199.5 70h-106v-239h154v-72h-154v-239h106q125 0 199.5 70z" />
    <glyph glyph-name="Ntilde" unicode="&#xd1;" horiz-adv-x="695" 
d="M168 700l335 -523q24 -41 30 -55v578h81v-700h-87l-335 524q-24 41 -30 55v-579h-81v700h87zM373 775.5q-21 10.5 -43 29.5q-16 14 -27.5 20.5t-26.5 6.5q-13 0 -21 -8t-8 -20q0 -13 6 -24l-58 -12q-11 20 -11 45q0 38 26 58.5t62 20.5q35 0 56 -10.5t43 -29.5
q16 -14 27 -20.5t27 -6.5q14 0 21.5 8t7.5 20t-5 24l57 12q11 -19 11 -45q0 -38 -26 -58.5t-62 -20.5q-35 0 -56 10.5z" />
    <glyph glyph-name="Ograve" unicode="&#xd2;" horiz-adv-x="784" 
d="M686.5 160.5q-44.5 -82.5 -122 -128.5t-172.5 -46t-172.5 46t-122 128.5t-44.5 189.5t44.5 189.5t122 128.5t172.5 46t172.5 -46t122 -128.5t44.5 -189.5t-44.5 -189.5zM523 97q58 36 91 101.5t33 151.5t-33 151.5t-91 101.5t-131 36t-131 -36t-91 -101.5t-33 -151.5
t33 -151.5t91 -101.5t131 -36t131 36zM269 907h107l67 -145h-66z" />
    <glyph glyph-name="Oacute" unicode="&#xd3;" horiz-adv-x="784" 
d="M686.5 160.5q-44.5 -82.5 -122 -128.5t-172.5 -46t-172.5 46t-122 128.5t-44.5 189.5t44.5 189.5t122 128.5t172.5 46t172.5 -46t122 -128.5t44.5 -189.5t-44.5 -189.5zM523 97q58 36 91 101.5t33 151.5t-33 151.5t-91 101.5t-131 36t-131 -36t-91 -101.5t-33 -151.5
t33 -151.5t91 -101.5t131 -36t131 36zM407 907h107l-108 -145h-66z" />
    <glyph glyph-name="Ocircumflex" unicode="&#xd4;" horiz-adv-x="784" 
d="M686.5 160.5q-44.5 -82.5 -122 -128.5t-172.5 -46t-172.5 46t-122 128.5t-44.5 189.5t44.5 189.5t122 128.5t172.5 46t172.5 -46t122 -128.5t44.5 -189.5t-44.5 -189.5zM523 97q58 36 91 101.5t33 151.5t-33 151.5t-91 101.5t-131 36t-131 -36t-91 -101.5t-33 -151.5
t33 -151.5t91 -101.5t131 -36t131 36zM360 906h64l102 -144h-66l-68 72l-68 -72h-66z" />
    <glyph glyph-name="Otilde" unicode="&#xd5;" horiz-adv-x="784" 
d="M686.5 160.5q-44.5 -82.5 -122 -128.5t-172.5 -46t-172.5 46t-122 128.5t-44.5 189.5t44.5 189.5t122 128.5t172.5 46t172.5 -46t122 -128.5t44.5 -189.5t-44.5 -189.5zM523 97q58 36 91 101.5t33 151.5t-33 151.5t-91 101.5t-131 36t-131 -36t-91 -101.5t-33 -151.5
t33 -151.5t91 -101.5t131 -36t131 36zM414 775.5q-21 10.5 -43 29.5q-16 14 -27.5 20.5t-26.5 6.5q-13 0 -21 -8t-8 -20q0 -13 6 -24l-58 -12q-11 20 -11 45q0 38 26 58.5t62 20.5q35 0 56 -10.5t43 -29.5q16 -14 27 -20.5t27 -6.5q14 0 21.5 8t7.5 20t-5 24l57 12
q11 -19 11 -45q0 -38 -26 -58.5t-62 -20.5q-35 0 -56 10.5z" />
    <glyph glyph-name="Odieresis" unicode="&#xd6;" horiz-adv-x="784" 
d="M686.5 160.5q-44.5 -82.5 -122 -128.5t-172.5 -46t-172.5 46t-122 128.5t-44.5 189.5t44.5 189.5t122 128.5t172.5 46t172.5 -46t122 -128.5t44.5 -189.5t-44.5 -189.5zM523 97q58 36 91 101.5t33 151.5t-33 151.5t-91 101.5t-131 36t-131 -36t-91 -101.5t-33 -151.5
t33 -151.5t91 -101.5t131 -36t131 36zM267 884h93v-92h-93v92zM426 884h92v-92h-92v92z" />
    <glyph glyph-name="multiply" unicode="&#xd7;" horiz-adv-x="506" 
d="M81 239l126 125l-126 127l45 46l127 -127l126 127l46 -46l-127 -127l127 -126l-46 -45l-126 126l-127 -126z" />
    <glyph glyph-name="Oslash" unicode="&#xd8;" horiz-adv-x="784" 
d="M694 525q37 -78 37 -175q0 -107 -44.5 -189.5t-122 -128.5t-172.5 -46q-74 0 -135 27l-26 -50l-65 36l27 51q-66 47 -103 125t-37 175q0 107 44.5 189.5t122 128.5t172.5 46q74 0 135 -27l26 50l65 -36l-27 -51q66 -47 103 -125zM161.5 217.5q24.5 -58.5 68.5 -97.5
l261 499q-46 20 -99 20q-73 0 -131 -36t-91 -101.5t-33 -151.5q0 -74 24.5 -132.5zM523 97q58 36 91 101.5t33 151.5q0 74 -24.5 132.5t-68.5 97.5l-261 -499q46 -20 99 -20q73 0 131 36z" />
    <glyph glyph-name="Ugrave" unicode="&#xd9;" horiz-adv-x="669" 
d="M565 105.5q-33 -58.5 -92.5 -89t-137.5 -30.5t-137.5 30.5t-92.5 89t-33 139.5v455h84v-450q0 -87 49 -138t130 -51q80 0 129.5 51t49.5 138v450h84v-455q0 -81 -33 -139.5zM212 907h107l67 -145h-66z" />
    <glyph glyph-name="Uacute" unicode="&#xda;" horiz-adv-x="669" 
d="M565 105.5q-33 -58.5 -92.5 -89t-137.5 -30.5t-137.5 30.5t-92.5 89t-33 139.5v455h84v-450q0 -87 49 -138t130 -51q80 0 129.5 51t49.5 138v450h84v-455q0 -81 -33 -139.5zM350 907h107l-108 -145h-66z" />
    <glyph glyph-name="Ucircumflex" unicode="&#xdb;" horiz-adv-x="669" 
d="M565 105.5q-33 -58.5 -92.5 -89t-137.5 -30.5t-137.5 30.5t-92.5 89t-33 139.5v455h84v-450q0 -87 49 -138t130 -51q80 0 129.5 51t49.5 138v450h84v-455q0 -81 -33 -139.5zM303 906h64l102 -144h-66l-68 72l-68 -72h-66z" />
    <glyph glyph-name="Udieresis" unicode="&#xdc;" horiz-adv-x="669" 
d="M565 105.5q-33 -58.5 -92.5 -89t-137.5 -30.5t-137.5 30.5t-92.5 89t-33 139.5v455h84v-450q0 -87 49 -138t130 -51q80 0 129.5 51t49.5 138v450h84v-455q0 -81 -33 -139.5zM209 884h93v-92h-93v92zM368 884h92v-92h-92v92z" />
    <glyph glyph-name="Yacute" unicode="&#xdd;" horiz-adv-x="551" 
d="M234 286l-230 414h91l159 -295q13 -25 22 -48q9 23 22 48l158 295h91l-229 -414v-286h-84v286zM291 907h107l-108 -145h-66z" />
    <glyph glyph-name="Thorn" unicode="&#xde;" horiz-adv-x="673" 
d="M167 700v-131h209q113 0 179.5 -58.5t66.5 -160.5t-66.5 -160.5t-179.5 -58.5h-209v-131h-84v700h84zM374 205q81 0 122.5 38t41.5 107t-41.5 107t-122.5 38h-207v-290h207z" />
    <glyph glyph-name="germandbls" unicode="&#xdf;" horiz-adv-x="590" 
d="M206 36l39 65q20 -20 46.5 -32.5t56.5 -12.5q51 0 82.5 34.5t31.5 92.5q0 77 -54.5 120t-135.5 43h-24v71h25q65 0 104.5 33.5t39.5 90.5q0 47 -32.5 75t-85.5 28t-86 -33.5t-33 -100.5v-510h-81v433h-75v63h75v14q0 68 28.5 114t74 68t98.5 22q59 0 103.5 -21
t68.5 -58.5t24 -85.5q0 -61 -33 -101t-86 -59q166 -52 166 -206q0 -55 -22.5 -100t-65.5 -71t-101 -26q-83 0 -148 50z" />
    <glyph glyph-name="agrave" unicode="&#xe0;" horiz-adv-x="525" 
d="M387 98q-20 -50 -68.5 -81t-103.5 -31q-75 0 -120.5 42.5t-45.5 109.5q0 69 47 108.5t122 50.5l168 26v25q0 48 -30.5 73t-86.5 25q-55 0 -86.5 -23.5t-31.5 -57.5q0 -8 2 -14l-71 -15q-6 14 -6 34q0 38 24.5 70t68.5 51t100 19q95 0 146 -43t51 -121v-222q0 -41 3.5 -68
t11.5 -56h-80q-14 44 -14 98zM311 81.5q36 25.5 55.5 68t19.5 91.5v20l-152 -24q-51 -9 -78 -33.5t-27 -62.5t27 -61.5t71 -23.5q48 0 84 25.5zM140 703h107l67 -145h-66z" />
    <glyph glyph-name="aacute" unicode="&#xe1;" horiz-adv-x="525" 
d="M387 98q-20 -50 -68.5 -81t-103.5 -31q-75 0 -120.5 42.5t-45.5 109.5q0 69 47 108.5t122 50.5l168 26v25q0 48 -30.5 73t-86.5 25q-55 0 -86.5 -23.5t-31.5 -57.5q0 -8 2 -14l-71 -15q-6 14 -6 34q0 38 24.5 70t68.5 51t100 19q95 0 146 -43t51 -121v-222q0 -41 3.5 -68
t11.5 -56h-80q-14 44 -14 98zM311 81.5q36 25.5 55.5 68t19.5 91.5v20l-152 -24q-51 -9 -78 -33.5t-27 -62.5t27 -61.5t71 -23.5q48 0 84 25.5zM284 703h107l-108 -145h-66z" />
    <glyph glyph-name="acircumflex" unicode="&#xe2;" horiz-adv-x="525" 
d="M387 98q-20 -50 -68.5 -81t-103.5 -31q-75 0 -120.5 42.5t-45.5 109.5q0 69 47 108.5t122 50.5l168 26v25q0 48 -30.5 73t-86.5 25q-55 0 -86.5 -23.5t-31.5 -57.5q0 -8 2 -14l-71 -15q-6 14 -6 34q0 38 24.5 70t68.5 51t100 19q95 0 146 -43t51 -121v-222q0 -41 3.5 -68
t11.5 -56h-80q-14 44 -14 98zM311 81.5q36 25.5 55.5 68t19.5 91.5v20l-152 -24q-51 -9 -78 -33.5t-27 -62.5t27 -61.5t71 -23.5q48 0 84 25.5zM237 702h64l102 -144h-66l-68 72l-68 -72h-66z" />
    <glyph glyph-name="atilde" unicode="&#xe3;" horiz-adv-x="525" 
d="M387 98q-20 -50 -68.5 -81t-103.5 -31q-75 0 -120.5 42.5t-45.5 109.5q0 69 47 108.5t122 50.5l168 26v25q0 48 -30.5 73t-86.5 25q-55 0 -86.5 -23.5t-31.5 -57.5q0 -8 2 -14l-71 -15q-6 14 -6 34q0 38 24.5 70t68.5 51t100 19q95 0 146 -43t51 -121v-222q0 -41 3.5 -68
t11.5 -56h-80q-14 44 -14 98zM311 81.5q36 25.5 55.5 68t19.5 91.5v20l-152 -24q-51 -9 -78 -33.5t-27 -62.5t27 -61.5t71 -23.5q48 0 84 25.5zM292 571.5q-21 10.5 -43 29.5q-16 14 -27.5 20.5t-26.5 6.5q-13 0 -21 -8t-8 -20q0 -13 6 -24l-58 -12q-11 20 -11 45
q0 38 26 58.5t62 20.5q35 0 56 -10.5t43 -29.5q16 -14 27 -20.5t27 -6.5q14 0 21.5 8t7.5 20t-5 24l57 12q11 -19 11 -45q0 -38 -26 -58.5t-62 -20.5q-35 0 -56 10.5z" />
    <glyph glyph-name="adieresis" unicode="&#xe4;" horiz-adv-x="525" 
d="M387 98q-20 -50 -68.5 -81t-103.5 -31q-75 0 -120.5 42.5t-45.5 109.5q0 69 47 108.5t122 50.5l168 26v25q0 48 -30.5 73t-86.5 25q-55 0 -86.5 -23.5t-31.5 -57.5q0 -8 2 -14l-71 -15q-6 14 -6 34q0 38 24.5 70t68.5 51t100 19q95 0 146 -43t51 -121v-222q0 -41 3.5 -68
t11.5 -56h-80q-14 44 -14 98zM311 81.5q36 25.5 55.5 68t19.5 91.5v20l-152 -24q-51 -9 -78 -33.5t-27 -62.5t27 -61.5t71 -23.5q48 0 84 25.5zM144 680h93v-92h-93v92zM303 680h92v-92h-92v92z" />
    <glyph glyph-name="aring" unicode="&#xe5;" horiz-adv-x="525" 
d="M387 98q-20 -50 -68.5 -81t-103.5 -31q-75 0 -120.5 42.5t-45.5 109.5q0 69 47 108.5t122 50.5l168 26v25q0 48 -30.5 73t-86.5 25q-55 0 -86.5 -23.5t-31.5 -57.5q0 -8 2 -14l-71 -15q-6 14 -6 34q0 38 24.5 70t68.5 51t100 19q95 0 146 -43t51 -121v-222q0 -41 3.5 -68
t11.5 -56h-80q-14 44 -14 98zM311 81.5q36 25.5 55.5 68t19.5 91.5v20l-152 -24q-51 -9 -78 -33.5t-27 -62.5t27 -61.5t71 -23.5q48 0 84 25.5zM202 567.5q-28 27.5 -28 67.5t28 67.5t68 27.5t68 -27.5t28 -67.5t-28 -67.5t-68 -27.5t-68 27.5zM303 601.5q13 13.5 13 33.5
t-13 33.5t-33 13.5t-33 -13.5t-13 -33.5t13 -33.5t33 -13.5t33 13.5z" />
    <glyph glyph-name="ae" unicode="&#xe6;" horiz-adv-x="919" 
d="M97 28q-48 42 -48 108q0 75 57.5 119t151.5 44h128v41q0 106 -115 106q-57 0 -87.5 -23t-30.5 -56q0 -7 2 -14l-69 -24q-7 16 -7 40q0 38 24 70.5t67 51.5t97 19q69 0 114.5 -24t65.5 -68q34 43 84 67.5t108 24.5q72 0 126 -31.5t83 -88t29 -128.5v-27h-409
q4 -78 50.5 -129t119.5 -51q62 0 101.5 29.5t64.5 81.5l59 -35q-69 -145 -228 -145q-68 0 -125 37t-88 97q-25 -63 -81.5 -98.5t-118.5 -35.5q-77 0 -125 42zM797 299q-4 69 -49 107.5t-110 38.5q-63 0 -110.5 -41.5t-59.5 -104.5h329zM312 81q36 25 55 65.5t19 84.5v4h-124
q-67 0 -100 -27t-33 -70q0 -36 27.5 -59t72.5 -23q47 0 83 25z" />
    <glyph glyph-name="ccedilla" unicode="&#xe7;" horiz-adv-x="542" 
d="M382.5 82.5q35.5 22.5 64.5 66.5l61 -37q-34 -59 -88 -92.5t-127 -33.5h-10l-23 -43q19 13 47 13q32 0 53 -21.5t21 -55.5q0 -39 -26 -61t-65 -22q-34 0 -56.5 16t-29.5 44l49 13q7 -28 39 -28q15 0 25 9.5t10 26.5t-10.5 27.5t-27.5 10.5q-23 0 -47 -20l-31 29l24 68
q-88 19 -142 88.5t-54 167.5q0 75 34.5 135t92.5 93.5t127 33.5q77 0 131.5 -32.5t83.5 -92.5l-65 -39q-25 44 -63.5 67t-85.5 23q-48 0 -87.5 -23t-62.5 -65.5t-23 -99.5q0 -56 22.5 -98.5t62 -66t88.5 -23.5q53 0 88.5 22.5z" />
    <glyph glyph-name="egrave" unicode="&#xe8;" horiz-adv-x="566" 
d="M168.5 106q46.5 -51 119.5 -51q58 0 91.5 22.5t64.5 65.5l61 -34q-35 -58 -88 -90.5t-132 -32.5q-68 0 -124 33.5t-89 93.5t-33 135t33.5 135t90.5 93.5t126 33.5q72 0 126 -31.5t83 -88t29 -128.5v-27h-409q4 -78 50.5 -129zM177.5 404q-47.5 -41 -59.5 -104h328
q-4 68 -49 106.5t-109 38.5q-63 0 -110.5 -41zM158 703h107l67 -145h-66z" />
    <glyph glyph-name="eacute" unicode="&#xe9;" horiz-adv-x="566" 
d="M168.5 106q46.5 -51 119.5 -51q58 0 91.5 22.5t64.5 65.5l61 -34q-35 -58 -88 -90.5t-132 -32.5q-68 0 -124 33.5t-89 93.5t-33 135t33.5 135t90.5 93.5t126 33.5q72 0 126 -31.5t83 -88t29 -128.5v-27h-409q4 -78 50.5 -129zM177.5 404q-47.5 -41 -59.5 -104h328
q-4 68 -49 106.5t-109 38.5q-63 0 -110.5 -41zM302 703h107l-108 -145h-66z" />
    <glyph glyph-name="ecircumflex" unicode="&#xea;" horiz-adv-x="566" 
d="M168.5 106q46.5 -51 119.5 -51q58 0 91.5 22.5t64.5 65.5l61 -34q-35 -58 -88 -90.5t-132 -32.5q-68 0 -124 33.5t-89 93.5t-33 135t33.5 135t90.5 93.5t126 33.5q72 0 126 -31.5t83 -88t29 -128.5v-27h-409q4 -78 50.5 -129zM177.5 404q-47.5 -41 -59.5 -104h328
q-4 68 -49 106.5t-109 38.5q-63 0 -110.5 -41zM255 702h64l102 -144h-66l-68 72l-68 -72h-66z" />
    <glyph glyph-name="edieresis" unicode="&#xeb;" horiz-adv-x="566" 
d="M168.5 106q46.5 -51 119.5 -51q58 0 91.5 22.5t64.5 65.5l61 -34q-35 -58 -88 -90.5t-132 -32.5q-68 0 -124 33.5t-89 93.5t-33 135t33.5 135t90.5 93.5t126 33.5q72 0 126 -31.5t83 -88t29 -128.5v-27h-409q4 -78 50.5 -129zM177.5 404q-47.5 -41 -59.5 -104h328
q-4 68 -49 106.5t-109 38.5q-63 0 -110.5 -41zM162 680h93v-92h-93v92zM321 680h92v-92h-92v92z" />
    <glyph glyph-name="igrave" unicode="&#xec;" horiz-adv-x="223" 
d="M152 496v-496h-81v496h81zM-17 703h107l67 -145h-66z" />
    <glyph glyph-name="iacute" unicode="&#xed;" horiz-adv-x="223" 
d="M152 496v-496h-81v496h81zM127 703h107l-108 -145h-66z" />
    <glyph glyph-name="icircumflex" unicode="&#xee;" horiz-adv-x="223" 
d="M152 496v-496h-81v496h81zM80 702h64l102 -144h-66l-68 72l-68 -72h-66z" />
    <glyph glyph-name="idieresis" unicode="&#xef;" horiz-adv-x="223" 
d="M152 496v-496h-81v496h81zM-14 680h93v-92h-93v92zM145 680h92v-92h-92v92z" />
    <glyph glyph-name="eth" unicode="&#xf0;" horiz-adv-x="579" 
d="M167.5 14q-55.5 28 -88.5 82t-33 129q0 74 33.5 128t87.5 81.5t114 27.5q59 0 103 -23t67 -61q-22 98 -105 181l-126 -49l-21 59l93 36q-67 51 -135 80l37 60q103 -49 175 -110l99 38l23 -59l-72 -28q114 -125 114 -309q0 -96 -33 -161.5t-88.5 -97.5t-123.5 -32
q-65 0 -120.5 28zM369 75q37 20 60 58t23 91t-23 91t-60 58t-80 20q-42 0 -79.5 -20t-60.5 -58t-23 -91t23 -91t60.5 -58t79.5 -20q43 0 80 20z" />
    <glyph glyph-name="ntilde" unicode="&#xf1;" horiz-adv-x="567" 
d="M416 0v316q0 58 -32.5 89.5t-87.5 31.5q-38 0 -71.5 -21.5t-53.5 -59.5t-20 -85v-271h-81v496h81v-88q27 47 73 74.5t99 27.5q76 0 125 -44.5t49 -128.5v-337h-81zM312 571.5q-21 10.5 -43 29.5q-16 14 -27.5 20.5t-26.5 6.5q-13 0 -21 -8t-8 -20q0 -13 6 -24l-58 -12
q-11 20 -11 45q0 38 26 58.5t62 20.5q35 0 56 -10.5t43 -29.5q16 -14 27 -20.5t27 -6.5q14 0 21.5 8t7.5 20t-5 24l57 12q11 -19 11 -45q0 -38 -26 -58.5t-62 -20.5q-35 0 -56 10.5z" />
    <glyph glyph-name="ograve" unicode="&#xf2;" horiz-adv-x="597" 
d="M522 107.5q-36 -59.5 -95.5 -90.5t-128.5 -31t-128 31t-95 90.5t-36 140.5t36 140.5t95 90.5t128 31t128.5 -31t95.5 -90.5t36 -140.5t-36 -140.5zM389 83q41 24 64.5 67t23.5 98t-23.5 98t-64.5 67t-91 24q-49 0 -90 -24t-64.5 -67t-23.5 -98t23.5 -98t64.5 -67t90 -24
q50 0 91 24zM169 703h107l67 -145h-66z" />
    <glyph glyph-name="oacute" unicode="&#xf3;" horiz-adv-x="597" 
d="M522 107.5q-36 -59.5 -95.5 -90.5t-128.5 -31t-128 31t-95 90.5t-36 140.5t36 140.5t95 90.5t128 31t128.5 -31t95.5 -90.5t36 -140.5t-36 -140.5zM389 83q41 24 64.5 67t23.5 98t-23.5 98t-64.5 67t-91 24q-49 0 -90 -24t-64.5 -67t-23.5 -98t23.5 -98t64.5 -67t90 -24
q50 0 91 24zM313 703h107l-108 -145h-66z" />
    <glyph glyph-name="ocircumflex" unicode="&#xf4;" horiz-adv-x="597" 
d="M522 107.5q-36 -59.5 -95.5 -90.5t-128.5 -31t-128 31t-95 90.5t-36 140.5t36 140.5t95 90.5t128 31t128.5 -31t95.5 -90.5t36 -140.5t-36 -140.5zM389 83q41 24 64.5 67t23.5 98t-23.5 98t-64.5 67t-91 24q-49 0 -90 -24t-64.5 -67t-23.5 -98t23.5 -98t64.5 -67t90 -24
q50 0 91 24zM266 702h64l102 -144h-66l-68 72l-68 -72h-66z" />
    <glyph glyph-name="otilde" unicode="&#xf5;" horiz-adv-x="597" 
d="M522 107.5q-36 -59.5 -95.5 -90.5t-128.5 -31t-128 31t-95 90.5t-36 140.5t36 140.5t95 90.5t128 31t128.5 -31t95.5 -90.5t36 -140.5t-36 -140.5zM389 83q41 24 64.5 67t23.5 98t-23.5 98t-64.5 67t-91 24q-49 0 -90 -24t-64.5 -67t-23.5 -98t23.5 -98t64.5 -67t90 -24
q50 0 91 24zM321 571.5q-21 10.5 -43 29.5q-16 14 -27.5 20.5t-26.5 6.5q-13 0 -21 -8t-8 -20q0 -13 6 -24l-58 -12q-11 20 -11 45q0 38 26 58.5t62 20.5q35 0 56 -10.5t43 -29.5q16 -14 27 -20.5t27 -6.5q14 0 21.5 8t7.5 20t-5 24l57 12q11 -19 11 -45q0 -38 -26 -58.5
t-62 -20.5q-35 0 -56 10.5z" />
    <glyph glyph-name="odieresis" unicode="&#xf6;" horiz-adv-x="597" 
d="M522 107.5q-36 -59.5 -95.5 -90.5t-128.5 -31t-128 31t-95 90.5t-36 140.5t36 140.5t95 90.5t128 31t128.5 -31t95.5 -90.5t36 -140.5t-36 -140.5zM389 83q41 24 64.5 67t23.5 98t-23.5 98t-64.5 67t-91 24q-49 0 -90 -24t-64.5 -67t-23.5 -98t23.5 -98t64.5 -67t90 -24
q50 0 91 24zM173 680h93v-92h-93v92zM332 680h92v-92h-92v92z" />
    <glyph glyph-name="divide" unicode="&#xf7;" horiz-adv-x="516" 
d="M208 476h98v-99h-98v99zM208 99h98v-99h-98v99zM47 271h422v-64h-422v64z" />
    <glyph glyph-name="oslash" unicode="&#xf8;" horiz-adv-x="597" 
d="M532 370.5q26 -53.5 26 -122.5q0 -81 -36 -140.5t-95.5 -90.5t-128.5 -31q-52 0 -103 19l-23 -38l-59 34l22 38q-45 34 -70.5 87.5t-25.5 121.5q0 81 36 140.5t95 90.5t128 31q52 0 103 -19l23 38l59 -34l-22 -37q45 -34 71 -87.5zM134.5 169q14.5 -36 41.5 -61l187 317
q-30 12 -65 12q-49 0 -90 -24t-64.5 -67t-23.5 -98q0 -43 14.5 -79zM389 83q41 24 64.5 67t23.5 98q0 43 -15 79t-41 62l-188 -318q30 -12 65 -12q50 0 91 24z" />
    <glyph glyph-name="ugrave" unicode="&#xf9;" horiz-adv-x="567" 
d="M152 496v-314q0 -59 32 -91t87 -32q40 0 73 22t52.5 61.5t19.5 89.5v264h81v-496h-81v87q-24 -46 -68.5 -73.5t-97.5 -27.5q-77 0 -127.5 46.5t-50.5 139.5v324h80zM155 703h107l67 -145h-66z" />
    <glyph glyph-name="uacute" unicode="&#xfa;" horiz-adv-x="567" 
d="M152 496v-314q0 -59 32 -91t87 -32q40 0 73 22t52.5 61.5t19.5 89.5v264h81v-496h-81v87q-24 -46 -68.5 -73.5t-97.5 -27.5q-77 0 -127.5 46.5t-50.5 139.5v324h80zM299 703h107l-108 -145h-66z" />
    <glyph glyph-name="ucircumflex" unicode="&#xfb;" horiz-adv-x="567" 
d="M152 496v-314q0 -59 32 -91t87 -32q40 0 73 22t52.5 61.5t19.5 89.5v264h81v-496h-81v87q-24 -46 -68.5 -73.5t-97.5 -27.5q-77 0 -127.5 46.5t-50.5 139.5v324h80zM252 702h64l102 -144h-66l-68 72l-68 -72h-66z" />
    <glyph glyph-name="udieresis" unicode="&#xfc;" horiz-adv-x="567" 
d="M152 496v-314q0 -59 32 -91t87 -32q40 0 73 22t52.5 61.5t19.5 89.5v264h81v-496h-81v87q-24 -46 -68.5 -73.5t-97.5 -27.5q-77 0 -127.5 46.5t-50.5 139.5v324h80zM159 680h93v-92h-93v92zM318 680h92v-92h-92v92z" />
    <glyph glyph-name="yacute" unicode="&#xfd;" horiz-adv-x="500" 
d="M114 -136q21 0 35.5 12.5t25.5 38.5l33 84l-203 497h91l155 -388l154 388h89l-248 -606q-21 -53 -52 -76.5t-78 -23.5q-31 0 -55 9l14 75q20 -10 39 -10zM265 703h107l-108 -145h-66z" />
    <glyph glyph-name="thorn" unicode="&#xfe;" horiz-adv-x="603" 
d="M152 700v-294q25 45 73.5 74.5t107.5 29.5q65 0 117.5 -33.5t83 -93t30.5 -135.5q0 -75 -30.5 -134.5t-84 -93.5t-120.5 -34q-58 0 -104.5 24.5t-72.5 69.5v-284h-80v904h80zM227 412.5q-38 -24.5 -59.5 -67.5t-21.5 -97t21.5 -97t59.5 -67.5t87 -24.5t87 24t59.5 67.5
t21.5 97.5t-21.5 97.5t-59.5 67.5t-87 24t-87 -24.5z" />
    <glyph glyph-name="ydieresis" unicode="&#xff;" horiz-adv-x="500" 
d="M114 -136q21 0 35.5 12.5t25.5 38.5l33 84l-203 497h91l155 -388l154 388h89l-248 -606q-21 -53 -52 -76.5t-78 -23.5q-31 0 -55 9l14 75q20 -10 39 -10zM125 680h93v-92h-93v92zM284 680h92v-92h-92v92z" />
    <glyph glyph-name="Amacron" unicode="&#x100;" horiz-adv-x="658" 
d="M286 700h86l280 -700h-89l-80 206h-308l-80 -206h-89zM455 278l-107 276q-11 25 -19 53q-8 -28 -19 -53l-107 -276h252zM219 873h220v-68h-220v68z" />
    <glyph glyph-name="amacron" unicode="&#x101;" horiz-adv-x="525" 
d="M387 98q-20 -50 -68.5 -81t-103.5 -31q-75 0 -120.5 42.5t-45.5 109.5q0 69 47 108.5t122 50.5l168 26v25q0 48 -30.5 73t-86.5 25q-55 0 -86.5 -23.5t-31.5 -57.5q0 -8 2 -14l-71 -15q-6 14 -6 34q0 38 24.5 70t68.5 51t100 19q95 0 146 -43t51 -121v-222q0 -41 3.5 -68
t11.5 -56h-80q-14 44 -14 98zM311 81.5q36 25.5 55.5 68t19.5 91.5v20l-152 -24q-51 -9 -78 -33.5t-27 -62.5t27 -61.5t71 -23.5q48 0 84 25.5zM159 669h220v-68h-220v68z" />
    <glyph glyph-name="Abreve" unicode="&#x102;" horiz-adv-x="658" 
d="M286 700h86l280 -700h-89l-80 206h-308l-80 -206h-89zM455 278l-107 276q-11 25 -19 53q-8 -28 -19 -53l-107 -276h252zM255.5 801q-28.5 29 -28.5 75h63q0 -20 11 -32.5t29 -12.5t28.5 12.5t10.5 32.5h63q0 -46 -28 -75t-74 -29t-74.5 29z" />
    <glyph glyph-name="abreve" unicode="&#x103;" horiz-adv-x="525" 
d="M387 98q-20 -50 -68.5 -81t-103.5 -31q-75 0 -120.5 42.5t-45.5 109.5q0 69 47 108.5t122 50.5l168 26v25q0 48 -30.5 73t-86.5 25q-55 0 -86.5 -23.5t-31.5 -57.5q0 -8 2 -14l-71 -15q-6 14 -6 34q0 38 24.5 70t68.5 51t100 19q95 0 146 -43t51 -121v-222q0 -41 3.5 -68
t11.5 -56h-80q-14 44 -14 98zM311 81.5q36 25.5 55.5 68t19.5 91.5v20l-152 -24q-51 -9 -78 -33.5t-27 -62.5t27 -61.5t71 -23.5q48 0 84 25.5zM195.5 597q-28.5 29 -28.5 75h63q0 -20 11 -32.5t29 -12.5t28.5 12.5t10.5 32.5h63q0 -46 -28 -75t-74 -29t-74.5 29z" />
    <glyph glyph-name="Aogonek" unicode="&#x104;" horiz-adv-x="658" 
d="M659 -192q-19 -6 -46 -6q-43 0 -73.5 24.5t-30.5 68.5q0 31 17.5 58t45.5 47h-9l-80 206h-308l-80 -206h-89l280 700h86l280 -700q-35 -18 -53 -40t-18 -45q0 -20 14 -32t35 -12q11 0 19 2zM455 278l-107 276q-11 25 -19 53q-8 -28 -19 -53l-107 -276h252z" />
    <glyph glyph-name="aogonek" unicode="&#x105;" horiz-adv-x="525" 
d="M488 -192q-19 -6 -46 -6q-43 0 -73.5 24.5t-30.5 68.5q0 31 17 58t46 47q-14 44 -14 98q-20 -50 -68.5 -81t-103.5 -31q-75 0 -120.5 42.5t-45.5 109.5q0 69 47 108.5t122 50.5l168 26v25q0 48 -30.5 73t-86.5 25q-55 0 -86.5 -23.5t-31.5 -57.5q0 -8 2 -14l-71 -15
q-6 14 -6 34q0 38 24.5 70t68.5 51t100 19q95 0 146 -43t51 -121v-222q0 -41 3.5 -68t11.5 -56q-35 -18 -53 -40t-18 -45q0 -20 13.5 -32t35.5 -12q11 0 19 2zM386 261l-152 -24q-51 -9 -78 -33.5t-27 -62.5t27 -61.5t71 -23.5q48 0 84 25.5t55.5 68t19.5 91.5v20z" />
    <glyph glyph-name="Cacute" unicode="&#x106;" horiz-adv-x="747" 
d="M569 27q-69 -41 -176 -41q-97 0 -174.5 47.5t-121.5 130.5t-44 186q0 102 46.5 185.5t126 131t172.5 47.5q100 0 174 -43t116 -117l-66 -45q-43 68 -97.5 99t-128.5 31q-70 0 -129.5 -37.5t-94.5 -103.5t-35 -148t33 -148t92 -103.5t133 -37.5q77 0 132 32t98 98l66 -42
q-53 -81 -122 -122zM411 907h107l-108 -145h-66z" />
    <glyph glyph-name="cacute" unicode="&#x107;" horiz-adv-x="542" 
d="M420 19.5q-54 -33.5 -127 -33.5q-72 0 -130 33.5t-91 93.5t-33 135t34.5 135t92.5 93.5t127 33.5q77 0 131.5 -32.5t83.5 -92.5l-65 -39q-25 44 -63.5 67t-85.5 23q-48 0 -87.5 -23t-62.5 -65.5t-23 -99.5q0 -56 22.5 -98.5t62 -66t88.5 -23.5q53 0 88.5 22.5t64.5 66.5
l61 -37q-34 -59 -88 -92.5zM306 703h107l-108 -145h-66z" />
    <glyph glyph-name="Ccircumflex" unicode="&#x108;" horiz-adv-x="747" 
d="M569 27q-69 -41 -176 -41q-97 0 -174.5 47.5t-121.5 130.5t-44 186q0 102 46.5 185.5t126 131t172.5 47.5q100 0 174 -43t116 -117l-66 -45q-43 68 -97.5 99t-128.5 31q-70 0 -129.5 -37.5t-94.5 -103.5t-35 -148t33 -148t92 -103.5t133 -37.5q77 0 132 32t98 98l66 -42
q-53 -81 -122 -122zM364 906h64l102 -144h-66l-68 72l-68 -72h-66z" />
    <glyph glyph-name="ccircumflex" unicode="&#x109;" horiz-adv-x="542" 
d="M420 19.5q-54 -33.5 -127 -33.5q-72 0 -130 33.5t-91 93.5t-33 135t34.5 135t92.5 93.5t127 33.5q77 0 131.5 -32.5t83.5 -92.5l-65 -39q-25 44 -63.5 67t-85.5 23q-48 0 -87.5 -23t-62.5 -65.5t-23 -99.5q0 -56 22.5 -98.5t62 -66t88.5 -23.5q53 0 88.5 22.5t64.5 66.5
l61 -37q-34 -59 -88 -92.5zM259 702h64l102 -144h-66l-68 72l-68 -72h-66z" />
    <glyph glyph-name="Cdotaccent" unicode="&#x10a;" horiz-adv-x="747" 
d="M569 27q-69 -41 -176 -41q-97 0 -174.5 47.5t-121.5 130.5t-44 186q0 102 46.5 185.5t126 131t172.5 47.5q100 0 174 -43t116 -117l-66 -45q-43 68 -97.5 99t-128.5 31q-70 0 -129.5 -37.5t-94.5 -103.5t-35 -148t33 -148t92 -103.5t133 -37.5q77 0 132 32t98 98l66 -42
q-53 -81 -122 -122zM348 884h95v-97h-95v97z" />
    <glyph glyph-name="cdotaccent" unicode="&#x10b;" horiz-adv-x="542" 
d="M420 19.5q-54 -33.5 -127 -33.5q-72 0 -130 33.5t-91 93.5t-33 135t34.5 135t92.5 93.5t127 33.5q77 0 131.5 -32.5t83.5 -92.5l-65 -39q-25 44 -63.5 67t-85.5 23q-48 0 -87.5 -23t-62.5 -65.5t-23 -99.5q0 -56 22.5 -98.5t62 -66t88.5 -23.5q53 0 88.5 22.5t64.5 66.5
l61 -37q-34 -59 -88 -92.5zM244 680h95v-97h-95v97z" />
    <glyph glyph-name="Ccaron" unicode="&#x10c;" horiz-adv-x="747" 
d="M569 27q-69 -41 -176 -41q-97 0 -174.5 47.5t-121.5 130.5t-44 186q0 102 46.5 185.5t126 131t172.5 47.5q100 0 174 -43t116 -117l-66 -45q-43 68 -97.5 99t-128.5 31q-70 0 -129.5 -37.5t-94.5 -103.5t-35 -148t33 -148t92 -103.5t133 -37.5q77 0 132 32t98 98l66 -42
q-53 -81 -122 -122zM262 906h66l68 -72l68 72h66l-102 -144h-64z" />
    <glyph glyph-name="ccaron" unicode="&#x10d;" horiz-adv-x="542" 
d="M420 19.5q-54 -33.5 -127 -33.5q-72 0 -130 33.5t-91 93.5t-33 135t34.5 135t92.5 93.5t127 33.5q77 0 131.5 -32.5t83.5 -92.5l-65 -39q-25 44 -63.5 67t-85.5 23q-48 0 -87.5 -23t-62.5 -65.5t-23 -99.5q0 -56 22.5 -98.5t62 -66t88.5 -23.5q53 0 88.5 22.5t64.5 66.5
l61 -37q-34 -59 -88 -92.5zM157 702h66l68 -72l68 72h66l-102 -144h-64z" />
    <glyph glyph-name="Dcaron" unicode="&#x10e;" horiz-adv-x="682" 
d="M273 700q105 0 186 -41.5t126 -121t45 -187.5t-45 -187.5t-126 -121t-186 -41.5h-192v700h192zM470.5 145q74.5 70 74.5 205t-74.5 205t-200.5 70h-105v-550h105q126 0 200.5 70zM116 906h66l68 -72l68 72h66l-102 -144h-64z" />
    <glyph glyph-name="dcaron" unicode="&#x10f;" horiz-adv-x="689" 
d="M451 0v88q-22 -44 -68 -73t-104 -29q-68 0 -123 33.5t-86 93t-31 135.5q0 75 32 135t86 93.5t119 33.5q59 0 104.5 -25.5t70.5 -72.5v288h80v-700h-80zM376 83.5q38 24.5 59.5 67.5t21.5 97t-21.5 97t-59.5 67.5t-87 24.5q-48 0 -86.5 -24t-60 -67t-21.5 -98t21.5 -98
t60 -67t86.5 -24q49 0 87 24.5zM606 522l35 92h-37v86h85v-87l-64 -101z" />
    <glyph glyph-name="Dcroat" unicode="&#x110;" horiz-adv-x="714" 
d="M112 386v314h193q105 0 185.5 -41.5t125.5 -121t45 -187.5t-45 -187.5t-125.5 -121t-185.5 -41.5h-193v314h-74v72h74zM501.5 145q74.5 70 74.5 205t-74.5 205t-199.5 70h-106v-239h154v-72h-154v-239h106q125 0 199.5 70z" />
    <glyph glyph-name="dcroat" unicode="&#x111;" horiz-adv-x="601" 
d="M593 571h-62v-571h-80v88q-22 -44 -68 -73t-104 -29q-68 0 -123 33.5t-86 93t-31 135.5q0 75 32 135t86 93.5t119 33.5q59 0 104.5 -25.5t70.5 -72.5v159h-164v64h164v65h80v-65h62v-64zM376 83.5q38 24.5 59.5 67.5t21.5 97t-21.5 97t-59.5 67.5t-87 24.5
q-48 0 -86.5 -24t-60 -67t-21.5 -98t21.5 -98t60 -67t86.5 -24q49 0 87 24.5z" />
    <glyph glyph-name="Emacron" unicode="&#x112;" horiz-adv-x="585" 
d="M518 700v-74h-353v-227h325v-74h-325v-251h356v-74h-440v700h437zM193 873h220v-68h-220v68z" />
    <glyph glyph-name="emacron" unicode="&#x113;" horiz-adv-x="566" 
d="M168.5 106q46.5 -51 119.5 -51q58 0 91.5 22.5t64.5 65.5l61 -34q-35 -58 -88 -90.5t-132 -32.5q-68 0 -124 33.5t-89 93.5t-33 135t33.5 135t90.5 93.5t126 33.5q72 0 126 -31.5t83 -88t29 -128.5v-27h-409q4 -78 50.5 -129zM177.5 404q-47.5 -41 -59.5 -104h328
q-4 68 -49 106.5t-109 38.5q-63 0 -110.5 -41zM177 669h220v-68h-220v68z" />
    <glyph glyph-name="Ebreve" unicode="&#x114;" horiz-adv-x="585" 
d="M518 700v-74h-353v-227h325v-74h-325v-251h356v-74h-440v700h437zM229.5 801q-28.5 29 -28.5 75h63q0 -20 11 -32.5t29 -12.5t28.5 12.5t10.5 32.5h63q0 -46 -28 -75t-74 -29t-74.5 29z" />
    <glyph glyph-name="ebreve" unicode="&#x115;" horiz-adv-x="566" 
d="M168.5 106q46.5 -51 119.5 -51q58 0 91.5 22.5t64.5 65.5l61 -34q-35 -58 -88 -90.5t-132 -32.5q-68 0 -124 33.5t-89 93.5t-33 135t33.5 135t90.5 93.5t126 33.5q72 0 126 -31.5t83 -88t29 -128.5v-27h-409q4 -78 50.5 -129zM177.5 404q-47.5 -41 -59.5 -104h328
q-4 68 -49 106.5t-109 38.5q-63 0 -110.5 -41zM213.5 597q-28.5 29 -28.5 75h63q0 -20 11 -32.5t29 -12.5t28.5 12.5t10.5 32.5h63q0 -46 -28 -75t-74 -29t-74.5 29z" />
    <glyph glyph-name="Edotaccent" unicode="&#x116;" horiz-adv-x="585" 
d="M518 700v-74h-353v-227h325v-74h-325v-251h356v-74h-440v700h437zM256 884h95v-97h-95v97z" />
    <glyph glyph-name="edotaccent" unicode="&#x117;" horiz-adv-x="566" 
d="M168.5 106q46.5 -51 119.5 -51q58 0 91.5 22.5t64.5 65.5l61 -34q-35 -58 -88 -90.5t-132 -32.5q-68 0 -124 33.5t-89 93.5t-33 135t33.5 135t90.5 93.5t126 33.5q72 0 126 -31.5t83 -88t29 -128.5v-27h-409q4 -78 50.5 -129zM177.5 404q-47.5 -41 -59.5 -104h328
q-4 68 -49 106.5t-109 38.5q-63 0 -110.5 -41zM240 680h95v-97h-95v97z" />
    <glyph glyph-name="Eogonek" unicode="&#x118;" horiz-adv-x="585" 
d="M528 -192q-20 -6 -46 -6q-43 0 -73.5 24.5t-30.5 68.5q0 31 17 58t46 47h-360v700h437v-74h-353v-227h325v-74h-325v-251h356v-74q-35 -18 -53 -40t-18 -45q0 -20 13.5 -32t35.5 -12q11 0 19 2z" />
    <glyph glyph-name="eogonek" unicode="&#x119;" horiz-adv-x="566" 
d="M527 235h-409q4 -78 50.5 -129t119.5 -51q58 0 91.5 22.5t64.5 65.5l61 -34q-49 -84 -132 -110q-34 -18 -51.5 -40t-17.5 -44q0 -20 13.5 -32t35.5 -12q11 0 19 2l10 -65q-19 -6 -46 -6q-43 0 -73.5 24.5t-30.5 68.5q0 51 45 91q-66 2 -120.5 36t-86 93t-31.5 133
q0 75 33.5 135t90.5 93.5t126 33.5q72 0 126 -31.5t83 -88t29 -128.5v-27zM446 300q-4 68 -49 106.5t-109 38.5q-63 0 -110.5 -41t-59.5 -104h328z" />
    <glyph glyph-name="Ecaron" unicode="&#x11a;" horiz-adv-x="585" 
d="M518 700v-74h-353v-227h325v-74h-325v-251h356v-74h-440v700h437zM169 906h66l68 -72l68 72h66l-102 -144h-64z" />
    <glyph glyph-name="ecaron" unicode="&#x11b;" horiz-adv-x="566" 
d="M168.5 106q46.5 -51 119.5 -51q58 0 91.5 22.5t64.5 65.5l61 -34q-35 -58 -88 -90.5t-132 -32.5q-68 0 -124 33.5t-89 93.5t-33 135t33.5 135t90.5 93.5t126 33.5q72 0 126 -31.5t83 -88t29 -128.5v-27h-409q4 -78 50.5 -129zM177.5 404q-47.5 -41 -59.5 -104h328
q-4 68 -49 106.5t-109 38.5q-63 0 -110.5 -41zM153 702h66l68 -72l68 72h66l-102 -144h-64z" />
    <glyph glyph-name="Gcircumflex" unicode="&#x11c;" horiz-adv-x="761" 
d="M522 21.5q-56 -35.5 -134 -35.5q-97 0 -173.5 47.5t-119 130.5t-42.5 186q0 102 46.5 185t126 131t172.5 48q94 0 167 -39t115 -109l-65 -43q-75 118 -219 118q-68 0 -128 -37.5t-95.5 -104t-35.5 -149.5t32 -149t89.5 -103t131.5 -37q62 0 109.5 29t75.5 79t35 111h-246
v71h330v-351h-57l-24 121q-35 -64 -91 -99.5zM366 906h64l102 -144h-66l-68 72l-68 -72h-66z" />
    <glyph glyph-name="gcircumflex" unicode="&#x11d;" horiz-adv-x="584" 
d="M148 -74q0 -34 36.5 -55.5t97.5 -21.5q77 0 117 45.5t40 134.5v70q-56 -91 -167 -91q-65 0 -118 30.5t-83.5 87.5t-30.5 133q0 77 31.5 134t84.5 87t116 30q57 0 100 -23t67 -62v71h81v-463q0 -118 -63 -184.5t-175 -66.5q-105 0 -160 41t-55 105q0 12 4 30l79 -10
q-2 -12 -2 -22zM164.5 391q-44.5 -49 -44.5 -132t44.5 -132t117.5 -49t118 49t45 132t-45 132t-118 49t-117.5 -49zM249 702h64l102 -144h-66l-68 72l-68 -72h-66z" />
    <glyph glyph-name="Gbreve" unicode="&#x11e;" horiz-adv-x="761" 
d="M522 21.5q-56 -35.5 -134 -35.5q-97 0 -173.5 47.5t-119 130.5t-42.5 186q0 102 46.5 185t126 131t172.5 48q94 0 167 -39t115 -109l-65 -43q-75 118 -219 118q-68 0 -128 -37.5t-95.5 -104t-35.5 -149.5t32 -149t89.5 -103t131.5 -37q62 0 109.5 29t75.5 79t35 111h-246
v71h330v-351h-57l-24 121q-35 -64 -91 -99.5zM323.5 801q-28.5 29 -28.5 75h63q0 -20 11 -32.5t29 -12.5t28.5 12.5t10.5 32.5h63q0 -46 -28 -75t-74 -29t-74.5 29z" />
    <glyph glyph-name="gbreve" unicode="&#x11f;" horiz-adv-x="584" 
d="M148 -74q0 -34 36.5 -55.5t97.5 -21.5q77 0 117 45.5t40 134.5v70q-56 -91 -167 -91q-65 0 -118 30.5t-83.5 87.5t-30.5 133q0 77 31.5 134t84.5 87t116 30q57 0 100 -23t67 -62v71h81v-463q0 -118 -63 -184.5t-175 -66.5q-105 0 -160 41t-55 105q0 12 4 30l79 -10
q-2 -12 -2 -22zM164.5 391q-44.5 -49 -44.5 -132t44.5 -132t117.5 -49t118 49t45 132t-45 132t-118 49t-117.5 -49zM207.5 597q-28.5 29 -28.5 75h63q0 -20 11 -32.5t29 -12.5t28.5 12.5t10.5 32.5h63q0 -46 -28 -75t-74 -29t-74.5 29z" />
    <glyph glyph-name="Gdotaccent" unicode="&#x120;" horiz-adv-x="761" 
d="M522 21.5q-56 -35.5 -134 -35.5q-97 0 -173.5 47.5t-119 130.5t-42.5 186q0 102 46.5 185t126 131t172.5 48q94 0 167 -39t115 -109l-65 -43q-75 118 -219 118q-68 0 -128 -37.5t-95.5 -104t-35.5 -149.5t32 -149t89.5 -103t131.5 -37q62 0 109.5 29t75.5 79t35 111h-246
v71h330v-351h-57l-24 121q-35 -64 -91 -99.5zM350 884h95v-97h-95v97z" />
    <glyph glyph-name="gdotaccent" unicode="&#x121;" horiz-adv-x="584" 
d="M148 -74q0 -34 36.5 -55.5t97.5 -21.5q77 0 117 45.5t40 134.5v70q-56 -91 -167 -91q-65 0 -118 30.5t-83.5 87.5t-30.5 133q0 77 31.5 134t84.5 87t116 30q57 0 100 -23t67 -62v71h81v-463q0 -118 -63 -184.5t-175 -66.5q-105 0 -160 41t-55 105q0 12 4 30l79 -10
q-2 -12 -2 -22zM164.5 391q-44.5 -49 -44.5 -132t44.5 -132t117.5 -49t118 49t45 132t-45 132t-118 49t-117.5 -49zM234 680h95v-97h-95v97z" />
    <glyph glyph-name="uni0122" unicode="&#x122;" horiz-adv-x="761" 
d="M522 21.5q-56 -35.5 -134 -35.5q-97 0 -173.5 47.5t-119 130.5t-42.5 186q0 102 46.5 185t126 131t172.5 48q94 0 167 -39t115 -109l-65 -43q-75 118 -219 118q-68 0 -128 -37.5t-95.5 -104t-35.5 -149.5t32 -149t89.5 -103t131.5 -37q62 0 109.5 29t75.5 79t35 111h-246
v71h330v-351h-57l-24 121q-35 -64 -91 -99.5zM435 -60v-95l-72 -120l-20 7l32 113h-35v95h95z" />
    <glyph glyph-name="uni0123" unicode="&#x123;" horiz-adv-x="584" 
d="M148 -74q0 -34 36.5 -55.5t97.5 -21.5q77 0 117 45.5t40 134.5v70q-56 -91 -167 -91q-65 0 -118 30.5t-83.5 87.5t-30.5 133q0 77 31.5 134t84.5 87t116 30q57 0 100 -23t67 -62v71h81v-463q0 -118 -63 -184.5t-175 -66.5q-105 0 -160 41t-55 105q0 12 4 30l79 -10
q-2 -12 -2 -22zM164.5 391q-44.5 -49 -44.5 -132t44.5 -132t117.5 -49t118 49t45 132t-45 132t-118 49t-117.5 -49zM224 659l95 122l20 -15l-59 -107h39v-96h-95v96z" />
    <glyph glyph-name="Hcircumflex" unicode="&#x124;" horiz-adv-x="685" 
d="M165 700v-305h355v305h84v-700h-84v319h-355v-319h-84v700h84zM311 906h64l102 -144h-66l-68 72l-68 -72h-66z" />
    <glyph glyph-name="hcircumflex" unicode="&#x125;" horiz-adv-x="573" 
d="M423 0v316q0 58 -32.5 89.5t-88.5 31.5q-39 0 -74 -22t-56 -61t-21 -87v-267h-81v700h81v-295q27 49 74 77t104 28q81 0 127.5 -46t46.5 -128v-336h-80zM155 906h64l102 -144h-66l-68 72l-68 -72h-66z" />
    <glyph glyph-name="Hbar" unicode="&#x126;" horiz-adv-x="685" 
d="M699 498h-95v-498h-84v319h-355v-319h-84v498h-95v66h95v136h84v-136h355v136h84v-136h95v-66zM520 498h-355v-103h355v103z" />
    <glyph glyph-name="hbar" unicode="&#x127;" horiz-adv-x="573" 
d="M456.5 464q46.5 -46 46.5 -128v-336h-80v316q0 58 -32.5 89.5t-88.5 31.5q-39 0 -74 -22t-56 -61t-21 -87v-267h-81v571h-62v64h62v65h81v-65h163v-64h-163v-166q27 49 74 77t104 28q81 0 127.5 -46z" />
    <glyph glyph-name="Itilde" unicode="&#x128;" horiz-adv-x="246" 
d="M165 700v-700h-84v700h84zM145 775.5q-21 10.5 -43 29.5q-16 14 -27.5 20.5t-26.5 6.5q-13 0 -21 -8t-8 -20q0 -13 6 -24l-58 -12q-11 20 -11 45q0 38 26 58.5t62 20.5q35 0 56 -10.5t43 -29.5q16 -14 27 -20.5t27 -6.5q14 0 21.5 8t7.5 20t-5 24l57 12q11 -19 11 -45
q0 -38 -26 -58.5t-62 -20.5q-35 0 -56 10.5z" />
    <glyph glyph-name="itilde" unicode="&#x129;" horiz-adv-x="223" 
d="M152 496v-496h-81v496h81zM134 571.5q-21 10.5 -43 29.5q-16 14 -27.5 20.5t-26.5 6.5q-13 0 -21 -8t-8 -20q0 -13 6 -24l-58 -12q-11 20 -11 45q0 38 26 58.5t62 20.5q35 0 56 -10.5t43 -29.5q16 -14 27 -20.5t27 -6.5q14 0 21.5 8t7.5 20t-5 24l57 12q11 -19 11 -45
q0 -38 -26 -58.5t-62 -20.5q-35 0 -56 10.5z" />
    <glyph glyph-name="Imacron" unicode="&#x12a;" horiz-adv-x="246" 
d="M165 700v-700h-84v700h84zM13 873h220v-68h-220v68z" />
    <glyph glyph-name="imacron" unicode="&#x12b;" horiz-adv-x="223" 
d="M152 496v-496h-81v496h81zM2 669h220v-68h-220v68z" />
    <glyph glyph-name="Ibreve" unicode="&#x12c;" horiz-adv-x="246" 
d="M165 700v-700h-84v700h84zM49.5 801q-28.5 29 -28.5 75h63q0 -20 11 -32.5t29 -12.5t28.5 12.5t10.5 32.5h63q0 -46 -28 -75t-74 -29t-74.5 29z" />
    <glyph glyph-name="ibreve" unicode="&#x12d;" horiz-adv-x="223" 
d="M152 496v-496h-81v496h81zM37.5 597q-28.5 29 -28.5 75h63q0 -20 11 -32.5t29 -12.5t28.5 12.5t10.5 32.5h63q0 -46 -28 -75t-74 -29t-74.5 29z" />
    <glyph glyph-name="Iogonek" unicode="&#x12e;" horiz-adv-x="246" 
d="M172 -192q-19 -6 -46 -6q-43 0 -73.5 24.5t-30.5 68.5q0 31 17 58t46 47h-4v700h84v-700q-35 -18 -53 -40t-18 -45q0 -20 13.5 -32t35.5 -12q11 0 19 2z" />
    <glyph glyph-name="iogonek" unicode="&#x12f;" horiz-adv-x="223" 
d="M64 680h96v-97h-96v97zM39.5 -173.5q-30.5 24.5 -30.5 68.5q0 33 18.5 60.5t48.5 47.5h-4v493h80v-496q-35 -18 -53 -40t-18 -45q0 -20 14 -32t35 -12q11 0 19 2l10 -65q-19 -6 -46 -6q-43 0 -73.5 24.5z" />
    <glyph glyph-name="Idotaccent" unicode="&#x130;" horiz-adv-x="246" 
d="M165 700v-700h-84v700h84zM76 884h95v-97h-95v97z" />
    <glyph glyph-name="dotlessi" unicode="&#x131;" horiz-adv-x="223" 
d="M152 496v-496h-81v496h81z" />
    <glyph glyph-name="IJ" unicode="&#x132;" horiz-adv-x="759" 
d="M165 700v-700h-84v700h84zM638.5 44.5q-57.5 -58.5 -153.5 -58.5q-95 0 -152.5 56.5t-57.5 154.5l84 -5q0 -63 35.5 -97t90.5 -34q59 0 93 36.5t34 103.5v499h84v-499q0 -98 -57.5 -156.5z" />
    <glyph glyph-name="ij" unicode="&#x133;" horiz-adv-x="447" 
d="M152 496v-496h-81v496h81zM64 680h95v-97h-95v97zM383 680v-97h-95v97h95zM238 -138q57 0 57 70v564h81v-560q0 -68 -31 -107.5t-95 -39.5q-34 0 -63 9l11 72q19 -8 40 -8z" />
    <glyph glyph-name="Jcircumflex" unicode="&#x134;" horiz-adv-x="532" 
d="M411.5 44.5q-57.5 -58.5 -153.5 -58.5q-95 0 -152.5 56.5t-57.5 154.5l84 -5q0 -63 35.5 -97t90.5 -34q59 0 93 36.5t34 103.5v499h84v-499q0 -98 -57.5 -156.5zM396 906h64l102 -144h-66l-68 72l-68 -72h-66z" />
    <glyph glyph-name="jcircumflex" unicode="&#x135;" horiz-adv-x="224" 
d="M15 -138q57 0 57 70v564h81v-560q0 -68 -31 -107.5t-95 -39.5q-34 0 -63 9l11 72q19 -8 40 -8zM80 702h64l102 -144h-66l-68 72l-68 -72h-66z" />
    <glyph glyph-name="uni0136" unicode="&#x136;" horiz-adv-x="613" 
d="M81 700h84v-319l65 71l236 248h105l-243 -257l264 -443h-98l-227 379l-102 -107v-272h-84v700zM366 -60v-95l-72 -120l-20 7l32 113h-35v95h95z" />
    <glyph glyph-name="uni0137" unicode="&#x137;" horiz-adv-x="502" 
d="M72 700h80v-391l194 187h102l-178 -172l208 -324h-92l-172 268l-62 -60v-208h-80v700zM303 -60v-95l-72 -120l-20 7l32 113h-35v95h95z" />
    <glyph glyph-name="kgreenlandic" unicode="&#x138;" horiz-adv-x="502" 
d="M72 496h80v-213l191 213h100l-178 -194l208 -302h-93l-170 242l-58 -65v-177h-80v496z" />
    <glyph glyph-name="Lacute" unicode="&#x139;" horiz-adv-x="567" 
d="M81 700h84v-625h355v-75h-439v700zM155 907h107l-108 -145h-66z" />
    <glyph glyph-name="lacute" unicode="&#x13a;" horiz-adv-x="221" 
d="M151 700v-700h-81v700h81zM125 907h107l-108 -145h-66z" />
    <glyph glyph-name="uni013B" unicode="&#x13b;" horiz-adv-x="567" 
d="M81 700h84v-625h355v-75h-439v700zM348 -60v-95l-72 -120l-20 7l32 113h-35v95h95z" />
    <glyph glyph-name="uni013C" unicode="&#x13c;" horiz-adv-x="221" 
d="M151 700v-700h-81v700h81zM158 -60v-95l-72 -120l-20 7l32 113h-35v95h95z" />
    <glyph glyph-name="Lcaron" unicode="&#x13d;" horiz-adv-x="567" 
d="M81 700h84v-625h355v-75h-439v700zM437 522l35 92h-37v86h85v-87l-64 -101z" />
    <glyph glyph-name="lcaron" unicode="&#x13e;" horiz-adv-x="309" 
d="M151 700v-700h-81v700h81zM226 522l35 92h-37v86h85v-87l-64 -101z" />
    <glyph glyph-name="Ldot" unicode="&#x13f;" horiz-adv-x="569" 
d="M81 700h84v-625h355v-75h-439v700zM365 399h98v-99h-98v99z" />
    <glyph glyph-name="ldot" unicode="&#x140;" horiz-adv-x="325" 
d="M151 700v-700h-81v700h81zM227 400h98v-99h-98v99z" />
    <glyph glyph-name="Lslash" unicode="&#x141;" horiz-adv-x="567" 
d="M520 75v-75h-439v211l-82 -52v84l82 52v405h84v-351l161 102v-83l-161 -103v-190h355z" />
    <glyph glyph-name="lslash" unicode="&#x142;" horiz-adv-x="221" 
d="M222 381l-71 -44v-337h-81v286l-71 -44v76l71 45v337h81v-287l71 45v-77z" />
    <glyph glyph-name="Nacute" unicode="&#x143;" horiz-adv-x="695" 
d="M168 700l335 -523q24 -41 30 -55v578h81v-700h-87l-335 524q-24 41 -30 55v-579h-81v700h87zM366 907h107l-108 -145h-66z" />
    <glyph glyph-name="nacute" unicode="&#x144;" horiz-adv-x="567" 
d="M416 0v316q0 58 -32.5 89.5t-87.5 31.5q-38 0 -71.5 -21.5t-53.5 -59.5t-20 -85v-271h-81v496h81v-88q27 47 73 74.5t99 27.5q76 0 125 -44.5t49 -128.5v-337h-81zM305 703h107l-108 -145h-66z" />
    <glyph glyph-name="uni0145" unicode="&#x145;" horiz-adv-x="695" 
d="M168 700l335 -523q24 -41 30 -55v578h81v-700h-87l-335 524q-24 41 -30 55v-579h-81v700h87zM399 -60v-95l-72 -120l-20 7l32 113h-35v95h95z" />
    <glyph glyph-name="uni0146" unicode="&#x146;" horiz-adv-x="567" 
d="M416 0v316q0 58 -32.5 89.5t-87.5 31.5q-38 0 -71.5 -21.5t-53.5 -59.5t-20 -85v-271h-81v496h81v-88q27 47 73 74.5t99 27.5q76 0 125 -44.5t49 -128.5v-337h-81zM331 -60v-95l-72 -120l-20 7l32 113h-35v95h95z" />
    <glyph glyph-name="Ncaron" unicode="&#x147;" horiz-adv-x="695" 
d="M168 700l335 -523q24 -41 30 -55v578h81v-700h-87l-335 524q-24 41 -30 55v-579h-81v700h87zM217 906h66l68 -72l68 72h66l-102 -144h-64z" />
    <glyph glyph-name="ncaron" unicode="&#x148;" horiz-adv-x="567" 
d="M416 0v316q0 58 -32.5 89.5t-87.5 31.5q-38 0 -71.5 -21.5t-53.5 -59.5t-20 -85v-271h-81v496h81v-88q27 47 73 74.5t99 27.5q76 0 125 -44.5t49 -128.5v-337h-81zM156 702h66l68 -72l68 72h66l-102 -144h-64z" />
    <glyph glyph-name="napostrophe" unicode="&#x149;" horiz-adv-x="641" 
d="M116 660l17 -27l-70 -66l-11 45l34 30l-20 13l40 4l16 14l-8 -13h2zM519 465.5q49 -44.5 49 -128.5v-337h-81v316q0 58 -32.5 89.5t-87.5 31.5q-38 0 -71.5 -21.5t-53.5 -59.5t-20 -85v-271h-81v496h81v-88q27 47 73 74.5t99 27.5q76 0 125 -44.5z" />
    <glyph glyph-name="Eng" unicode="&#x14a;" horiz-adv-x="699" 
d="M394 -214q-20 4 -41 12l30 73q25 -14 54 -14q48 0 72 31t24 89v23l-339 524q-24 41 -30 55v-579h-81v700h87l335 -516q24 -41 30 -55v571h81v-719q0 -92 -45 -145.5t-129 -53.5q-28 0 -48 4z" />
    <glyph glyph-name="eng" unicode="&#x14b;" horiz-adv-x="570" 
d="M310 -202l11 72q19 -8 40 -8q28 0 42.5 18t14.5 52v384q0 57 -33 89t-88 32q-38 0 -71.5 -21.5t-53.5 -59.5t-20 -85v-271h-80v496h80v-88q28 48 73.5 75t98.5 27q76 0 125 -44.5t49 -128.5v-401q0 -68 -30.5 -107.5t-95.5 -39.5q-33 0 -62 9z" />
    <glyph glyph-name="Omacron" unicode="&#x14c;" horiz-adv-x="784" 
d="M686.5 160.5q-44.5 -82.5 -122 -128.5t-172.5 -46t-172.5 46t-122 128.5t-44.5 189.5t44.5 189.5t122 128.5t172.5 46t172.5 -46t122 -128.5t44.5 -189.5t-44.5 -189.5zM523 97q58 36 91 101.5t33 151.5t-33 151.5t-91 101.5t-131 36t-131 -36t-91 -101.5t-33 -151.5
t33 -151.5t91 -101.5t131 -36t131 36zM282 873h220v-68h-220v68z" />
    <glyph glyph-name="omacron" unicode="&#x14d;" horiz-adv-x="597" 
d="M522 107.5q-36 -59.5 -95.5 -90.5t-128.5 -31t-128 31t-95 90.5t-36 140.5t36 140.5t95 90.5t128 31t128.5 -31t95.5 -90.5t36 -140.5t-36 -140.5zM389 83q41 24 64.5 67t23.5 98t-23.5 98t-64.5 67t-91 24q-49 0 -90 -24t-64.5 -67t-23.5 -98t23.5 -98t64.5 -67t90 -24
q50 0 91 24zM188 669h220v-68h-220v68z" />
    <glyph glyph-name="Obreve" unicode="&#x14e;" horiz-adv-x="784" 
d="M686.5 160.5q-44.5 -82.5 -122 -128.5t-172.5 -46t-172.5 46t-122 128.5t-44.5 189.5t44.5 189.5t122 128.5t172.5 46t172.5 -46t122 -128.5t44.5 -189.5t-44.5 -189.5zM523 97q58 36 91 101.5t33 151.5t-33 151.5t-91 101.5t-131 36t-131 -36t-91 -101.5t-33 -151.5
t33 -151.5t91 -101.5t131 -36t131 36zM318.5 801q-28.5 29 -28.5 75h63q0 -20 11 -32.5t29 -12.5t28.5 12.5t10.5 32.5h63q0 -46 -28 -75t-74 -29t-74.5 29z" />
    <glyph glyph-name="obreve" unicode="&#x14f;" horiz-adv-x="597" 
d="M522 107.5q-36 -59.5 -95.5 -90.5t-128.5 -31t-128 31t-95 90.5t-36 140.5t36 140.5t95 90.5t128 31t128.5 -31t95.5 -90.5t36 -140.5t-36 -140.5zM389 83q41 24 64.5 67t23.5 98t-23.5 98t-64.5 67t-91 24q-49 0 -90 -24t-64.5 -67t-23.5 -98t23.5 -98t64.5 -67t90 -24
q50 0 91 24zM224.5 597q-28.5 29 -28.5 75h63q0 -20 11 -32.5t29 -12.5t28.5 12.5t10.5 32.5h63q0 -46 -28 -75t-74 -29t-74.5 29z" />
    <glyph glyph-name="Ohungarumlaut" unicode="&#x150;" horiz-adv-x="784" 
d="M686.5 160.5q-44.5 -82.5 -122 -128.5t-172.5 -46t-172.5 46t-122 128.5t-44.5 189.5t44.5 189.5t122 128.5t172.5 46t172.5 -46t122 -128.5t44.5 -189.5t-44.5 -189.5zM523 97q58 36 91 101.5t33 151.5t-33 151.5t-91 101.5t-131 36t-131 -36t-91 -101.5t-33 -151.5
t33 -151.5t91 -101.5t131 -36t131 36zM326 907h107l-108 -145h-66zM487 907h107l-108 -145h-65z" />
    <glyph glyph-name="ohungarumlaut" unicode="&#x151;" horiz-adv-x="597" 
d="M522 107.5q-36 -59.5 -95.5 -90.5t-128.5 -31t-128 31t-95 90.5t-36 140.5t36 140.5t95 90.5t128 31t128.5 -31t95.5 -90.5t36 -140.5t-36 -140.5zM389 83q41 24 64.5 67t23.5 98t-23.5 98t-64.5 67t-91 24q-49 0 -90 -24t-64.5 -67t-23.5 -98t23.5 -98t64.5 -67t90 -24
q50 0 91 24zM232 703h107l-108 -145h-66zM393 703h107l-108 -145h-65z" />
    <glyph glyph-name="OE" unicode="&#x152;" horiz-adv-x="1151" 
d="M219.5 32q-77.5 46 -122 128.5t-44.5 189.5t44.5 189.5t122 128.5t172.5 46q85 0 150.5 -34t104.5 -100v120h437v-74h-353v-227h325v-74h-325v-251h356v-74h-440v129q-89 -143 -255 -143q-95 0 -172.5 46zM523 97.5q58 36.5 91 102t33 150.5q0 86 -33 151.5t-91 101.5
t-131 36t-131 -36t-91 -101.5t-33 -151.5t33 -151.5t91 -101.5t131 -36t131 36.5z" />
    <glyph glyph-name="oe" unicode="&#x153;" horiz-adv-x="1009" 
d="M171 17q-59 31 -95 90.5t-36 140.5t36 140.5t95 90.5t128 31q68 0 126 -30.5t93 -86.5q34 54 89 85.5t121 31.5q72 0 126 -31.5t83 -88t29 -128.5v-27h-410q5 -78 51.5 -129t119.5 -51q62 0 101.5 29.5t64.5 81.5l59 -35q-69 -145 -228 -145q-65 0 -118.5 31t-86.5 86
q-35 -56 -93.5 -86.5t-126.5 -30.5q-69 0 -128 31zM886 299q-4 69 -49 107.5t-110 38.5q-63 0 -111 -41.5t-60 -104.5h330zM390 83q41 24 64.5 67t23.5 98t-23.5 98t-64.5 67t-91 24q-49 0 -90 -24t-64.5 -67t-23.5 -98t23.5 -98t64.5 -67t90 -24q50 0 91 24z" />
    <glyph glyph-name="Racute" unicode="&#x154;" horiz-adv-x="630" 
d="M165 303v-303h-84v700h278q69 0 120 -25t78 -69.5t27 -100.5q0 -77 -44 -127.5t-124 -68.5l174 -309h-93l-172 303h-160zM349 376q74 0 112.5 31.5t38.5 93.5q0 63 -38.5 94.5t-112.5 31.5h-184v-251h184zM323 907h107l-108 -145h-66z" />
    <glyph glyph-name="racute" unicode="&#x155;" horiz-adv-x="349" 
d="M282 437q-36 0 -66 -23.5t-47.5 -64t-17.5 -87.5v-262h-81v496h81v-89q19 45 56.5 74t84.5 29q25 0 42 -5l-14 -73q-17 5 -38 5zM217 703h107l-108 -145h-66z" />
    <glyph glyph-name="uni0156" unicode="&#x156;" horiz-adv-x="630" 
d="M165 303v-303h-84v700h278q69 0 120 -25t78 -69.5t27 -100.5q0 -77 -44 -127.5t-124 -68.5l174 -309h-93l-172 303h-160zM349 376q74 0 112.5 31.5t38.5 93.5q0 63 -38.5 94.5t-112.5 31.5h-184v-251h184zM366 -60v-95l-72 -120l-20 7l32 113h-35v95h95z" />
    <glyph glyph-name="uni0157" unicode="&#x157;" horiz-adv-x="349" 
d="M282 437q-36 0 -66 -23.5t-47.5 -64t-17.5 -87.5v-262h-81v496h81v-89q19 45 56.5 74t84.5 29q25 0 42 -5l-14 -73q-17 5 -38 5zM158 -60v-95l-72 -120l-20 7l32 113h-35v95h95z" />
    <glyph glyph-name="Rcaron" unicode="&#x158;" horiz-adv-x="630" 
d="M165 303v-303h-84v700h278q69 0 120 -25t78 -69.5t27 -100.5q0 -77 -44 -127.5t-124 -68.5l174 -309h-93l-172 303h-160zM349 376q74 0 112.5 31.5t38.5 93.5q0 63 -38.5 94.5t-112.5 31.5h-184v-251h184zM174 906h66l68 -72l68 72h66l-102 -144h-64z" />
    <glyph glyph-name="rcaron" unicode="&#x159;" horiz-adv-x="349" 
d="M282 437q-36 0 -66 -23.5t-47.5 -64t-17.5 -87.5v-262h-81v496h81v-89q19 45 56.5 74t84.5 29q25 0 42 -5l-14 -73q-17 5 -38 5zM68 702h66l68 -72l68 72h66l-102 -144h-64z" />
    <glyph glyph-name="Sacute" unicode="&#x15a;" horiz-adv-x="644" 
d="M212 447.5q48 -31.5 145 -50.5q112 -21 169.5 -70.5t57.5 -130.5q0 -58 -32 -106t-89.5 -76t-131.5 -28q-109 0 -182 51.5t-99 129.5l74 33q24 -63 75 -102t129 -39q52 0 91 18t60 48t21 65q0 58 -47.5 91t-140.5 50q-229 42 -229 200q0 53 30 95t83 65t120 23
q180 0 252 -145l-68 -40q-62 112 -185 112q-66 0 -108.5 -29t-42.5 -80q0 -53 48 -84.5zM332 907h107l-108 -145h-66z" />
    <glyph glyph-name="sacute" unicode="&#x15b;" horiz-adv-x="482" 
d="M178.5 324q32.5 -20 98.5 -33q81 -16 122.5 -51t41.5 -96q0 -42 -22 -78t-64 -58t-100 -22q-80 0 -132.5 33t-76.5 85l67 42q19 -40 56 -65.5t87 -25.5t79 23t29 62q0 36 -30 57t-94 33q-77 14 -122 50t-45 97q0 60 49 96.5t121 36.5q69 0 111.5 -24t69.5 -71l-57 -40
q-39 69 -123 69q-42 0 -70 -18t-28 -49q0 -33 32.5 -53zM259 703h107l-108 -145h-66z" />
    <glyph glyph-name="Scircumflex" unicode="&#x15c;" horiz-adv-x="644" 
d="M212 447.5q48 -31.5 145 -50.5q112 -21 169.5 -70.5t57.5 -130.5q0 -58 -32 -106t-89.5 -76t-131.5 -28q-109 0 -182 51.5t-99 129.5l74 33q24 -63 75 -102t129 -39q52 0 91 18t60 48t21 65q0 58 -47.5 91t-140.5 50q-229 42 -229 200q0 53 30 95t83 65t120 23
q180 0 252 -145l-68 -40q-62 112 -185 112q-66 0 -108.5 -29t-42.5 -80q0 -53 48 -84.5zM285 906h64l102 -144h-66l-68 72l-68 -72h-66z" />
    <glyph glyph-name="scircumflex" unicode="&#x15d;" horiz-adv-x="482" 
d="M178.5 324q32.5 -20 98.5 -33q81 -16 122.5 -51t41.5 -96q0 -42 -22 -78t-64 -58t-100 -22q-80 0 -132.5 33t-76.5 85l67 42q19 -40 56 -65.5t87 -25.5t79 23t29 62q0 36 -30 57t-94 33q-77 14 -122 50t-45 97q0 60 49 96.5t121 36.5q69 0 111.5 -24t69.5 -71l-57 -40
q-39 69 -123 69q-42 0 -70 -18t-28 -49q0 -33 32.5 -53zM212 702h64l102 -144h-66l-68 72l-68 -72h-66z" />
    <glyph glyph-name="Scedilla" unicode="&#x15e;" horiz-adv-x="644" 
d="M321 -14l-24 -44q19 13 46 13q33 0 54 -21t21 -56q0 -39 -26 -61t-65 -22q-34 0 -56.5 16t-29.5 45l49 12q7 -27 38 -27q15 0 25.5 9.5t10.5 25.5q0 17 -10.5 27.5t-27.5 10.5q-26 0 -48 -19l-31 29l25 67q-85 13 -142.5 61.5t-79.5 114.5l74 33q24 -63 75 -102t129 -39
q52 0 91 18t60 48t21 65q0 58 -47.5 91t-140.5 50q-229 42 -229 200q0 53 30 95t83 65t120 23q180 0 252 -145l-68 -40q-62 112 -185 112q-66 0 -108.5 -29t-42.5 -80q0 -53 48 -84.5t145 -50.5q112 -21 169.5 -70.5t57.5 -130.5q0 -59 -32 -107t-90 -75.5t-133 -27.5h-8z
" />
    <glyph glyph-name="scedilla" unicode="&#x15f;" horiz-adv-x="482" 
d="M246 -14l-23 -43q19 13 46 13q33 0 54 -21.5t21 -55.5q0 -39 -26 -61t-65 -22q-34 0 -56.5 16t-29.5 44l49 13q7 -28 38 -28q16 0 26 9.5t10 26.5t-10.5 27.5t-27.5 10.5q-24 0 -48 -20l-31 29l25 67q-56 11 -94 41t-58 72l67 42q19 -40 56 -65.5t87 -25.5t79 23t29 62
q0 36 -30 57t-94 33q-77 14 -122 50t-45 97q0 60 49 96.5t121 36.5q69 0 111.5 -24t69.5 -71l-57 -40q-39 69 -123 69q-42 0 -70 -18t-28 -49q0 -33 32.5 -53t98.5 -33q81 -16 122.5 -51t41.5 -96q0 -42 -22 -78t-64 -58t-100 -22h-9z" />
    <glyph glyph-name="Scaron" unicode="&#x160;" horiz-adv-x="644" 
d="M212 447.5q48 -31.5 145 -50.5q112 -21 169.5 -70.5t57.5 -130.5q0 -58 -32 -106t-89.5 -76t-131.5 -28q-109 0 -182 51.5t-99 129.5l74 33q24 -63 75 -102t129 -39q52 0 91 18t60 48t21 65q0 58 -47.5 91t-140.5 50q-229 42 -229 200q0 53 30 95t83 65t120 23
q180 0 252 -145l-68 -40q-62 112 -185 112q-66 0 -108.5 -29t-42.5 -80q0 -53 48 -84.5zM183 906h66l68 -72l68 72h66l-102 -144h-64z" />
    <glyph glyph-name="scaron" unicode="&#x161;" horiz-adv-x="482" 
d="M178.5 324q32.5 -20 98.5 -33q81 -16 122.5 -51t41.5 -96q0 -42 -22 -78t-64 -58t-100 -22q-80 0 -132.5 33t-76.5 85l67 42q19 -40 56 -65.5t87 -25.5t79 23t29 62q0 36 -30 57t-94 33q-77 14 -122 50t-45 97q0 60 49 96.5t121 36.5q69 0 111.5 -24t69.5 -71l-57 -40
q-39 69 -123 69q-42 0 -70 -18t-28 -49q0 -33 32.5 -53zM110 702h66l68 -72l68 72h66l-102 -144h-64z" />
    <glyph glyph-name="uni0162" unicode="&#x162;" horiz-adv-x="553" 
d="M301 0l-30 -57q19 13 47 13q33 0 54 -21.5t21 -55.5q0 -39 -26 -61t-65 -22q-34 0 -57 16t-29 44l48 13q9 -28 39 -28q15 0 25.5 9.5t10.5 26.5t-10.5 27.5t-27.5 10.5q-24 0 -48 -20l-31 29l28 76h-15v625h-217v75h517v-75h-216v-625h-18z" />
    <glyph glyph-name="uni0163" unicode="&#x163;" horiz-adv-x="344" 
d="M190 433v-300q0 -76 69 -76q18 0 38 6l8 -67q-30 -10 -64 -10q-15 0 -32 3l-24 -46q19 13 46 13q33 0 54 -21.5t21 -55.5q0 -39 -26 -61t-65 -22q-34 0 -56.5 16t-29.5 44l49 13q7 -28 38 -28q16 0 26 9.5t10 26.5t-10.5 27.5t-27.5 10.5q-24 0 -48 -20l-31 29l30 81
q-55 35 -55 122v306h-84v63h84v134h80v-134h119v-63h-119z" />
    <glyph glyph-name="Tcaron" unicode="&#x164;" horiz-adv-x="553" 
d="M235 625h-217v75h517v-75h-216v-625h-84v625zM143 906h66l68 -72l68 72h66l-102 -144h-64z" />
    <glyph glyph-name="tcaron" unicode="&#x165;" horiz-adv-x="344" 
d="M110 496v134h80v-134h119v-63h-119v-300q0 -76 69 -76q18 0 38 6l8 -67q-30 -10 -64 -10q-58 0 -94.5 34.5t-36.5 106.5v306h-84v63h84zM263 565l35 92h-37v86h85v-87l-64 -101z" />
    <glyph glyph-name="Tbar" unicode="&#x166;" horiz-adv-x="553" 
d="M535 700v-75h-216v-201h147v-66h-147v-358h-84v358h-148v66h148v201h-217v75h517z" />
    <glyph glyph-name="tbar" unicode="&#x167;" horiz-adv-x="347" 
d="M111 496v134h81v-134h118v-63h-118v-142h105v-60h-105v-98q0 -76 68 -76q19 0 39 6l7 -67q-28 -10 -64 -10q-58 0 -94.5 34.5t-36.5 106.5v104h-68v60h68v142h-84v63h84z" />
    <glyph glyph-name="Utilde" unicode="&#x168;" horiz-adv-x="669" 
d="M565 105.5q-33 -58.5 -92.5 -89t-137.5 -30.5t-137.5 30.5t-92.5 89t-33 139.5v455h84v-450q0 -87 49 -138t130 -51q80 0 129.5 51t49.5 138v450h84v-455q0 -81 -33 -139.5zM357 775.5q-21 10.5 -43 29.5q-16 14 -27.5 20.5t-26.5 6.5q-13 0 -21 -8t-8 -20q0 -13 6 -24
l-58 -12q-11 20 -11 45q0 38 26 58.5t62 20.5q35 0 56 -10.5t43 -29.5q16 -14 27 -20.5t27 -6.5q14 0 21.5 8t7.5 20t-5 24l57 12q11 -19 11 -45q0 -38 -26 -58.5t-62 -20.5q-35 0 -56 10.5z" />
    <glyph glyph-name="utilde" unicode="&#x169;" horiz-adv-x="567" 
d="M152 496v-314q0 -59 32 -91t87 -32q40 0 73 22t52.5 61.5t19.5 89.5v264h81v-496h-81v87q-24 -46 -68.5 -73.5t-97.5 -27.5q-77 0 -127.5 46.5t-50.5 139.5v324h80zM307 571.5q-21 10.5 -43 29.5q-16 14 -27.5 20.5t-26.5 6.5q-13 0 -21 -8t-8 -20q0 -13 6 -24l-58 -12
q-11 20 -11 45q0 38 26 58.5t62 20.5q35 0 56 -10.5t43 -29.5q16 -14 27 -20.5t27 -6.5q14 0 21.5 8t7.5 20t-5 24l57 12q11 -19 11 -45q0 -38 -26 -58.5t-62 -20.5q-35 0 -56 10.5z" />
    <glyph glyph-name="Umacron" unicode="&#x16a;" horiz-adv-x="669" 
d="M565 105.5q-33 -58.5 -92.5 -89t-137.5 -30.5t-137.5 30.5t-92.5 89t-33 139.5v455h84v-450q0 -87 49 -138t130 -51q80 0 129.5 51t49.5 138v450h84v-455q0 -81 -33 -139.5zM225 873h220v-68h-220v68z" />
    <glyph glyph-name="umacron" unicode="&#x16b;" horiz-adv-x="567" 
d="M152 496v-314q0 -59 32 -91t87 -32q40 0 73 22t52.5 61.5t19.5 89.5v264h81v-496h-81v87q-24 -46 -68.5 -73.5t-97.5 -27.5q-77 0 -127.5 46.5t-50.5 139.5v324h80zM174 669h220v-68h-220v68z" />
    <glyph glyph-name="Ubreve" unicode="&#x16c;" horiz-adv-x="669" 
d="M565 105.5q-33 -58.5 -92.5 -89t-137.5 -30.5t-137.5 30.5t-92.5 89t-33 139.5v455h84v-450q0 -87 49 -138t130 -51q80 0 129.5 51t49.5 138v450h84v-455q0 -81 -33 -139.5zM260.5 801q-28.5 29 -28.5 75h63q0 -20 11 -32.5t29 -12.5t28.5 12.5t10.5 32.5h63
q0 -46 -28 -75t-74 -29t-74.5 29z" />
    <glyph glyph-name="ubreve" unicode="&#x16d;" horiz-adv-x="567" 
d="M152 496v-314q0 -59 32 -91t87 -32q40 0 73 22t52.5 61.5t19.5 89.5v264h81v-496h-81v87q-24 -46 -68.5 -73.5t-97.5 -27.5q-77 0 -127.5 46.5t-50.5 139.5v324h80zM210.5 597q-28.5 29 -28.5 75h63q0 -20 11 -32.5t29 -12.5t28.5 12.5t10.5 32.5h63q0 -46 -28 -75
t-74 -29t-74.5 29z" />
    <glyph glyph-name="Uring" unicode="&#x16e;" horiz-adv-x="669" 
d="M565 105.5q-33 -58.5 -92.5 -89t-137.5 -30.5t-137.5 30.5t-92.5 89t-33 139.5v455h84v-450q0 -87 49 -138t130 -51q80 0 129.5 51t49.5 138v450h84v-455q0 -81 -33 -139.5zM267 771.5q-28 27.5 -28 67.5t28 67.5t68 27.5t68 -27.5t28 -67.5t-28 -67.5t-68 -27.5
t-68 27.5zM368 805.5q13 13.5 13 33.5t-13 33.5t-33 13.5t-33 -13.5t-13 -33.5t13 -33.5t33 -13.5t33 13.5z" />
    <glyph glyph-name="uring" unicode="&#x16f;" horiz-adv-x="567" 
d="M152 496v-314q0 -59 32 -91t87 -32q40 0 73 22t52.5 61.5t19.5 89.5v264h81v-496h-81v87q-24 -46 -68.5 -73.5t-97.5 -27.5q-77 0 -127.5 46.5t-50.5 139.5v324h80zM217 567.5q-28 27.5 -28 67.5t28 67.5t68 27.5t68 -27.5t28 -67.5t-28 -67.5t-68 -27.5t-68 27.5z
M318 601.5q13 13.5 13 33.5t-13 33.5t-33 13.5t-33 -13.5t-13 -33.5t13 -33.5t33 -13.5t33 13.5z" />
    <glyph glyph-name="Uhungarumlaut" unicode="&#x170;" horiz-adv-x="669" 
d="M565 105.5q-33 -58.5 -92.5 -89t-137.5 -30.5t-137.5 30.5t-92.5 89t-33 139.5v455h84v-450q0 -87 49 -138t130 -51q80 0 129.5 51t49.5 138v450h84v-455q0 -81 -33 -139.5zM269 907h107l-108 -145h-66zM430 907h107l-108 -145h-65z" />
    <glyph glyph-name="uhungarumlaut" unicode="&#x171;" horiz-adv-x="567" 
d="M152 496v-314q0 -59 32 -91t87 -32q40 0 73 22t52.5 61.5t19.5 89.5v264h81v-496h-81v87q-24 -46 -68.5 -73.5t-97.5 -27.5q-77 0 -127.5 46.5t-50.5 139.5v324h80zM218 703h107l-108 -145h-66zM379 703h107l-108 -145h-65z" />
    <glyph glyph-name="Uogonek" unicode="&#x172;" horiz-adv-x="669" 
d="M598 700v-455q0 -95 -44.5 -158t-122.5 -87q-35 -18 -52.5 -40t-17.5 -45q0 -20 13.5 -32t35.5 -12q11 0 19 2l10 -65q-19 -6 -46 -6q-43 0 -73.5 24.5t-30.5 68.5q0 51 45 91q-78 0 -137 30.5t-92 89t-33 139.5v455h84v-450q0 -87 49 -138t130 -51q80 0 129.5 51
t49.5 138v450h84z" />
    <glyph glyph-name="uogonek" unicode="&#x173;" horiz-adv-x="567" 
d="M504 -192q-19 -6 -46 -6q-43 0 -73.5 24.5t-30.5 68.5q0 31 17 58t46 47h-1v87q-24 -46 -68.5 -73.5t-97.5 -27.5q-77 0 -127.5 46.5t-50.5 139.5v324h80v-314q0 -59 32 -91t87 -32q40 0 73 22t52.5 61.5t19.5 89.5v264h81v-496q-35 -18 -53 -40t-18 -45q0 -20 13.5 -32
t35.5 -12q11 0 19 2z" />
    <glyph glyph-name="Wcircumflex" unicode="&#x174;" horiz-adv-x="895" 
d="M5 700h85l140 -521q14 -53 19 -77l17 78l136 520h91l136 -520q13 -54 18 -78q5 24 18 77l140 521h85l-197 -700h-90l-155 593l-155 -593h-90zM416 906h64l102 -144h-66l-68 72l-68 -72h-66z" />
    <glyph glyph-name="wcircumflex" unicode="&#x175;" horiz-adv-x="689" 
d="M603 496h79l-142 -496h-85l-111 404l-110 -404h-85l-142 496h79l107 -401l109 401h84l110 -401zM312 702h64l102 -144h-66l-68 72l-68 -72h-66z" />
    <glyph glyph-name="Ycircumflex" unicode="&#x176;" horiz-adv-x="551" 
d="M234 286l-230 414h91l159 -295q13 -25 22 -48q9 23 22 48l158 295h91l-229 -414v-286h-84v286zM244 906h64l102 -144h-66l-68 72l-68 -72h-66z" />
    <glyph glyph-name="ycircumflex" unicode="&#x177;" horiz-adv-x="500" 
d="M114 -136q21 0 35.5 12.5t25.5 38.5l33 84l-203 497h91l155 -388l154 388h89l-248 -606q-21 -53 -52 -76.5t-78 -23.5q-31 0 -55 9l14 75q20 -10 39 -10zM218 702h64l102 -144h-66l-68 72l-68 -72h-66z" />
    <glyph glyph-name="Ydieresis" unicode="&#x178;" horiz-adv-x="551" 
d="M234 286l-230 414h91l159 -295q13 -25 22 -48q9 23 22 48l158 295h91l-229 -414v-286h-84v286zM150 884h93v-92h-93v92zM309 884h92v-92h-92v92z" />
    <glyph glyph-name="Zacute" unicode="&#x179;" horiz-adv-x="593" 
d="M533 700v-77l-395 -546h412v-77h-510v75l399 548h-386v77h480zM312 907h107l-108 -145h-66z" />
    <glyph glyph-name="zacute" unicode="&#x17a;" horiz-adv-x="481" 
d="M441 0h-400v67l294 362h-285v67h376v-67l-295 -362h310v-67zM250 703h107l-108 -145h-66z" />
    <glyph glyph-name="Zdotaccent" unicode="&#x17b;" horiz-adv-x="593" 
d="M533 700v-77l-395 -546h412v-77h-510v75l399 548h-386v77h480zM250 884h95v-97h-95v97z" />
    <glyph glyph-name="zdotaccent" unicode="&#x17c;" horiz-adv-x="481" 
d="M441 0h-400v67l294 362h-285v67h376v-67l-295 -362h310v-67zM188 680h95v-97h-95v97z" />
    <glyph glyph-name="Zcaron" unicode="&#x17d;" horiz-adv-x="593" 
d="M533 700v-77l-395 -546h412v-77h-510v75l399 548h-386v77h480zM163 906h66l68 -72l68 72h66l-102 -144h-64z" />
    <glyph glyph-name="zcaron" unicode="&#x17e;" horiz-adv-x="481" 
d="M441 0h-400v67l294 362h-285v67h376v-67l-295 -362h310v-67zM101 702h66l68 -72l68 72h66l-102 -144h-64z" />
    <glyph glyph-name="longs" unicode="&#x17f;" horiz-adv-x="317" 
d="M98 496v92q0 76 40 119t114 43q27 0 52 -10l-13 -69q-18 7 -39 7q-32 0 -52.5 -21.5t-20.5 -64.5v-592h-81v434h-76v62h76z" />
    <glyph glyph-name="florin" unicode="&#x192;" horiz-adv-x="320" 
d="M-6 -210l15 72q18 -8 34 -8q58 0 58 71v509h-76v62h76v92q0 76 40 119t114 43q27 0 52 -10l-13 -69q-18 7 -39 7q-32 0 -52.5 -21.5t-20.5 -64.5v-96h117v-62h-117v-503q0 -149 -135 -149q-31 0 -53 8z" />
    <glyph glyph-name="uni01B5" unicode="&#x1b5;" horiz-adv-x="593" 
d="M533 700v-77l-170 -236h155v-66h-204l-176 -244h412v-77h-510v75l178 246h-152v66h202l171 236h-386v77h480z" />
    <glyph glyph-name="uni01B6" unicode="&#x1b6;" horiz-adv-x="481" 
d="M41 67l128 160h-96v64h150l112 138h-285v67h376v-67l-112 -138h94v-64h-148l-129 -160h310v-67h-400v67z" />
    <glyph glyph-name="Aringacute" unicode="&#x1fa;" horiz-adv-x="658" 
d="M652 0h-89l-80 206h-308l-80 -206h-89l268 669q-19 13 -30 33.5t-11 44.5q0 35 22.5 61.5t56.5 32.5l45 97h107l-83 -111q21 -13 32.5 -34t11.5 -46q0 -24 -11 -44.5t-30 -33.5zM297 780q-13 -13 -13 -33t13 -33.5t32 -13.5q20 0 33 13.5t13 33.5t-13 33t-33 13
q-19 0 -32 -13zM455 278l-107 276q-11 25 -19 53q-8 -28 -19 -53l-107 -276h252z" />
    <glyph glyph-name="aringacute" unicode="&#x1fb;" horiz-adv-x="525" 
d="M387 98q-20 -50 -68.5 -81t-103.5 -31q-75 0 -120.5 42.5t-45.5 109.5q0 69 47 108.5t122 50.5l168 26v25q0 48 -30.5 73t-86.5 25q-55 0 -86.5 -23.5t-31.5 -57.5q0 -8 2 -14l-71 -15q-6 14 -6 34q0 38 24.5 70t68.5 51t100 19q95 0 146 -43t51 -121v-222q0 -41 3.5 -68
t11.5 -56h-80q-14 44 -14 98zM311 81.5q36 25.5 55.5 68t19.5 91.5v20l-152 -24q-51 -9 -78 -33.5t-27 -62.5t27 -61.5t71 -23.5q48 0 84 25.5zM202 567.5q-28 27.5 -28 67.5t28 67.5t68 27.5t68 -27.5t28 -67.5t-28 -67.5t-68 -27.5t-68 27.5zM303 601.5q13 13.5 13 33.5
t-13 33.5t-33 13.5t-33 -13.5t-13 -33.5t13 -33.5t33 -13.5t33 13.5zM298 907h107l-108 -145h-66z" />
    <glyph glyph-name="AEacute" unicode="&#x1fc;" horiz-adv-x="934" 
d="M185 206l-91 -206h-88l313 700h548v-74h-353v-227h325v-74h-325v-251h356v-74h-440v206h-245zM430 278v348h-59l-154 -348h213zM591 907h107l-108 -145h-66z" />
    <glyph glyph-name="aeacute" unicode="&#x1fd;" horiz-adv-x="919" 
d="M97 28q-48 42 -48 108q0 75 57.5 119t151.5 44h128v41q0 106 -115 106q-57 0 -87.5 -23t-30.5 -56q0 -7 2 -14l-69 -24q-7 16 -7 40q0 38 24 70.5t67 51.5t97 19q69 0 114.5 -24t65.5 -68q34 43 84 67.5t108 24.5q72 0 126 -31.5t83 -88t29 -128.5v-27h-409
q4 -78 50.5 -129t119.5 -51q62 0 101.5 29.5t64.5 81.5l59 -35q-69 -145 -228 -145q-68 0 -125 37t-88 97q-25 -63 -81.5 -98.5t-118.5 -35.5q-77 0 -125 42zM797 299q-4 69 -49 107.5t-110 38.5q-63 0 -110.5 -41.5t-59.5 -104.5h329zM312 81q36 25 55 65.5t19 84.5v4h-124
q-67 0 -100 -27t-33 -70q0 -36 27.5 -59t72.5 -23q47 0 83 25zM475 703h107l-108 -145h-66z" />
    <glyph glyph-name="uni0218" unicode="&#x218;" horiz-adv-x="644" 
d="M212 447.5q48 -31.5 145 -50.5q112 -21 169.5 -70.5t57.5 -130.5q0 -58 -32 -106t-89.5 -76t-131.5 -28q-109 0 -182 51.5t-99 129.5l74 33q24 -63 75 -102t129 -39q52 0 91 18t60 48t21 65q0 58 -47.5 91t-140.5 50q-229 42 -229 200q0 53 30 95t83 65t120 23
q180 0 252 -145l-68 -40q-62 112 -185 112q-66 0 -108.5 -29t-42.5 -80q0 -53 48 -84.5zM376 -60v-95l-72 -120l-20 7l32 113h-35v95h95z" />
    <glyph glyph-name="uni0219" unicode="&#x219;" horiz-adv-x="482" 
d="M178.5 324q32.5 -20 98.5 -33q81 -16 122.5 -51t41.5 -96q0 -42 -22 -78t-64 -58t-100 -22q-80 0 -132.5 33t-76.5 85l67 42q19 -40 56 -65.5t87 -25.5t79 23t29 62q0 36 -30 57t-94 33q-77 14 -122 50t-45 97q0 60 49 96.5t121 36.5q69 0 111.5 -24t69.5 -71l-57 -40
q-39 69 -123 69q-42 0 -70 -18t-28 -49q0 -33 32.5 -53zM304 -60v-95l-72 -120l-20 7l32 113h-35v95h95z" />
    <glyph glyph-name="uni021A" unicode="&#x21a;" horiz-adv-x="553" 
d="M235 625h-217v75h517v-75h-216v-625h-84v625zM324 -60v-95l-72 -120l-20 7l32 113h-35v95h95z" />
    <glyph glyph-name="uni021B" unicode="&#x21b;" horiz-adv-x="344" 
d="M110 496v134h80v-134h119v-63h-119v-300q0 -76 69 -76q18 0 38 6l8 -67q-30 -10 -64 -10q-58 0 -94.5 34.5t-36.5 106.5v306h-84v63h84zM266 -60v-95l-72 -120l-20 7l32 113h-35v95h95z" />
    <glyph glyph-name="uni0237" unicode="&#x237;" horiz-adv-x="224" 
d="M15 -138q57 0 57 70v564h81v-560q0 -68 -31 -107.5t-95 -39.5q-34 0 -63 9l11 72q19 -8 40 -8z" />
    <glyph glyph-name="uni02BC" unicode="&#x2bc;" horiz-adv-x="193" 
d="M32 487l61 114h-40v99h98v-99l-99 -128z" />
    <glyph glyph-name="circumflex" unicode="&#x2c6;" horiz-adv-x="372" 
d="M154 702h64l102 -144h-66l-68 72l-68 -72h-66z" />
    <glyph glyph-name="caron" unicode="&#x2c7;" horiz-adv-x="372" 
d="M52 702h66l68 -72l68 72h66l-102 -144h-64z" />
    <glyph glyph-name="uni02C9" unicode="&#x2c9;" horiz-adv-x="311" 
d="M45 669h220v-68h-220v68z" />
    <glyph glyph-name="breve" unicode="&#x2d8;" horiz-adv-x="281" 
d="M66 597q-28 29 -28 75h63q0 -20 10.5 -32.5t28.5 -12.5t29 12.5t11 32.5h63q0 -46 -28.5 -75t-74.5 -29t-74 29z" />
    <glyph glyph-name="dotaccent" unicode="&#x2d9;" horiz-adv-x="223" 
d="M64 680h95v-97h-95v97z" />
    <glyph glyph-name="ring" unicode="&#x2da;" horiz-adv-x="286" 
d="M75 567.5q-28 27.5 -28 67.5t28 67.5t68 27.5t68 -27.5t28 -67.5t-28 -67.5t-68 -27.5t-68 27.5zM176 601.5q13 13.5 13 33.5t-13 33.5t-33 13.5t-33 -13.5t-13 -33.5t13 -33.5t33 -13.5t33 13.5z" />
    <glyph glyph-name="ogonek" unicode="&#x2db;" horiz-adv-x="207" 
d="M62.5 -173.5q-30.5 24.5 -30.5 68.5q0 35 21.5 64.5t55.5 49.5l66 -9q-35 -18 -53 -40t-18 -45q0 -20 14 -32t35 -12q11 0 19 2l10 -65q-19 -6 -46 -6q-43 0 -73.5 24.5z" />
    <glyph glyph-name="tilde" unicode="&#x2dc;" horiz-adv-x="465" 
d="M255 571.5q-21 10.5 -43 29.5q-16 14 -27.5 20.5t-26.5 6.5q-13 0 -21 -8t-8 -20q0 -13 6 -24l-58 -12q-11 20 -11 45q0 38 26 58.5t62 20.5q35 0 56 -10.5t43 -29.5q16 -14 27 -20.5t27 -6.5q14 0 21.5 8t7.5 20t-5 24l57 12q11 -19 11 -45q0 -38 -26 -58.5t-62 -20.5
q-35 0 -56 10.5z" />
    <glyph glyph-name="hungarumlaut" unicode="&#x2dd;" horiz-adv-x="456" 
d="M127 703h107l-108 -145h-66zM289 703h107l-108 -145h-66z" />
    <glyph glyph-name="gravecomb" unicode="&#x300;" 
d="M-174 703h107l67 -145h-66z" />
    <glyph glyph-name="acutecomb" unicode="&#x301;" 
d="M-107 703h107l-108 -145h-66z" />
    <glyph glyph-name="uni0302" unicode="&#x302;" 
d="M-166 702h64l102 -144h-66l-68 72l-68 -72h-66z" />
    <glyph glyph-name="tildecomb" unicode="&#x303;" 
d="M-144 571.5q-21 10.5 -43 29.5q-16 14 -27.5 20.5t-26.5 6.5q-13 0 -21 -8t-8 -20q0 -13 6 -24l-58 -12q-11 20 -11 45q0 38 26 58.5t62 20.5q35 0 56 -10.5t43 -29.5q16 -14 27 -20.5t27 -6.5q14 0 21.5 8t7.5 20t-5 24l57 12q11 -19 11 -45q0 -38 -26 -58.5t-62 -20.5
q-35 0 -56 10.5z" />
    <glyph glyph-name="uni0304" unicode="&#x304;" 
d="M-220 669h220v-68h-220v68z" />
    <glyph glyph-name="uni0306" unicode="&#x306;" 
d="M-176.5 597q-28.5 29 -28.5 75h63q0 -20 11 -32.5t29 -12.5t28.5 12.5t10.5 32.5h63q0 -46 -28 -75t-74 -29t-74.5 29z" />
    <glyph glyph-name="uni0307" unicode="&#x307;" 
d="M-95 680h95v-97h-95v97z" />
    <glyph glyph-name="uni0308" unicode="&#x308;" 
d="M-251 680h93v-92h-93v92zM-92 680h92v-92h-92v92z" />
    <glyph glyph-name="uni030A" unicode="&#x30a;" 
d="M-164 567.5q-28 27.5 -28 67.5t28 67.5t68 27.5t68 -27.5t28 -67.5t-28 -67.5t-68 -27.5t-68 27.5zM-63 601.5q13 13.5 13 33.5t-13 33.5t-33 13.5t-33 -13.5t-13 -33.5t13 -33.5t33 -13.5t33 13.5z" />
    <glyph glyph-name="uni030B" unicode="&#x30b;" 
d="M-268 703h107l-108 -145h-66zM-107 703h107l-108 -145h-65z" />
    <glyph glyph-name="uni030C" unicode="&#x30c;" 
d="M-268 702h66l68 -72l68 72h66l-102 -144h-64z" />
    <glyph glyph-name="uni0312" unicode="&#x312;" 
d="M-115 659l95 122l20 -15l-59 -107h39v-96h-95v96z" />
    <glyph glyph-name="uni0326" unicode="&#x326;" 
d="M0 -60v-95l-72 -120l-20 7l32 113h-35v95h95z" />
    <glyph glyph-name="uni0327" unicode="&#x327;" 
d="M-147.5 -188q-22.5 16 -29.5 44l49 13q7 -28 38 -28q16 0 26 9.5t10 26.5t-10.5 27.5t-27.5 10.5q-24 0 -48 -20l-31 29l34 92h55l-39 -73q19 13 46 13q33 0 54 -21.5t21 -55.5q0 -39 -26 -61t-65 -22q-34 0 -56.5 16z" />
    <glyph glyph-name="uni0328" unicode="&#x328;" 
d="M-119.5 -173.5q-30.5 24.5 -30.5 68.5q0 35 21.5 64.5t55.5 49.5l66 -9q-35 -18 -53 -40t-18 -45q0 -20 14 -32t35 -12q11 0 19 2l10 -65q-20 -6 -46 -6q-43 0 -73.5 24.5z" />
    <glyph glyph-name="uni0335" unicode="&#x335;" 
d="M-306 385h306v-64h-306v64z" />
    <glyph glyph-name="uni0336" unicode="&#x336;" 
d="M-713 564h713v-66h-713v66z" />
    <glyph glyph-name="uni0337" unicode="&#x337;" 
d="M-223 243l223 140v-77l-223 -139v76z" />
    <glyph glyph-name="uni0338" unicode="&#x338;" 
d="M-370 1l311 528l59 -34l-311 -528z" />
    <glyph glyph-name="uni0374" unicode="&#x374;" horiz-adv-x="267" 
d="M114 703h96l-97 -247h-56z" />
    <glyph glyph-name="uni0375" unicode="&#x375;" horiz-adv-x="267" 
d="M153 130h57l-57 -247h-97z" />
    <glyph glyph-name="uni037A" unicode="&#x37a;" horiz-adv-x="203" 
d="M67 -172q-26 26 -26 77v75h70v-62q0 -51 45 -51q13 0 23 3v-63q-18 -5 -39 -5q-47 0 -73 26z" />
    <glyph glyph-name="uni037E" unicode="&#x37e;" horiz-adv-x="189" 
d="M45 476h98v-99h-98v99zM47 -122l33 122h-35v99h98v-99l-75 -130z" />
    <glyph glyph-name="tonos" unicode="&#x384;" horiz-adv-x="272" 
d="M106 700h104l-85 -145h-63z" />
    <glyph glyph-name="dieresistonos" unicode="&#x385;" horiz-adv-x="418" 
d="M180 703h104l-85 -145h-63zM19 680h93v-92h-93v92zM306 680h93v-92h-93v92z" />
    <glyph glyph-name="Alphatonos" unicode="&#x386;" horiz-adv-x="658" 
d="M286 700h86l280 -700h-89l-80 206h-308l-80 -206h-89zM455 278l-107 276q-11 25 -19 53q-8 -28 -19 -53l-107 -276h252zM97 700h104l-85 -145h-63z" />
    <glyph glyph-name="anoteleia" unicode="&#x387;" horiz-adv-x="189" 
d="M45 406h98v-99h-98v99z" />
    <glyph glyph-name="Epsilontonos" unicode="&#x388;" horiz-adv-x="585" 
d="M518 700v-74h-353v-227h325v-74h-325v-251h356v-74h-440v700h437zM-50 700h104l-85 -145h-63z" />
    <glyph glyph-name="Etatonos" unicode="&#x389;" horiz-adv-x="685" 
d="M165 700v-305h355v305h84v-700h-84v319h-355v-319h-84v700h84zM-50 700h104l-85 -145h-63z" />
    <glyph glyph-name="Iotatonos" unicode="&#x38a;" horiz-adv-x="246" 
d="M165 700v-700h-84v700h84zM-50 700h104l-85 -145h-63z" />
    <glyph glyph-name="Omicrontonos" unicode="&#x38c;" horiz-adv-x="784" 
d="M686.5 160.5q-44.5 -82.5 -122 -128.5t-172.5 -46t-172.5 46t-122 128.5t-44.5 189.5t44.5 189.5t122 128.5t172.5 46t172.5 -46t122 -128.5t44.5 -189.5t-44.5 -189.5zM523 97q58 36 91 101.5t33 151.5t-33 151.5t-91 101.5t-131 36t-131 -36t-91 -101.5t-33 -151.5
t33 -151.5t91 -101.5t131 -36t131 36zM16 700h104l-85 -145h-63z" />
    <glyph glyph-name="Upsilontonos" unicode="&#x38e;" horiz-adv-x="551" 
d="M234 286l-230 414h91l159 -295q13 -25 22 -48q9 23 22 48l158 295h91l-229 -414v-286h-84v286zM-115 700h104l-85 -145h-63z" />
    <glyph glyph-name="Omegatonos" unicode="&#x38f;" horiz-adv-x="781" 
d="M74 71h159q-76 49 -128 130t-52 182q0 95 44 170.5t121 118t173 42.5t173 -42.5t121 -118t44 -170.5q0 -100 -52 -181.5t-128 -130.5h158v-71h-256v82q77 41 135.5 117.5t58.5 179.5q0 74 -32 133.5t-89.5 93t-132.5 33.5t-132.5 -33.5t-89.5 -93t-32 -133.5
q0 -103 58.5 -179.5t135.5 -117.5v-82h-257v71zM16 700h104l-85 -145h-63z" />
    <glyph glyph-name="iotadieresistonos" unicode="&#x390;" horiz-adv-x="284" 
d="M72 123v373h80v-367q0 -37 15.5 -54.5t49.5 -17.5q19 0 33 5l7 -67q-27 -9 -55 -9q-130 0 -130 137zM83 703h104l-85 -145h-63zM-78 680h93v-92h-93v92zM209 680h93v-92h-93v92z" />
    <glyph glyph-name="Alpha" unicode="&#x391;" horiz-adv-x="658" 
d="M286 700h86l280 -700h-89l-80 206h-308l-80 -206h-89zM455 278l-107 276q-11 25 -19 53q-8 -28 -19 -53l-107 -276h252z" />
    <glyph glyph-name="Beta" unicode="&#x392;" horiz-adv-x="635" 
d="M336 700q67 0 117 -21.5t76.5 -59t26.5 -85.5q0 -59 -34 -100t-82 -59q142 -44 142 -173q0 -60 -32.5 -106t-88 -71t-121.5 -25h-259v700h255zM332 408q65 0 103 26.5t38 82.5t-38 83t-103 27h-167v-219h167zM329 74q77 0 123 32.5t46 97.5q0 66 -46 98.5t-123 32.5h-164
v-261h164z" />
    <glyph glyph-name="Gamma" unicode="&#x393;" horiz-adv-x="547" 
d="M81 700h448v-74h-364v-626h-84v700z" />
    <glyph glyph-name="uni0394" unicode="&#x394;" horiz-adv-x="658" 
d="M286 700h86l280 -700h-646zM538 73l-200 510q-5 12 -9 25q-4 -13 -9 -25l-200 -510h418z" />
    <glyph glyph-name="Epsilon" unicode="&#x395;" horiz-adv-x="585" 
d="M518 700v-74h-353v-227h325v-74h-325v-251h356v-74h-440v700h437z" />
    <glyph glyph-name="Zeta" unicode="&#x396;" horiz-adv-x="593" 
d="M533 700v-77l-395 -546h412v-77h-510v75l399 548h-386v77h480z" />
    <glyph glyph-name="Eta" unicode="&#x397;" horiz-adv-x="685" 
d="M165 700v-305h355v305h84v-700h-84v319h-355v-319h-84v700h84z" />
    <glyph glyph-name="Theta" unicode="&#x398;" horiz-adv-x="685" 
d="M190.5 33q-65.5 47 -101.5 129.5t-36 187.5t36 187.5t101.5 129.5t152.5 47q86 0 152 -47t102 -129.5t36 -187.5t-36 -187.5t-102 -129.5t-152 -47q-87 0 -152.5 47zM548 386q-8 117 -62 185.5t-143 68.5t-143.5 -68.5t-62.5 -185.5h411zM486 128.5q54 68.5 62 185.5
h-411q8 -117 62.5 -185.5t143.5 -68.5t143 68.5z" />
    <glyph glyph-name="Iota" unicode="&#x399;" horiz-adv-x="246" 
d="M165 700v-700h-84v700h84z" />
    <glyph glyph-name="Kappa" unicode="&#x39a;" horiz-adv-x="613" 
d="M81 700h84v-319l65 71l236 248h105l-243 -257l264 -443h-98l-227 379l-102 -107v-272h-84v700z" />
    <glyph glyph-name="Lambda" unicode="&#x39b;" horiz-adv-x="623" 
d="M266 700h91l260 -700h-89l-190 527l-26 83l-26 -83l-191 -527h-89z" />
    <glyph glyph-name="Mu" unicode="&#x39c;" horiz-adv-x="849" 
d="M173 700l251 -621l252 621h92v-700h-82v539l-35 -99l-183 -440h-87l-183 439l-36 100v-539h-81v700h92z" />
    <glyph glyph-name="Nu" unicode="&#x39d;" horiz-adv-x="695" 
d="M168 700l335 -523q24 -41 30 -55v578h81v-700h-87l-335 524q-24 41 -30 55v-579h-81v700h87z" />
    <glyph glyph-name="Xi" unicode="&#x39e;" horiz-adv-x="573" 
d="M67 700h439v-74h-439v74zM95 399h383v-74h-383v74zM64 74h445v-74h-445v74z" />
    <glyph glyph-name="Omicron" unicode="&#x39f;" horiz-adv-x="784" 
d="M686.5 160.5q-44.5 -82.5 -122 -128.5t-172.5 -46t-172.5 46t-122 128.5t-44.5 189.5t44.5 189.5t122 128.5t172.5 46t172.5 -46t122 -128.5t44.5 -189.5t-44.5 -189.5zM523 97q58 36 91 101.5t33 151.5t-33 151.5t-91 101.5t-131 36t-131 -36t-91 -101.5t-33 -151.5
t33 -151.5t91 -101.5t131 -36t131 36z" />
    <glyph glyph-name="Pi" unicode="&#x3a0;" horiz-adv-x="670" 
d="M81 700h508v-700h-84v625h-340v-625h-84v700z" />
    <glyph glyph-name="Rho" unicode="&#x3a1;" horiz-adv-x="670" 
d="M81 700h293q113 0 179.5 -58.5t66.5 -160.5t-66.5 -161t-179.5 -59h-209v-261h-84v700zM372 335q81 0 122.5 38t41.5 108q0 69 -41.5 107t-122.5 38h-207v-291h207z" />
    <glyph glyph-name="Sigma" unicode="&#x3a3;" horiz-adv-x="581" 
d="M45 75l222 275l-214 275v75h476v-75h-379l210 -275l-221 -275h402v-75h-496v75z" />
    <glyph glyph-name="Tau" unicode="&#x3a4;" horiz-adv-x="553" 
d="M235 625h-217v75h517v-75h-216v-625h-84v625z" />
    <glyph glyph-name="Upsilon" unicode="&#x3a5;" horiz-adv-x="551" 
d="M234 286l-230 414h91l159 -295q13 -25 22 -48q9 23 22 48l158 295h91l-229 -414v-286h-84v286z" />
    <glyph glyph-name="Phi" unicode="&#x3a6;" horiz-adv-x="801" 
d="M358 75h-15q-80 0 -148 33t-108.5 95.5t-40.5 146.5t40.5 146.5t108.5 95.5t148 33h15v88h85v-88h15q80 0 148 -33t108 -95.5t40 -146.5t-40 -146.5t-108 -95.5t-148 -33h-15v-88h-85v88zM358 149v402h-21q-59 0 -106.5 -24t-75 -69.5t-27.5 -107.5t27.5 -107.5t75 -69.5
t106.5 -24h21zM464 149q58 0 105.5 24t75 69.5t27.5 107.5t-27.5 107.5t-75 69.5t-105.5 24h-21v-402h21z" />
    <glyph glyph-name="Chi" unicode="&#x3a7;" horiz-adv-x="572" 
d="M447 700h89l-203 -319l235 -381h-92l-191 311l-189 -311h-93l236 376l-203 324h93l156 -259z" />
    <glyph glyph-name="Psi" unicode="&#x3a8;" horiz-adv-x="737" 
d="M326 173q-125 0 -190.5 68.5t-65.5 191.5v267h84v-263q0 -88 43.5 -139t128.5 -51v453h84v-453q85 0 129 51t44 139v263h84v-267q0 -123 -66 -191.5t-191 -68.5v-173h-84v173z" />
    <glyph glyph-name="uni03A9" unicode="&#x3a9;" horiz-adv-x="781" 
d="M74 71h159q-76 49 -128 130t-52 182q0 95 44 170.5t121 118t173 42.5t173 -42.5t121 -118t44 -170.5q0 -100 -52 -181.5t-128 -130.5h158v-71h-256v82q77 41 135.5 117.5t58.5 179.5q0 74 -32 133.5t-89.5 93t-132.5 33.5t-132.5 -33.5t-89.5 -93t-32 -133.5
q0 -103 58.5 -179.5t135.5 -117.5v-82h-257v71z" />
    <glyph glyph-name="Iotadieresis" unicode="&#x3aa;" horiz-adv-x="246" 
d="M165 700v-700h-84v700h84zM-2 884h93v-92h-93v92zM157 884h92v-92h-92v92z" />
    <glyph glyph-name="Upsilondieresis" unicode="&#x3ab;" horiz-adv-x="551" 
d="M234 286l-230 414h91l159 -295q13 -25 22 -48q9 23 22 48l158 295h91l-229 -414v-286h-84v286zM150 884h93v-92h-93v92zM309 884h92v-92h-92v92z" />
    <glyph glyph-name="alphatonos" unicode="&#x3ac;" horiz-adv-x="650" 
d="M156.5 19.5q-54.5 33.5 -85.5 93t-31 135.5t31.5 136t85 93t117.5 33q68 0 120 -34.5t75 -94.5l21 115h79l-58 -295q8 -145 74 -145q15 0 30 8l14 -68q-27 -10 -53 -10q-45 0 -75 28t-43 76q-30 -52 -75.5 -78t-104.5 -26q-67 0 -121.5 33.5zM396 110q44 51 44 138
q0 54 -20.5 97t-57 67.5t-81.5 24.5q-46 0 -82 -24t-56.5 -67t-20.5 -98t21 -98t57.5 -67t81.5 -24q70 0 114 51zM325 700h104l-85 -145h-63z" />
    <glyph glyph-name="epsilontonos" unicode="&#x3ad;" horiz-adv-x="468" 
d="M132 8q-43 22 -64 57.5t-21 75.5q0 49 30 81.5t69 43.5q-37 15 -61.5 43t-24.5 70q0 36 20.5 65.5t60 47.5t93.5 18q81 0 127 -35.5t46 -93.5q0 -27 -12 -49l-64 24q4 9 4 21q0 31 -29.5 50.5t-72.5 19.5t-70 -20t-27 -52q0 -38 29 -59.5t88 -21.5v-62q-57 0 -92 -22
t-35 -65q0 -41 29.5 -67t81.5 -26q46 0 77 22t31 60q0 19 -5 32l70 23q12 -21 12 -53q0 -67 -50 -108.5t-135 -41.5q-62 0 -105 22zM246 700h104l-85 -145h-63z" />
    <glyph glyph-name="etatonos" unicode="&#x3ae;" horiz-adv-x="570" 
d="M418 316q0 57 -33 89t-88 32q-38 0 -71.5 -21.5t-53.5 -59.5t-20 -85v-271h-80v496h80v-88q28 47 73.5 74.5t98.5 27.5q76 0 125 -44t49 -129v-541h-80v520zM304 700h104l-85 -145h-63z" />
    <glyph glyph-name="iotatonos" unicode="&#x3af;" horiz-adv-x="284" 
d="M72 123v373h80v-367q0 -37 15.5 -54.5t49.5 -17.5q19 0 33 5l7 -67q-27 -9 -55 -9q-130 0 -130 137zM124 700h104l-85 -145h-63z" />
    <glyph glyph-name="upsilondieresistonos" unicode="&#x3b0;" horiz-adv-x="559" 
d="M130 38.5q-58 52.5 -58 151.5v306h80v-312q0 -58 34 -91.5t94 -33.5t93.5 34t33.5 91v312h81v-306q0 -99 -58.5 -151.5t-149.5 -52.5q-92 0 -150 52.5zM251 703h104l-85 -145h-63zM90 680h93v-92h-93v92zM377 680h93v-92h-93v92z" />
    <glyph glyph-name="alpha" unicode="&#x3b1;" horiz-adv-x="650" 
d="M156.5 19.5q-54.5 33.5 -85.5 93t-31 135.5t31.5 136t85 93t117.5 33q68 0 120 -34.5t75 -94.5l21 115h79l-58 -295q8 -145 74 -145q15 0 30 8l14 -68q-27 -10 -53 -10q-45 0 -75 28t-43 76q-30 -52 -75.5 -78t-104.5 -26q-67 0 -121.5 33.5zM396 110q44 51 44 138
q0 54 -20.5 97t-57 67.5t-81.5 24.5q-46 0 -82 -24t-56.5 -67t-20.5 -98t21 -98t57.5 -67t81.5 -24q70 0 114 51z" />
    <glyph glyph-name="beta" unicode="&#x3b2;" horiz-adv-x="557" 
d="M72 502q0 71 28 119t73 70.5t98 22.5q59 0 103 -22t67 -60t23 -85q0 -106 -115 -158q70 -21 116 -70t46 -120q0 -63 -27.5 -111.5t-74 -75t-103.5 -26.5q-50 0 -92.5 21t-61.5 55v-266h-80v706zM391 93q39 38 39 104q0 49 -26 82.5t-67.5 50.5t-87.5 17h-24v69h23
q59 0 98 34t39 87q0 48 -31.5 77.5t-81.5 29.5q-49 0 -84.5 -35t-35.5 -98v-304q0 -47 19.5 -81.5t51.5 -52.5t70 -18q59 0 98 38z" />
    <glyph glyph-name="gamma" unicode="&#x3b3;" horiz-adv-x="507" 
d="M211 12l-196 484h89l149 -390l149 390h89l-195 -484v-216h-85v216z" />
    <glyph glyph-name="delta" unicode="&#x3b4;" horiz-adv-x="568" 
d="M165 13.5q-54 27.5 -86.5 81.5t-32.5 129q0 61 29 113.5t80.5 84.5t115.5 34q16 0 31 -5l-211 184v65h335v-65h-235l218 -192q55 -49 84 -97t29 -122q0 -70 -33 -124t-87.5 -84t-117.5 -30q-65 0 -119 27.5zM367.5 75.5q37.5 21.5 58.5 60t21 88.5q0 49 -22 88t-59 60.5
t-82 21.5t-82.5 -21.5t-59.5 -60.5t-22 -88q0 -50 21.5 -88.5t59 -60t83.5 -21.5t83.5 21.5z" />
    <glyph glyph-name="epsilon" unicode="&#x3b5;" horiz-adv-x="468" 
d="M132 8q-43 22 -64 57.5t-21 75.5q0 49 30 81.5t69 43.5q-37 15 -61.5 43t-24.5 70q0 36 20.5 65.5t60 47.5t93.5 18q81 0 127 -35.5t46 -93.5q0 -27 -12 -49l-64 24q4 9 4 21q0 31 -29.5 50.5t-72.5 19.5t-70 -20t-27 -52q0 -38 29 -59.5t88 -21.5v-62q-57 0 -92 -22
t-35 -65q0 -41 29.5 -67t81.5 -26q46 0 77 22t31 60q0 19 -5 32l70 23q12 -21 12 -53q0 -67 -50 -108.5t-135 -41.5q-62 0 -105 22z" />
    <glyph glyph-name="zeta" unicode="&#x3b6;" horiz-adv-x="474" 
d="M356 -70q15 17 15 33q0 18 -14.5 27.5t-40.5 9.5q-128 0 -199 58t-71 181q0 114 68.5 213.5t183.5 181.5h-246v66h340v-66q-80 -47 -139.5 -110t-92 -132.5t-32.5 -134.5q0 -89 48.5 -135.5t140.5 -46.5q64 -1 99.5 -26.5t35.5 -74.5q0 -25 -11.5 -46t-29.5 -41z" />
    <glyph glyph-name="eta" unicode="&#x3b7;" horiz-adv-x="570" 
d="M418 316q0 57 -33 89t-88 32q-38 0 -71.5 -21.5t-53.5 -59.5t-20 -85v-271h-80v496h80v-88q28 47 73.5 74.5t98.5 27.5q76 0 125 -44t49 -129v-541h-80v520z" />
    <glyph glyph-name="theta" unicode="&#x3b8;" horiz-adv-x="621" 
d="M171 29.5q-60 43.5 -92.5 125.5t-32.5 195q0 112 33.5 194.5t93.5 126t138 43.5t137.5 -43.5t93 -126t33.5 -194.5q0 -113 -32.5 -195t-92.5 -125.5t-139 -43.5q-80 0 -140 43.5zM492 386q-7 124 -55.5 189.5t-125.5 65.5t-126 -65.5t-56 -189.5h363zM436.5 124.5
q48.5 65.5 55.5 189.5h-363q7 -124 56 -189.5t126 -65.5t125.5 65.5z" />
    <glyph glyph-name="iota" unicode="&#x3b9;" horiz-adv-x="284" 
d="M72 123v373h80v-367q0 -37 15.5 -54.5t49.5 -17.5q19 0 33 5l7 -67q-27 -9 -55 -9q-130 0 -130 137z" />
    <glyph glyph-name="kappa" unicode="&#x3ba;" horiz-adv-x="502" 
d="M72 496h80v-213l191 213h100l-178 -194l208 -302h-93l-170 242l-58 -65v-177h-80v496z" />
    <glyph glyph-name="lambda" unicode="&#x3bb;" horiz-adv-x="501" 
d="M208 499l-32 82q-21 52 -62 52q-17 0 -39 -10l-13 74q27 10 55 10q47 0 78 -24t52 -76l248 -607h-90l-154 389l-154 -389h-91z" />
    <glyph glyph-name="uni03BC" unicode="&#x3bc;" horiz-adv-x="569" 
d="M72 496h80v-314q0 -59 32 -91t87 -32q40 0 73 22t52.5 61.5t19.5 89.5v264h81v-496h-81v87q-24 -46 -68.5 -73.5t-97.5 -27.5q-59 0 -100 28q2 -36 2 -63v-155h-80v700z" />
    <glyph glyph-name="nu" unicode="&#x3bd;" horiz-adv-x="494" 
d="M207 0l-199 496h86l153 -400l153 400h86l-199 -496h-80z" />
    <glyph glyph-name="xi" unicode="&#x3be;" horiz-adv-x="512" 
d="M354 -73q14 19 14 35q0 18 -13 25.5t-41 7.5q-121 0 -193.5 53t-72.5 154q0 68 41 114.5t98 67.5q-51 21 -81.5 62.5t-30.5 92.5q0 50 26 90t73 62.5t108 22.5q92 0 144 -42t52 -110q0 -28 -10 -56l-74 14q6 18 6 34q0 43 -31.5 66t-86.5 23q-58 0 -92.5 -30t-34.5 -80
q0 -33 18 -61t55.5 -45.5t92.5 -17.5v-67q-84 0 -136.5 -34.5t-52.5 -101.5q0 -64 49.5 -100.5t146.5 -36.5q63 0 94.5 -23.5t31.5 -66.5q0 -29 -11 -51t-34 -45z" />
    <glyph glyph-name="omicron" unicode="&#x3bf;" horiz-adv-x="597" 
d="M522 107.5q-36 -59.5 -95.5 -90.5t-128.5 -31t-128 31t-95 90.5t-36 140.5t36 140.5t95 90.5t128 31t128.5 -31t95.5 -90.5t36 -140.5t-36 -140.5zM389 83q41 24 64.5 67t23.5 98t-23.5 98t-64.5 67t-91 24q-49 0 -90 -24t-64.5 -67t-23.5 -98t23.5 -98t64.5 -67t90 -24
q50 0 91 24z" />
    <glyph glyph-name="pi" unicode="&#x3c0;" horiz-adv-x="646" 
d="M458.5 20.5q-32.5 34.5 -32.5 100.5v313h-212v-434h-80v434h-106v62h584v-62h-105v-306q0 -36 15 -53.5t47 -17.5q16 0 34 5l7 -67q-25 -9 -62 -9q-57 0 -89.5 34.5z" />
    <glyph glyph-name="rho" unicode="&#x3c1;" horiz-adv-x="604" 
d="M72 247q0 79 32 139t88 92t124 32q74 0 130.5 -32t87 -91.5t30.5 -138.5t-30.5 -138.5t-84.5 -91.5t-122 -32q-56 0 -103 24.5t-72 66.5v-281h-80v451zM402 83q38 24 59 67.5t21 97.5t-21 97.5t-59 67.5t-87 24q-47 0 -84 -24.5t-58 -68t-21 -96.5q0 -54 21 -97t58 -67.5
t84 -24.5q49 0 87 24z" />
    <glyph glyph-name="uni03C2" unicode="&#x3c2;" horiz-adv-x="545" 
d="M319 -99q15 13 21.5 23t6.5 22q0 34 -57 40q-69 8 -126 41.5t-90.5 90.5t-33.5 132q0 74 34.5 133.5t92.5 93t127 33.5q79 0 134 -36t81 -100l-62 -41q-24 53 -63.5 78t-89.5 25q-48 0 -87.5 -23t-62 -65t-22.5 -97q0 -82 50 -131t133 -63q69 -13 98.5 -37t29.5 -68
q0 -51 -64 -99z" />
    <glyph glyph-name="sigma" unicode="&#x3c3;" horiz-adv-x="624" 
d="M171 17q-59 31 -95 90.5t-36 140.5t36 140.5t96 90.5t131 31h292v-65h-138q42 -26 72 -79.5t30 -117.5q0 -81 -36 -140.5t-95.5 -90.5t-128.5 -31t-128 31zM390 83q41 24 64.5 67t23.5 98t-23.5 98t-64.5 67t-91 24q-49 0 -90 -24t-64.5 -67t-23.5 -98t23.5 -98t64.5 -67
t90 -24q50 0 91 24z" />
    <glyph glyph-name="tau" unicode="&#x3c4;" horiz-adv-x="424" 
d="M198 20.5q-36 34.5 -36 106.5v307h-142v62h371v-62h-149v-301q0 -76 69 -76q19 0 39 6l7 -67q-30 -10 -64 -10q-59 0 -95 34.5z" />
    <glyph glyph-name="upsilon" unicode="&#x3c5;" horiz-adv-x="559" 
d="M130 38.5q-58 52.5 -58 151.5v306h80v-312q0 -58 34 -91.5t94 -33.5t93.5 34t33.5 91v312h81v-306q0 -99 -58.5 -151.5t-149.5 -52.5q-92 0 -150 52.5z" />
    <glyph glyph-name="phi" unicode="&#x3c6;" horiz-adv-x="700" 
d="M310 0h-17q-67 0 -125 30t-93 86.5t-35 131.5q0 76 33.5 132t93 86t133.5 30h100q74 0 133.5 -30t93 -86t33.5 -132q0 -75 -35 -131.5t-93 -86.5t-125 -30h-17v-204h-80v204zM310 71v354h-11q-75 0 -126 -45.5t-51 -131.5t50.5 -131.5t125.5 -45.5h12zM402 71
q75 0 125.5 45.5t50.5 131.5t-51 131.5t-126 45.5h-11v-354h12z" />
    <glyph glyph-name="chi" unicode="&#x3c7;" horiz-adv-x="528" 
d="M410 -191q-25 20 -46 67l-91 203l-140 -283h-88l190 370l-105 234q-7 16 -16 22.5t-21 6.5q-21 0 -40 -16l-28 58q14 14 35.5 23t42.5 9q35 0 57 -15t37 -49l83 -182l115 239h85l-162 -327l118 -260q10 -24 22.5 -35t31.5 -11q17 0 35 11l19 -67q-29 -18 -67 -18
q-42 0 -67 20z" />
    <glyph glyph-name="psi" unicode="&#x3c8;" horiz-adv-x="657" 
d="M289 -14q-63 0 -112 26.5t-77 75t-28 113.5v295h78v-295q0 -64 37 -104t102 -40v439h78v-439q65 0 102.5 40t37.5 104v295h78v-295q0 -65 -28 -113.5t-77.5 -75t-112.5 -26.5v-190h-78v190z" />
    <glyph glyph-name="omega" unicode="&#x3c9;" horiz-adv-x="787" 
d="M110.5 52.5q-46.5 66.5 -46.5 175.5q0 78 21 152t57 130l71 -35q-34 -64 -51 -120t-17 -137q0 -75 27.5 -118.5t78.5 -43.5q48 0 76 38t28 100v150h78v-150q0 -62 27.5 -100t75.5 -38q51 0 79 43.5t28 118.5q0 81 -17 137.5t-52 119.5l71 35q36 -56 57 -130t21 -152
q0 -110 -46 -176t-137 -66q-108 0 -146 115q-39 -115 -147 -115q-90 0 -136.5 66.5z" />
    <glyph glyph-name="iotadieresis" unicode="&#x3ca;" horiz-adv-x="284" 
d="M72 123v373h80v-367q0 -37 15.5 -54.5t49.5 -17.5q19 0 33 5l7 -67q-27 -9 -55 -9q-130 0 -130 137zM-13 680h93v-92h-93v92zM146 680h92v-92h-92v92z" />
    <glyph glyph-name="upsilondieresis" unicode="&#x3cb;" horiz-adv-x="559" 
d="M130 38.5q-58 52.5 -58 151.5v306h80v-312q0 -58 34 -91.5t94 -33.5t93.5 34t33.5 91v312h81v-306q0 -99 -58.5 -151.5t-149.5 -52.5q-92 0 -150 52.5zM154 680h93v-92h-93v92zM313 680h92v-92h-92v92z" />
    <glyph glyph-name="omicrontonos" unicode="&#x3cc;" horiz-adv-x="597" 
d="M522 107.5q-36 -59.5 -95.5 -90.5t-128.5 -31t-128 31t-95 90.5t-36 140.5t36 140.5t95 90.5t128 31t128.5 -31t95.5 -90.5t36 -140.5t-36 -140.5zM389 83q41 24 64.5 67t23.5 98t-23.5 98t-64.5 67t-91 24q-49 0 -90 -24t-64.5 -67t-23.5 -98t23.5 -98t64.5 -67t90 -24
q50 0 91 24zM313 703h107l-108 -145h-66z" />
    <glyph glyph-name="upsilontonos" unicode="&#x3cd;" horiz-adv-x="559" 
d="M130 38.5q-58 52.5 -58 151.5v306h80v-312q0 -58 34 -91.5t94 -33.5t93.5 34t33.5 91v312h81v-306q0 -99 -58.5 -151.5t-149.5 -52.5q-92 0 -150 52.5zM292 700h104l-85 -145h-63z" />
    <glyph glyph-name="omegatonos" unicode="&#x3ce;" horiz-adv-x="787" 
d="M110.5 52.5q-46.5 66.5 -46.5 175.5q0 78 21 152t57 130l71 -35q-34 -64 -51 -120t-17 -137q0 -75 27.5 -118.5t78.5 -43.5q48 0 76 38t28 100v150h78v-150q0 -62 27.5 -100t75.5 -38q51 0 79 43.5t28 118.5q0 81 -17 137.5t-52 119.5l71 35q36 -56 57 -130t21 -152
q0 -110 -46 -176t-137 -66q-108 0 -146 115q-39 -115 -147 -115q-90 0 -136.5 66.5zM406 700h104l-85 -145h-63z" />
    <glyph glyph-name="uni0400" unicode="&#x400;" horiz-adv-x="585" 
d="M518 700v-74h-353v-227h325v-74h-325v-251h356v-74h-440v700h437zM180 907h107l67 -145h-66z" />
    <glyph glyph-name="uni0401" unicode="&#x401;" horiz-adv-x="585" 
d="M518 700v-74h-353v-227h325v-74h-325v-251h356v-74h-440v700h437zM178 884h93v-92h-93v92zM337 884h92v-92h-92v92z" />
    <glyph glyph-name="uni0402" unicode="&#x402;" horiz-adv-x="746" 
d="M644.5 362q62.5 -54 62.5 -151q0 -68 -28.5 -117t-77 -75t-106.5 -26q-37 0 -62 7v73q24 -7 61 -7q55 0 92 36t37 105q0 68 -41 101.5t-103 33.5q-88 0 -170 -41v-301h-84v625h-207v75h517v-75h-226v-248q46 21 87.5 30t85.5 9q100 0 162.5 -54z" />
    <glyph glyph-name="uni0403" unicode="&#x403;" horiz-adv-x="547" 
d="M81 700h448v-74h-364v-626h-84v700zM340 907h107l-108 -145h-66z" />
    <glyph glyph-name="uni0404" unicode="&#x404;" horiz-adv-x="747" 
d="M218.5 33.5q-77.5 47.5 -121.5 130.5t-44 186q0 102 46.5 185.5t126 131t172.5 47.5q100 0 174 -43t116 -117l-66 -45q-43 68 -97.5 99t-128.5 31q-63 0 -118 -31t-91.5 -87t-45.5 -126h332v-76h-334q6 -74 40.5 -133t90.5 -92t125 -33q77 0 132 32t98 98l66 -42
q-53 -81 -122 -122t-176 -41q-97 0 -174.5 47.5z" />
    <glyph glyph-name="uni0405" unicode="&#x405;" horiz-adv-x="644" 
d="M212 447.5q48 -31.5 145 -50.5q112 -21 169.5 -70.5t57.5 -130.5q0 -58 -32 -106t-89.5 -76t-131.5 -28q-109 0 -182 51.5t-99 129.5l74 33q24 -63 75 -102t129 -39q52 0 91 18t60 48t21 65q0 58 -47.5 91t-140.5 50q-229 42 -229 200q0 53 30 95t83 65t120 23
q180 0 252 -145l-68 -40q-62 112 -185 112q-66 0 -108.5 -29t-42.5 -80q0 -53 48 -84.5z" />
    <glyph glyph-name="uni0406" unicode="&#x406;" horiz-adv-x="246" 
d="M165 700v-700h-84v700h84z" />
    <glyph glyph-name="uni0407" unicode="&#x407;" horiz-adv-x="246" 
d="M165 700v-700h-84v700h84zM-2 884h93v-92h-93v92zM157 884h92v-92h-92v92z" />
    <glyph glyph-name="uni0408" unicode="&#x408;" horiz-adv-x="532" 
d="M411.5 44.5q-57.5 -58.5 -153.5 -58.5q-95 0 -152.5 56.5t-57.5 154.5l84 -5q0 -63 35.5 -97t90.5 -34q59 0 93 36.5t34 103.5v499h84v-499q0 -98 -57.5 -156.5z" />
    <glyph glyph-name="uni0409" unicode="&#x409;" horiz-adv-x="1075" 
d="M33 0v78q21 -8 41 -8q32 0 49.5 28.5t23.5 111.5q11 157 16 301l1 24l8 165h426v-264h182q112 0 178.5 -56.5t66.5 -161.5t-66.5 -161.5t-178.5 -56.5h-266v626h-268l-4 -95l-5 -98q-10 -208 -12 -234q-7 -113 -42 -159.5t-101 -46.5q-25 0 -49 7zM769 74q80 0 126 34.5
t46 109.5t-46 110t-126 35h-171v-289h171z" />
    <glyph glyph-name="uni040A" unicode="&#x40a;" horiz-adv-x="1052" 
d="M81 700h84v-285h342v285h84v-285h170q110 0 175.5 -53.5t65.5 -154.5q0 -102 -65.5 -154.5t-175.5 -52.5h-254v340h-342v-340h-84v700zM749 74q169 0 169 133t-169 133h-158v-266h158z" />
    <glyph glyph-name="uni040B" unicode="&#x40b;" horiz-adv-x="778" 
d="M646.5 361q61.5 -55 61.5 -157v-204h-84v194q0 75 -42.5 111.5t-105.5 36.5q-85 0 -167 -41v-301h-84v625h-207v75h517v-75h-226v-248q82 39 175 39q101 0 162.5 -55z" />
    <glyph glyph-name="uni040C" unicode="&#x40c;" horiz-adv-x="591" 
d="M570 0h-108l-235 261l-62 69v-330h-84v700h84v-316l39 44l26 29l218 243h110l-313 -340zM321 907h107l-108 -145h-66z" />
    <glyph glyph-name="uni040D" unicode="&#x40d;" horiz-adv-x="692" 
d="M81 700h81v-586q6 14 30 55l332 531h87v-700h-81v587q-6 -14 -30 -55l-332 -532h-87v700zM224 907h107l67 -145h-66z" />
    <glyph glyph-name="uni040E" unicode="&#x40e;" horiz-adv-x="570" 
d="M560 700l-236 -562q-38 -90 -77 -121t-92 -31q-21 0 -41 4.5t-33 10.5v84q36 -18 72 -18q21 0 35.5 6.5t29.5 27t31 61.5l10 25l-248 513h93l197 -412l169 412h90zM224.5 801q-28.5 29 -28.5 75h63q0 -20 11 -32.5t29 -12.5t28.5 12.5t10.5 32.5h63q0 -46 -28 -75
t-74 -29t-74.5 29z" />
    <glyph glyph-name="uni040F" unicode="&#x40f;" horiz-adv-x="670" 
d="M295 0h-214v700h84v-625h340v625h84v-700h-215v-126h-79v126z" />
    <glyph glyph-name="uni0410" unicode="&#x410;" horiz-adv-x="658" 
d="M286 700h86l280 -700h-89l-80 206h-308l-80 -206h-89zM455 278l-107 276q-11 25 -19 53q-8 -28 -19 -53l-107 -276h252z" />
    <glyph glyph-name="uni0411" unicode="&#x411;" horiz-adv-x="635" 
d="M81 700h446v-73h-362v-210h180q69 0 123 -25t84 -72t30 -112q0 -97 -65.5 -152.5t-171.5 -55.5h-264v700zM333 74q76 0 120.5 33t44.5 102t-44.5 101.5t-120.5 32.5h-168v-269h168z" />
    <glyph glyph-name="uni0412" unicode="&#x412;" horiz-adv-x="635" 
d="M336 700q67 0 117 -21.5t76.5 -59t26.5 -85.5q0 -59 -34 -100t-82 -59q142 -44 142 -173q0 -60 -32.5 -106t-88 -71t-121.5 -25h-259v700h255zM332 408q65 0 103 26.5t38 82.5t-38 83t-103 27h-167v-219h167zM329 74q77 0 123 32.5t46 97.5q0 66 -46 98.5t-123 32.5h-164
v-261h164z" />
    <glyph glyph-name="uni0413" unicode="&#x413;" horiz-adv-x="547" 
d="M81 700h448v-74h-364v-626h-84v700z" />
    <glyph glyph-name="uni0414" unicode="&#x414;" horiz-adv-x="688" 
d="M15 75h56q33 62 47 122t19 153l19 350h420v-625h86v-201h-79v126h-489v-126h-79v201zM492 75v551h-259l-15 -284q-5 -94 -18 -151.5t-42 -115.5h334z" />
    <glyph glyph-name="uni0415" unicode="&#x415;" horiz-adv-x="585" 
d="M518 700v-74h-353v-227h325v-74h-325v-251h356v-74h-440v700h437z" />
    <glyph glyph-name="uni0416" unicode="&#x416;" horiz-adv-x="950" 
d="M929 0h-109l-241 261q-22 23 -62 69v-330h-84v330q-40 -46 -62 -69l-241 -261h-109l331 360l-318 340h109l225 -243q37 -39 65 -73v316h84v-316q28 34 65 73l225 243h109l-318 -340z" />
    <glyph glyph-name="uni0417" unicode="&#x417;" horiz-adv-x="628" 
d="M540.5 311q34.5 -45 34.5 -108q0 -65 -32.5 -114t-91.5 -76t-135 -27q-109 0 -177 53.5t-85 139.5l78 28q6 -39 29.5 -72.5t63.5 -53.5t91 -20q79 0 127 37t48 103q0 64 -47.5 97.5t-126.5 33.5h-67v74h68q68 0 106.5 33t38.5 89q0 52 -38 81.5t-105 29.5
q-72 0 -113 -31.5t-54 -86.5l-77 17q17 79 78.5 127.5t165.5 48.5q72 0 122.5 -23.5t76 -64.5t25.5 -92q0 -56 -26 -96t-75 -61q63 -21 97.5 -66z" />
    <glyph glyph-name="uni0418" unicode="&#x418;" horiz-adv-x="692" 
d="M81 700h81v-586q6 14 30 55l332 531h87v-700h-81v587q-6 -14 -30 -55l-332 -532h-87v700z" />
    <glyph glyph-name="uni0419" unicode="&#x419;" horiz-adv-x="692" 
d="M81 700h81v-586q6 14 30 55l332 531h87v-700h-81v587q-6 -14 -30 -55l-332 -532h-87v700zM272.5 801q-28.5 29 -28.5 75h63q0 -20 11 -32.5t29 -12.5t28.5 12.5t10.5 32.5h63q0 -46 -28 -75t-74 -29t-74.5 29z" />
    <glyph glyph-name="uni041A" unicode="&#x41a;" horiz-adv-x="591" 
d="M570 0h-108l-235 261l-62 69v-330h-84v700h84v-316l39 44l26 29l218 243h110l-313 -340z" />
    <glyph glyph-name="uni041B" unicode="&#x41b;" horiz-adv-x="700" 
d="M33 0v78q21 -8 41 -8q32 0 49.5 28.5t23.5 111.5q11 157 16 301l1 24l8 165h447v-700h-84v626h-289l-4 -95l-5 -98q-10 -208 -12 -234q-8 -113 -42.5 -159.5t-100.5 -46.5q-25 0 -49 7z" />
    <glyph glyph-name="uni041C" unicode="&#x41c;" horiz-adv-x="849" 
d="M173 700l251 -621l252 621h92v-700h-82v539l-35 -99l-183 -440h-87l-183 439l-36 100v-539h-81v700h92z" />
    <glyph glyph-name="uni041D" unicode="&#x41d;" horiz-adv-x="685" 
d="M165 700v-305h355v305h84v-700h-84v319h-355v-319h-84v700h84z" />
    <glyph glyph-name="uni041E" unicode="&#x41e;" horiz-adv-x="784" 
d="M686.5 160.5q-44.5 -82.5 -122 -128.5t-172.5 -46t-172.5 46t-122 128.5t-44.5 189.5t44.5 189.5t122 128.5t172.5 46t172.5 -46t122 -128.5t44.5 -189.5t-44.5 -189.5zM523 97q58 36 91 101.5t33 151.5t-33 151.5t-91 101.5t-131 36t-131 -36t-91 -101.5t-33 -151.5
t33 -151.5t91 -101.5t131 -36t131 36z" />
    <glyph glyph-name="uni041F" unicode="&#x41f;" horiz-adv-x="670" 
d="M81 700h508v-700h-84v625h-340v-625h-84v700z" />
    <glyph glyph-name="uni0420" unicode="&#x420;" horiz-adv-x="670" 
d="M81 700h293q113 0 179.5 -58.5t66.5 -160.5t-66.5 -161t-179.5 -59h-209v-261h-84v700zM372 335q81 0 122.5 38t41.5 108q0 69 -41.5 107t-122.5 38h-207v-291h207z" />
    <glyph glyph-name="uni0421" unicode="&#x421;" horiz-adv-x="747" 
d="M569 27q-69 -41 -176 -41q-97 0 -174.5 47.5t-121.5 130.5t-44 186q0 102 46.5 185.5t126 131t172.5 47.5q100 0 174 -43t116 -117l-66 -45q-43 68 -97.5 99t-128.5 31q-70 0 -129.5 -37.5t-94.5 -103.5t-35 -148t33 -148t92 -103.5t133 -37.5q77 0 132 32t98 98l66 -42
q-53 -81 -122 -122z" />
    <glyph glyph-name="uni0422" unicode="&#x422;" horiz-adv-x="553" 
d="M235 625h-217v75h517v-75h-216v-625h-84v625z" />
    <glyph glyph-name="uni0423" unicode="&#x423;" horiz-adv-x="570" 
d="M560 700l-236 -562q-38 -90 -77 -121t-92 -31q-21 0 -41 4.5t-33 10.5v84q36 -18 72 -18q21 0 35.5 6.5t29.5 27t31 61.5l10 25l-248 513h93l197 -412l169 412h90z" />
    <glyph glyph-name="uni0424" unicode="&#x424;" horiz-adv-x="801" 
d="M358 75h-15q-80 0 -148 33t-108.5 95.5t-40.5 146.5t40.5 146.5t108.5 95.5t148 33h15v88h85v-88h15q80 0 148 -33t108 -95.5t40 -146.5t-40 -146.5t-108 -95.5t-148 -33h-15v-88h-85v88zM358 149v402h-21q-59 0 -106.5 -24t-75 -69.5t-27.5 -107.5t27.5 -107.5t75 -69.5
t106.5 -24h21zM464 149q58 0 105.5 24t75 69.5t27.5 107.5t-27.5 107.5t-75 69.5t-105.5 24h-21v-402h21z" />
    <glyph glyph-name="uni0425" unicode="&#x425;" horiz-adv-x="572" 
d="M447 700h89l-203 -319l235 -381h-92l-191 311l-189 -311h-93l236 376l-203 324h93l156 -259z" />
    <glyph glyph-name="uni0426" unicode="&#x426;" horiz-adv-x="705" 
d="M596 0h-515v700h84v-625h340v625h84v-625h86v-201h-79v126z" />
    <glyph glyph-name="uni0427" unicode="&#x427;" horiz-adv-x="657" 
d="M492 290q-70 -31 -171 -31q-113 0 -181.5 62.5t-68.5 173.5v205h84v-201q0 -77 44.5 -121.5t122.5 -44.5q103 0 170 33v334h84v-700h-84v290z" />
    <glyph glyph-name="uni0428" unicode="&#x428;" horiz-adv-x="917" 
d="M81 700h83v-625h252v625h84v-625h252v625h84v-700h-755v700z" />
    <glyph glyph-name="uni0429" unicode="&#x429;" horiz-adv-x="952" 
d="M843 0h-762v700h83v-625h252v625h84v-625h252v625h84v-625h86v-201h-79v126z" />
    <glyph glyph-name="uni042A" unicode="&#x42a;" horiz-adv-x="741" 
d="M173 627h-155v73h239v-264h189q112 0 178.5 -56.5t66.5 -161.5t-66.5 -161.5t-178.5 -56.5h-273v627zM435 74q80 0 126 34.5t46 109.5t-46 110t-126 35h-178v-289h178z" />
    <glyph glyph-name="uni042B" unicode="&#x42b;" horiz-adv-x="866" 
d="M81 700h84v-264h189q111 0 178 -56.5t67 -161.5t-67 -161.5t-178 -56.5h-273v700zM343 74q80 0 126 35t46 109q0 75 -46 110t-126 35h-178v-289h178zM785 700v-700h-84v700h84z" />
    <glyph glyph-name="uni042C" unicode="&#x42c;" horiz-adv-x="648" 
d="M81 700h84v-264h189q111 0 178 -56.5t67 -161.5t-67 -161.5t-178 -56.5h-273v700zM343 74q80 0 126 35t46 109q0 75 -46 110t-126 35h-178v-289h178z" />
    <glyph glyph-name="uni042D" unicode="&#x42d;" horiz-adv-x="747" 
d="M177.5 27q-68.5 41 -122.5 122l67 42q43 -66 98 -98t132 -32q69 0 125 33t90 92t41 133h-334v76h331q-9 70 -45 126t-91 87t-118 31q-75 0 -129.5 -31t-96.5 -99l-66 45q42 74 115.5 117t174.5 43q93 0 172.5 -47.5t126 -131t46.5 -185.5q0 -103 -44 -186t-121.5 -130.5
t-174.5 -47.5q-108 0 -176.5 41z" />
    <glyph glyph-name="uni042E" unicode="&#x42e;" horiz-adv-x="965" 
d="M433.5 26.5q-69.5 40.5 -111.5 114t-49 171.5h-108v-312h-84v700h84v-312h108q7 98 49 171.5t111.5 114t157.5 40.5q92 0 165 -45.5t115 -128.5t42 -190t-42 -190t-115 -128.5t-165 -45.5q-88 0 -157.5 40.5zM713 96.5q54 35.5 84.5 101t30.5 152.5t-30.5 152.5t-84 101
t-122.5 35.5q-68 0 -122 -35.5t-84 -101t-30 -152.5t30 -152.5t84 -101t122 -35.5t122 35.5z" />
    <glyph glyph-name="uni042F" unicode="&#x42f;" horiz-adv-x="630" 
d="M549 700v-700h-84v296h-162l-176 -296h-91l180 304q-82 16 -124.5 67.5t-42.5 129.5q0 57 27 102.5t78 71t120 25.5h275zM465 627h-181q-73 0 -112 -32.5t-39 -96.5t39 -96.5t112 -32.5h181v258z" />
    <glyph glyph-name="uni0430" unicode="&#x430;" horiz-adv-x="525" 
d="M387 98q-20 -50 -68.5 -81t-103.5 -31q-75 0 -120.5 42.5t-45.5 109.5q0 69 47 108.5t122 50.5l168 26v25q0 48 -30.5 73t-86.5 25q-55 0 -86.5 -23.5t-31.5 -57.5q0 -8 2 -14l-71 -15q-6 14 -6 34q0 38 24.5 70t68.5 51t100 19q95 0 146 -43t51 -121v-222q0 -41 3.5 -68
t11.5 -56h-80q-14 44 -14 98zM311 81.5q36 25.5 55.5 68t19.5 91.5v20l-152 -24q-51 -9 -78 -33.5t-27 -62.5t27 -61.5t71 -23.5q48 0 84 25.5z" />
    <glyph glyph-name="uni0431" unicode="&#x431;" horiz-adv-x="589" 
d="M112 73q-66 87 -66 235q0 140 52 234q38 71 103.5 102.5t147.5 38.5q81 4 108 35l47 -47q-22 -29 -58.5 -42t-103.5 -18q-103 -9 -160 -68.5t-70 -185.5q28 57 80 89.5t123 32.5q65 0 117 -31t81.5 -87t29.5 -127q0 -72 -31.5 -128.5t-86.5 -88t-125 -31.5
q-122 0 -188 87zM384.5 78.5q37.5 22.5 59 63t21.5 91.5t-21.5 91t-59 62.5t-84.5 22.5t-84 -22.5t-58.5 -62.5t-21.5 -91t21.5 -91.5t58.5 -63t84 -22.5t84.5 22.5z" />
    <glyph glyph-name="uni0432" unicode="&#x432;" horiz-adv-x="516" 
d="M70 496h218q73 0 115 -35.5t42 -88.5q0 -39 -20 -67t-54 -44q41 -12 67 -43t26 -77q0 -61 -48 -101t-125 -40h-221v496zM286 290q38 0 60 18t22 52q0 35 -21.5 53t-57.5 18h-139v-141h136zM294 65q42 0 66 21.5t24 59.5q0 37 -24 58.5t-66 21.5h-144v-161h144z" />
    <glyph glyph-name="uni0433" unicode="&#x433;" horiz-adv-x="412" 
d="M70 496h306v-71h-225v-425h-81v496z" />
    <glyph glyph-name="uni0434" unicode="&#x434;" horiz-adv-x="561" 
d="M13 71h47q20 36 29.5 81t13.5 116l13 228h357v-425h71v-187h-74v116h-383v-116h-74v187zM392 71v354h-208l-9 -159q-4 -76 -12 -116.5t-26 -78.5h255z" />
    <glyph glyph-name="uni0435" unicode="&#x435;" horiz-adv-x="566" 
d="M168.5 106q46.5 -51 119.5 -51q58 0 91.5 22.5t64.5 65.5l61 -34q-35 -58 -88 -90.5t-132 -32.5q-68 0 -124 33.5t-89 93.5t-33 135t33.5 135t90.5 93.5t126 33.5q72 0 126 -31.5t83 -88t29 -128.5v-27h-409q4 -78 50.5 -129zM177.5 404q-47.5 -41 -59.5 -104h328
q-4 68 -49 106.5t-109 38.5q-63 0 -110.5 -41z" />
    <glyph glyph-name="uni0436" unicode="&#x436;" horiz-adv-x="699" 
d="M581 0l-191 230v-230h-81v229l-191 -229h-98l218 262l-211 234h104l178 -204v204h81v-206l178 206h104l-211 -234l218 -262h-98z" />
    <glyph glyph-name="uni0437" unicode="&#x437;" horiz-adv-x="493" 
d="M416 219q27 -29 27 -76q0 -43 -23 -78.5t-68 -57t-109 -21.5q-89 0 -141 41.5t-52 108.5q0 29 10 51l69 -22q-4 -14 -4 -29q0 -40 34 -62t84 -22q56 0 88.5 26t32.5 66q0 39 -30 60.5t-86 21.5h-42v67h41q49 0 74 21.5t25 56.5q0 34 -26 53.5t-75 19.5q-50 0 -78 -19
t-28 -47q0 -21 3 -24l-68 -24q-8 24 -8 46q0 59 48.5 96.5t130.5 37.5q87 0 133 -37.5t46 -96.5q0 -39 -22 -68.5t-61 -45.5q48 -14 75 -43z" />
    <glyph glyph-name="uni0438" unicode="&#x438;" horiz-adv-x="565" 
d="M70 496h79v-390l257 390h89v-496h-79v390l-257 -390h-89v496z" />
    <glyph glyph-name="uni0439" unicode="&#x439;" horiz-adv-x="565" 
d="M70 496h79v-390l257 390h89v-496h-79v390l-257 -390h-89v496zM208.5 597q-28.5 29 -28.5 75h63q0 -20 11 -32.5t29 -12.5t28.5 12.5t10.5 32.5h63q0 -46 -28 -75t-74 -29t-74.5 29z" />
    <glyph glyph-name="uni043A" unicode="&#x43a;" horiz-adv-x="482" 
d="M361 0l-210 231v-231h-81v496h81v-205l199 205h101l-228 -235l239 -261h-101z" />
    <glyph glyph-name="uni043B" unicode="&#x43b;" horiz-adv-x="544" 
d="M20 0v72q15 -7 34 -7q18 0 29 9.5t17.5 36t8.5 77.5l18 308h347v-496h-81v425h-196l-13 -242q-4 -72 -17 -113t-39 -59t-71 -18q-18 0 -37 7z" />
    <glyph glyph-name="uni043C" unicode="&#x43c;" horiz-adv-x="681" 
d="M70 496h116l155 -407l155 407h115v-496h-78v389l-155 -389h-75l-154 390v-390h-79v496z" />
    <glyph glyph-name="uni043D" unicode="&#x43d;" horiz-adv-x="557" 
d="M70 496h81v-201h255v201h81v-496h-81v225h-255v-225h-81v496z" />
    <glyph glyph-name="uni043E" unicode="&#x43e;" horiz-adv-x="597" 
d="M522 107.5q-36 -59.5 -95.5 -90.5t-128.5 -31t-128 31t-95 90.5t-36 140.5t36 140.5t95 90.5t128 31t128.5 -31t95.5 -90.5t36 -140.5t-36 -140.5zM389 83q41 24 64.5 67t23.5 98t-23.5 98t-64.5 67t-91 24q-49 0 -90 -24t-64.5 -67t-23.5 -98t23.5 -98t64.5 -67t90 -24
q50 0 91 24z" />
    <glyph glyph-name="uni043F" unicode="&#x43f;" horiz-adv-x="549" 
d="M70 496h409v-496h-80v425h-248v-425h-81v496z" />
    <glyph glyph-name="uni0440" unicode="&#x440;" horiz-adv-x="603" 
d="M152 496v-90q25 45 73 74.5t107 29.5q65 0 118 -33.5t83.5 -93t30.5 -135.5q0 -75 -30.5 -135t-84 -93.5t-121.5 -33.5q-57 0 -103.5 25t-72.5 69v-284h-80v700h80zM227 412.5q-38 -24.5 -59.5 -67.5t-21.5 -97t21.5 -97t59.5 -67.5t87 -24.5t87 24t59.5 67.5t21.5 97.5
t-21.5 97.5t-59.5 67.5t-87 24t-87 -24.5z" />
    <glyph glyph-name="uni0441" unicode="&#x441;" horiz-adv-x="542" 
d="M420 19.5q-54 -33.5 -127 -33.5q-72 0 -130 33.5t-91 93.5t-33 135t34.5 135t92.5 93.5t127 33.5q77 0 131.5 -32.5t83.5 -92.5l-65 -39q-25 44 -63.5 67t-85.5 23q-48 0 -87.5 -23t-62.5 -65.5t-23 -99.5q0 -56 22.5 -98.5t62 -66t88.5 -23.5q53 0 88.5 22.5t64.5 66.5
l61 -37q-34 -59 -88 -92.5z" />
    <glyph glyph-name="uni0442" unicode="&#x442;" horiz-adv-x="463" 
d="M191 425h-162v71h406v-71h-163v-425h-81v425z" />
    <glyph glyph-name="uni0443" unicode="&#x443;" horiz-adv-x="500" 
d="M37 -194v79q27 -12 43.5 -16.5t33.5 -4.5q21 0 35.5 12.5t25.5 38.5l33 84l-203 497h91l155 -388l154 388h89l-248 -606q-21 -53 -52 -76.5t-79 -23.5q-46 0 -78 16z" />
    <glyph glyph-name="uni0444" unicode="&#x444;" horiz-adv-x="678" 
d="M606 120.5q-33 -56.5 -92 -91t-135 -41.5v-192h-80v192q-76 7 -135 41.5t-92 91t-33 127.5t33 127.5t92 91t135 41.5v192h80v-192q76 -7 135 -41.5t92 -91t33 -127.5t-33 -127.5zM167.5 120q47.5 -49 131.5 -59v374q-84 -10 -131.5 -59t-47.5 -128t47.5 -128zM510.5 120
q47.5 49 47.5 128t-47.5 128t-131.5 59v-374q84 10 131.5 59z" />
    <glyph glyph-name="uni0445" unicode="&#x445;" horiz-adv-x="447" 
d="M331 496h91l-151 -228l175 -268h-90l-132 203l-131 -203h-94l181 264l-153 232h92l105 -168z" />
    <glyph glyph-name="uni0446" unicode="&#x446;" horiz-adv-x="567" 
d="M477 0h-407v496h81v-425h248v425h80v-425h72v-187h-74v116z" />
    <glyph glyph-name="uni0447" unicode="&#x447;" horiz-adv-x="533" 
d="M385 203q-42 -16 -73.5 -23.5t-69.5 -7.5q-81 0 -130 49.5t-49 147.5v127h78v-128q0 -62 28.5 -94t86.5 -32q36 0 65 7.5t64 23.5v223h78v-496h-78v203z" />
    <glyph glyph-name="uni0448" unicode="&#x448;" horiz-adv-x="770" 
d="M70 496h81v-425h194v425h80v-425h194v425h81v-496h-630v496z" />
    <glyph glyph-name="uni0449" unicode="&#x449;" horiz-adv-x="788" 
d="M698 0h-628v496h81v-425h194v425h80v-425h194v425h81v-425h71v-187h-73v116z" />
    <glyph glyph-name="uni044A" unicode="&#x44a;" horiz-adv-x="574" 
d="M150 431h-133v65h213v-178h128q84 0 131.5 -42t47.5 -116t-47.5 -117t-131.5 -43h-208v431zM361 65q45 0 71 25.5t26 69.5q0 43 -26 68.5t-71 25.5h-131v-189h131z" />
    <glyph glyph-name="uni044B" unicode="&#x44b;" horiz-adv-x="690" 
d="M70 496h81v-178h128q84 0 131.5 -42t47.5 -116t-47.5 -117t-131.5 -43h-209v496zM281 65q45 0 71 25.5t26 69.5q0 43 -26 68.5t-71 25.5h-130v-189h130zM620 496v-496h-81v496h81z" />
    <glyph glyph-name="uni044C" unicode="&#x44c;" horiz-adv-x="494" 
d="M70 496h81v-178h128q84 0 131.5 -42t47.5 -116t-47.5 -117t-131.5 -43h-209v496zM281 65q45 0 71 25.5t26 69.5q0 43 -26 68.5t-71 25.5h-130v-189h130z" />
    <glyph glyph-name="uni044D" unicode="&#x44d;" horiz-adv-x="534" 
d="M120.5 21.5q-56.5 35.5 -88.5 97.5l62 40q27 -49 65 -75.5t97 -26.5q67 0 107.5 41t49.5 117h-222v67h222q-10 74 -53 115.5t-109 41.5q-100 0 -147 -87l-62 37q30 58 83.5 89.5t126.5 31.5q72 0 127 -33t85.5 -92.5t30.5 -136.5q0 -76 -30.5 -136t-85 -93t-123.5 -33
q-79 0 -135.5 35.5z" />
    <glyph glyph-name="uni044E" unicode="&#x44e;" horiz-adv-x="749" 
d="M354.5 12.5q-52.5 26.5 -87 78t-41.5 122.5h-77v-213h-79v496h79v-213h77q7 71 41.5 122.5t87 78t113.5 26.5q66 0 121.5 -31t88.5 -90t33 -141t-33 -141t-88.5 -90t-121.5 -31q-61 0 -113.5 26.5zM550.5 83q36.5 24 57.5 67t21 98t-21 98t-57.5 67t-82.5 24t-83 -24
t-58 -67t-21 -98t21 -98t58 -67t83 -24t82.5 24z" />
    <glyph glyph-name="uni044F" unicode="&#x44f;" horiz-adv-x="496" 
d="M426 496v-496h-79v192h-96l-121 -192h-87l127 202q-54 12 -84.5 48.5t-30.5 93.5q0 68 44 110t120 42h207zM347 429h-129q-38 0 -62.5 -22t-24.5 -63t25 -63t66 -22h125v170z" />
    <glyph glyph-name="uni0450" unicode="&#x450;" horiz-adv-x="566" 
d="M168.5 106q46.5 -51 119.5 -51q58 0 91.5 22.5t64.5 65.5l61 -34q-35 -58 -88 -90.5t-132 -32.5q-68 0 -124 33.5t-89 93.5t-33 135t33.5 135t90.5 93.5t126 33.5q72 0 126 -31.5t83 -88t29 -128.5v-27h-409q4 -78 50.5 -129zM177.5 404q-47.5 -41 -59.5 -104h328
q-4 68 -49 106.5t-109 38.5q-63 0 -110.5 -41zM158 703h107l67 -145h-66z" />
    <glyph glyph-name="uni0451" unicode="&#x451;" horiz-adv-x="566" 
d="M168.5 106q46.5 -51 119.5 -51q58 0 91.5 22.5t64.5 65.5l61 -34q-35 -58 -88 -90.5t-132 -32.5q-68 0 -124 33.5t-89 93.5t-33 135t33.5 135t90.5 93.5t126 33.5q72 0 126 -31.5t83 -88t29 -128.5v-27h-409q4 -78 50.5 -129zM177.5 404q-47.5 -41 -59.5 -104h328
q-4 68 -49 106.5t-109 38.5q-63 0 -110.5 -41zM162 680h93v-92h-93v92zM321 680h92v-92h-92v92z" />
    <glyph glyph-name="uni0452" unicode="&#x452;" horiz-adv-x="578" 
d="M322 -202v73q26 -9 47 -9q28 0 42.5 18t14.5 52v384q0 58 -32.5 89.5t-88.5 31.5q-39 0 -74 -22t-56 -61t-21 -87v-267h-81v571h-63v64h63v65h81v-65h162v-64h-162v-166q27 49 74 77t104 28q81 0 127.5 -46t46.5 -128v-400q0 -68 -30.5 -107.5t-95.5 -39.5q-35 0 -58 9z
" />
    <glyph glyph-name="uni0453" unicode="&#x453;" horiz-adv-x="412" 
d="M70 496h306v-71h-225v-425h-81v496zM251 703h107l-108 -145h-66z" />
    <glyph glyph-name="uni0454" unicode="&#x454;" horiz-adv-x="530" 
d="M154.5 19q-54.5 33 -85 92.5t-30.5 136.5q0 76 32 136t88 93t126 33q76 0 129.5 -31t80.5 -89l-61 -39q-21 44 -60 66t-89 22q-66 0 -110.5 -42t-53.5 -115h224v-67h-224q7 -74 50.5 -116t109.5 -42q57 0 92 23t61 69l61 -38q-67 -125 -216 -125q-70 0 -124.5 33z" />
    <glyph glyph-name="uni0455" unicode="&#x455;" horiz-adv-x="482" 
d="M178.5 324q32.5 -20 98.5 -33q81 -16 122.5 -51t41.5 -96q0 -42 -22 -78t-64 -58t-100 -22q-80 0 -132.5 33t-76.5 85l67 42q19 -40 56 -65.5t87 -25.5t79 23t29 62q0 36 -30 57t-94 33q-77 14 -122 50t-45 97q0 60 49 96.5t121 36.5q69 0 111.5 -24t69.5 -71l-57 -40
q-39 69 -123 69q-42 0 -70 -18t-28 -49q0 -33 32.5 -53z" />
    <glyph glyph-name="uni0456" unicode="&#x456;" horiz-adv-x="223" 
d="M152 496v-496h-81v496h81zM64 680h95v-97h-95v97z" />
    <glyph glyph-name="uni0457" unicode="&#x457;" horiz-adv-x="223" 
d="M152 496v-496h-81v496h81zM2 680h87v-97h-87v97zM133 680h88v-97h-88v97z" />
    <glyph glyph-name="uni0458" unicode="&#x458;" horiz-adv-x="224" 
d="M160 680v-97h-95v97h95zM15 -138q57 0 57 70v564h81v-560q0 -68 -31 -107.5t-95 -39.5q-34 0 -63 9l11 72q19 -8 40 -8z" />
    <glyph glyph-name="uni0459" unicode="&#x459;" horiz-adv-x="801" 
d="M20 0v72q14 -7 34 -7q18 0 29 9.5t17.5 36t8.5 77.5l18 308h330v-178h128q84 0 131.5 -42t47.5 -116t-47.5 -117t-131.5 -43h-208v425h-180l-13 -242q-4 -72 -17 -113t-39 -59t-71 -18q-21 0 -37 7zM588 65q45 0 71 25.5t26 69.5q0 43 -26 68.5t-71 25.5h-131v-189h131z
" />
    <glyph glyph-name="uni045A" unicode="&#x45a;" horiz-adv-x="800" 
d="M70 496h79v-192h238v192h78v-192h130q78 0 123 -41t45 -111t-45 -111t-123 -41h-208v234h-238v-234h-79v496zM594 65q42 0 66 23t24 63t-24 62.5t-66 22.5h-129v-171h129z" />
    <glyph glyph-name="uni045B" unicode="&#x45b;" horiz-adv-x="573" 
d="M456.5 464q46.5 -46 46.5 -128v-336h-80v316q0 58 -32.5 89.5t-88.5 31.5q-39 0 -74 -22t-56 -61t-21 -87v-267h-81v571h-62v64h62v65h81v-65h163v-64h-163v-166q27 49 74 77t104 28q81 0 127.5 -46z" />
    <glyph glyph-name="uni045C" unicode="&#x45c;" horiz-adv-x="482" 
d="M361 0l-210 231v-231h-81v496h81v-205l199 205h101l-228 -235l239 -261h-101zM264 703h107l-108 -145h-66z" />
    <glyph glyph-name="uni045D" unicode="&#x45d;" horiz-adv-x="565" 
d="M70 496h79v-390l257 390h89v-496h-79v390l-257 -390h-89v496zM153 703h107l67 -145h-66z" />
    <glyph glyph-name="uni045E" unicode="&#x45e;" horiz-adv-x="500" 
d="M37 -194v79q27 -12 43.5 -16.5t33.5 -4.5q21 0 35.5 12.5t25.5 38.5l33 84l-203 497h91l155 -388l154 388h89l-248 -606q-21 -53 -52 -76.5t-79 -23.5q-46 0 -78 16zM176.5 597q-28.5 29 -28.5 75h63q0 -20 11 -32.5t29 -12.5t28.5 12.5t10.5 32.5h63q0 -46 -28 -75
t-74 -29t-74.5 29z" />
    <glyph glyph-name="uni045F" unicode="&#x45f;" horiz-adv-x="549" 
d="M238 0h-168v496h81v-425h248v425h80v-496h-167v-116h-74v116z" />
    <glyph glyph-name="uni0462" unicode="&#x462;" horiz-adv-x="724" 
d="M607.5 362.5q66.5 -53.5 66.5 -154.5q0 -102 -66 -155t-179 -53h-273v530h-136v72h136v98h84v-98h232v-72h-232v-114h189q112 0 178.5 -53.5zM590 208q0 135 -172 135h-178v-269h178q172 0 172 134z" />
    <glyph glyph-name="uni0463" unicode="&#x463;" horiz-adv-x="539" 
d="M454.5 273.5q47.5 -41.5 47.5 -115.5t-47.5 -116t-131.5 -42h-207v431h-97v65h97v204h79v-204h158v-65h-158v-116h128q84 0 131.5 -41.5zM396.5 90.5q26.5 25.5 26.5 67.5q0 43 -26 68t-72 25h-130v-186h130q45 0 71.5 25.5z" />
    <glyph glyph-name="uni0472" unicode="&#x472;" horiz-adv-x="784" 
d="M564.5 668q77.5 -46 122 -128.5t44.5 -189.5t-44.5 -189.5t-122 -128.5t-172.5 -46t-172.5 46t-122 128.5t-44.5 189.5t44.5 189.5t122 128.5t172.5 46t172.5 -46zM270.5 608.5q-54.5 -30.5 -89 -86.5t-42.5 -130q55 31 119 31q42 0 75 -10t78 -30q36 -17 61 -25t54 -8
q65 0 120 32q-6 77 -40.5 135.5t-90 90t-123.5 31.5q-67 0 -121.5 -30.5zM513.5 91.5q54.5 30.5 89 86t42.5 129.5q-56 -30 -119 -30q-42 0 -75 10t-78 30q-36 17 -61 25t-54 8q-65 0 -120 -32q6 -77 40.5 -135.5t90 -90t123.5 -31.5q67 0 121.5 30.5z" />
    <glyph glyph-name="uni0473" unicode="&#x473;" horiz-adv-x="597" 
d="M426.5 479q59.5 -31 95.5 -90.5t36 -140.5t-36 -140.5t-95.5 -90.5t-128.5 -31t-128 31t-95 90.5t-36 140.5t36 140.5t95 90.5t128 31t128.5 -31zM180.5 392.5q-49.5 -44.5 -58.5 -115.5q48 29 94 29q25 0 46 -6.5t47 -19.5q27 -12 42 -17t33 -5q28 0 47.5 6.5t42.5 20.5
q-11 69 -60 110.5t-116 41.5q-68 0 -117.5 -44.5zM416.5 103.5q49.5 44.5 58.5 115.5q-48 -29 -94 -29q-25 0 -45 6.5t-48 19.5q-27 12 -42.5 17t-33.5 5q-27 0 -46.5 -6.5t-42.5 -20.5q11 -68 59.5 -110t115.5 -42q69 0 118.5 44.5z" />
    <glyph glyph-name="uni0474" unicode="&#x474;" horiz-adv-x="736" 
d="M2 700h88l192 -530q16 -46 26 -81q10 35 26 81l164 453q18 48 46 69.5t72 21.5q73 0 103 -56l-54 -51q-18 30 -45 30q-16 0 -26 -9t-18 -30l-223 -598h-91z" />
    <glyph glyph-name="uni0475" unicode="&#x475;" horiz-adv-x="597" 
d="M8 496h86l153 -400l127 333q16 40 43 60.5t71 20.5q68 0 98 -55l-51 -47q-8 16 -20 24.5t-25 8.5q-26 0 -42 -39l-161 -402h-80z" />
    <glyph glyph-name="uni0490" unicode="&#x490;" horiz-adv-x="547" 
d="M529 826v-200h-364v-626h-84v700h369v126h79z" />
    <glyph glyph-name="uni0491" unicode="&#x491;" horiz-adv-x="412" 
d="M376 612v-187h-225v-425h-81v496h232v116h74z" />
    <glyph glyph-name="Wgrave" unicode="&#x1e80;" horiz-adv-x="895" 
d="M5 700h85l140 -521q14 -53 19 -77l17 78l136 520h91l136 -520q13 -54 18 -78q5 24 18 77l140 521h85l-197 -700h-90l-155 593l-155 -593h-90zM325 907h107l67 -145h-66z" />
    <glyph glyph-name="wgrave" unicode="&#x1e81;" horiz-adv-x="689" 
d="M603 496h79l-142 -496h-85l-111 404l-110 -404h-85l-142 496h79l107 -401l109 401h84l110 -401zM215 703h107l67 -145h-66z" />
    <glyph glyph-name="Wacute" unicode="&#x1e82;" horiz-adv-x="895" 
d="M5 700h85l140 -521q14 -53 19 -77l17 78l136 520h91l136 -520q13 -54 18 -78q5 24 18 77l140 521h85l-197 -700h-90l-155 593l-155 -593h-90zM463 907h107l-108 -145h-66z" />
    <glyph glyph-name="wacute" unicode="&#x1e83;" horiz-adv-x="689" 
d="M603 496h79l-142 -496h-85l-111 404l-110 -404h-85l-142 496h79l107 -401l109 401h84l110 -401zM359 703h107l-108 -145h-66z" />
    <glyph glyph-name="Wdieresis" unicode="&#x1e84;" horiz-adv-x="895" 
d="M5 700h85l140 -521q14 -53 19 -77l17 78l136 520h91l136 -520q13 -54 18 -78q5 24 18 77l140 521h85l-197 -700h-90l-155 593l-155 -593h-90zM322 884h93v-92h-93v92zM481 884h92v-92h-92v92z" />
    <glyph glyph-name="wdieresis" unicode="&#x1e85;" horiz-adv-x="689" 
d="M603 496h79l-142 -496h-85l-111 404l-110 -404h-85l-142 496h79l107 -401l109 401h84l110 -401zM219 680h93v-92h-93v92zM378 680h92v-92h-92v92z" />
    <glyph glyph-name="uni1E9E" unicode="&#x1e9e;" horiz-adv-x="656" 
d="M282.5 13.5q-44.5 27.5 -69.5 70.5l60 55q45 -78 120 -78q58 0 92.5 39t34.5 105q0 82 -58.5 123.5t-160.5 41.5v67l138 189h-143q-131 0 -131 -137v-489h-84v489q0 102 55 156.5t160 54.5h229v-74l-139 -190q96 -12 156.5 -70.5t60.5 -160.5q0 -63 -27 -113t-75 -78
t-109 -28q-65 0 -109.5 27.5z" />
    <glyph glyph-name="Ygrave" unicode="&#x1ef2;" horiz-adv-x="551" 
d="M234 286l-230 414h91l159 -295q13 -25 22 -48q9 23 22 48l158 295h91l-229 -414v-286h-84v286zM153 907h107l67 -145h-66z" />
    <glyph glyph-name="ygrave" unicode="&#x1ef3;" horiz-adv-x="500" 
d="M114 -136q21 0 35.5 12.5t25.5 38.5l33 84l-203 497h91l155 -388l154 388h89l-248 -606q-21 -53 -52 -76.5t-78 -23.5q-31 0 -55 9l14 75q20 -10 39 -10zM121 703h107l67 -145h-66z" />
    <glyph glyph-name="endash" unicode="&#x2013;" horiz-adv-x="527" 
d="M45 343h437v-64h-437v64z" />
    <glyph glyph-name="emdash" unicode="&#x2014;" horiz-adv-x="796" 
d="M45 343h706v-64h-706v64z" />
    <glyph glyph-name="quoteleft" unicode="&#x2018;" horiz-adv-x="193" 
d="M42 579l99 128l20 -15l-60 -113h39v-99h-98v99z" />
    <glyph glyph-name="quoteright" unicode="&#x2019;" horiz-adv-x="193" 
d="M32 487l61 114h-40v99h98v-99l-99 -128z" />
    <glyph glyph-name="quotesinglbase" unicode="&#x201a;" horiz-adv-x="193" 
d="M32 -113l61 113h-40v99h98v-99l-99 -128z" />
    <glyph glyph-name="quotedblleft" unicode="&#x201c;" horiz-adv-x="325" 
d="M42 579l99 128l20 -15l-60 -113h39v-99h-98v99zM174 579l99 128l20 -15l-60 -113h39v-99h-98v99z" />
    <glyph glyph-name="quotedblright" unicode="&#x201d;" horiz-adv-x="325" 
d="M32 487l61 114h-40v99h98v-99l-99 -128zM164 487l61 114h-40v99h98v-99l-99 -128z" />
    <glyph glyph-name="quotedblbase" unicode="&#x201e;" horiz-adv-x="325" 
d="M32 -113l61 113h-40v99h98v-99l-99 -128zM164 -113l61 113h-40v99h98v-99l-99 -128z" />
    <glyph glyph-name="dagger" unicode="&#x2020;" horiz-adv-x="451" 
d="M185 427h-140v69h140v244h80v-244h140v-69h-140v-537h-80v537z" />
    <glyph glyph-name="daggerdbl" unicode="&#x2021;" horiz-adv-x="451" 
d="M185 134h-140v69h140v224h-140v69h140v244h80v-244h140v-69h-140v-224h140v-69h-140v-244h-80v244z" />
    <glyph glyph-name="bullet" unicode="&#x2022;" horiz-adv-x="283" 
d="M76.5 209.5q-27.5 27.5 -27.5 65.5t27.5 65.5t65.5 27.5t65 -27.5t27 -65.5t-27 -65.5t-65 -27.5t-65.5 27.5z" />
    <glyph glyph-name="ellipsis" unicode="&#x2026;" horiz-adv-x="565" 
d="M45 99h98v-99h-98v99zM233 99h98v-99h-98v99zM421 99h98v-99h-98v99z" />
    <glyph glyph-name="perthousand" unicode="&#x2030;" horiz-adv-x="1155" 
d="M132 387q-39 23 -61 63t-22 89t22 89t61 63t88 23t88 -23t60.5 -63t21.5 -89t-21.5 -89t-60.5 -63t-88 -23t-88 23zM197 35l435 665l51 -35l-434 -665zM295 457.5q29 31.5 29 81.5t-29 81.5t-75 31.5t-75 -31.5t-29 -81.5t29 -81.5t75 -31.5t75 31.5zM573 9
q-39 23 -61 63t-22 89t22 89t61 63t88 23q43 0 78.5 -18.5t58.5 -50.5q23 32 58.5 50.5t78.5 18.5q49 0 88 -23t61 -63t22 -89t-22 -89t-61 -63t-88 -23q-43 0 -78.5 18.5t-58.5 50.5q-23 -32 -58.5 -50.5t-78.5 -18.5q-49 0 -88 23zM736 79.5q29 31.5 29 81.5t-29 81.5
t-75 31.5t-75 -31.5t-29 -81.5t29 -81.5t75 -31.5t75 31.5zM1010 79.5q29 31.5 29 81.5t-29 81.5t-75 31.5t-75 -31.5t-29 -81.5t29 -81.5t75 -31.5t75 31.5z" />
    <glyph glyph-name="guilsinglleft" unicode="&#x2039;" horiz-adv-x="330" 
d="M45 275l157 201h94l-156 -201l156 -200h-94z" />
    <glyph glyph-name="guilsinglright" unicode="&#x203a;" horiz-adv-x="330" 
d="M190 275l-156 201h94l157 -201l-157 -200h-94z" />
    <glyph glyph-name="fraction" unicode="&#x2044;" horiz-adv-x="524" 
d="M19 35l434 665l52 -35l-435 -665z" />
    <glyph glyph-name="uni2070" unicode="&#x2070;" horiz-adv-x="383" 
d="M112 366q-35 23 -54.5 64t-19.5 95t19.5 95t54.5 64t79 23t79 -23t55 -64t20 -95t-20 -95t-55 -64t-79 -23t-79 23zM258 433q26 34 26 92t-26 92t-67 34t-66.5 -34t-25.5 -92t25.5 -92t66.5 -34t67 34z" />
    <glyph glyph-name="uni2074" unicode="&#x2074;" horiz-adv-x="372" 
d="M221 416h-167v51l167 233h61v-233h39v-51h-39v-66h-61v66zM221 467v147l-108 -147h108z" />
    <glyph glyph-name="uni2075" unicode="&#x2075;" horiz-adv-x="350" 
d="M89.5 372q-34.5 29 -34.5 69q0 16 4 27l56 -10q-2 -6 -2 -15q0 -23 18.5 -36.5t51.5 -13.5q32 0 51 19.5t19 54.5q0 34 -18.5 54t-52.5 20q-25 0 -45 -13.5t-30 -31.5l-47 15l18 189h215v-50h-170l-12 -101q13 19 35.5 29.5t47.5 10.5q54 0 86 -34t32 -87
q0 -55 -36.5 -90t-95.5 -35q-56 0 -90.5 29z" />
    <glyph glyph-name="uni2076" unicode="&#x2076;" horiz-adv-x="352" 
d="M89.5 386.5q-36.5 43.5 -36.5 118.5q0 79 28 127q17 36 47 55.5t67 19.5q47 0 77 -23t30 -60q0 -15 -5 -30l-53 10q4 10 4 18q0 17 -15 27t-38 10q-39 0 -61 -35.5t-24 -90.5q13 20 36 32.5t51 12.5q50 0 82.5 -32t32.5 -84t-36 -85.5t-91 -33.5q-59 0 -95.5 43.5z
M235 411q20 19 20 50t-20 49.5t-50 18.5t-49.5 -18.5t-19.5 -49.5t20 -50t49 -19q30 0 50 19z" />
    <glyph glyph-name="uni2077" unicode="&#x2077;" horiz-adv-x="307" 
d="M215 650h-166v50h227v-47l-142 -303h-60z" />
    <glyph glyph-name="uni2078" unicode="&#x2078;" horiz-adv-x="334" 
d="M77.5 373q-35.5 30 -35.5 77q0 60 58 88q-46 28 -46 76q0 40 31.5 66.5t81.5 26.5t81.5 -26.5t31.5 -66.5q0 -48 -46 -76q58 -28 58 -88q0 -47 -35.5 -77t-89.5 -30t-89.5 30zM207 572.5q15 14.5 15 37.5t-15.5 37t-39.5 14t-39.5 -14t-15.5 -37t15 -37.5t40 -14.5
t40 14.5zM212 407.5q18 16.5 18 44.5q0 29 -18 45t-45 16t-45 -16t-18 -45q0 -28 18 -44.5t45 -16.5t45 16.5z" />
    <glyph glyph-name="uni2079" unicode="&#x2079;" horiz-adv-x="336" 
d="M87.5 366q-30.5 23 -30.5 60q0 18 6 30l52 -10q-4 -10 -4 -18q0 -17 15 -27t39 -10q39 0 60.5 34.5t24.5 91.5q-12 -21 -34.5 -33t-51.5 -12q-50 0 -83.5 32t-33.5 84t36 85.5t91 33.5q61 0 97 -42t36 -120q0 -77 -28 -127q-17 -35 -47.5 -55t-67.5 -20q-46 0 -76.5 23z
M223.5 538q19.5 19 19.5 51t-19.5 50.5t-49.5 18.5t-50 -19t-20 -50q0 -32 20 -51t50 -19t49.5 19z" />
    <glyph glyph-name="uni2080" unicode="&#x2080;" horiz-adv-x="383" 
d="M112 -188q-35 23 -54.5 64t-19.5 95t19.5 95t54.5 64t79 23t79 -23t55 -64t20 -95t-20 -95t-55 -64t-79 -23t-79 23zM258 -121q26 34 26 92t-26 92t-67 34t-66.5 -34t-25.5 -92t25.5 -92t66.5 -34t67 34z" />
    <glyph glyph-name="uni2081" unicode="&#x2081;" horiz-adv-x="244" 
d="M118 69q-12 -13 -30 -18.5t-45 -5.5v58q32 0 50 10t29 33h56v-350h-60v273z" />
    <glyph glyph-name="uni2082" unicode="&#x2082;" horiz-adv-x="336" 
d="M59 -162l131 126q25 25 34.5 44t9.5 42q0 22 -15.5 36.5t-42.5 14.5t-43.5 -15.5t-16.5 -40.5q0 -14 4 -23l-54 -8q-6 15 -6 36q0 41 32 72t84 31q54 0 85.5 -28t31.5 -72q0 -35 -14.5 -61.5t-49.5 -61.5l-82 -80h150v-54h-238v42z" />
    <glyph glyph-name="uni2083" unicode="&#x2083;" horiz-adv-x="339" 
d="M83 -180.5q-34 30.5 -34 71.5q0 16 6 32l55 -12q-3 -7 -3 -18q0 -24 19 -38t48 -14q30 0 47.5 15.5t17.5 44.5t-25.5 44t-67.5 15v46q39 0 57.5 14.5t18.5 40.5q0 19 -14.5 30.5t-38.5 11.5t-40 -12.5t-16 -33.5q0 -7 2 -17l-52 -6q-5 13 -5 27q0 38 31 65t80 27
q52 0 82 -24.5t30 -61.5q0 -24 -13 -44.5t-39 -33.5q29 -10 48.5 -33t19.5 -56q0 -51 -34.5 -81t-89.5 -30q-56 0 -90 30.5z" />
    <glyph glyph-name="uni2084" unicode="&#x2084;" horiz-adv-x="372" 
d="M221 -138h-167v51l167 233h61v-233h39v-51h-39v-66h-61v66zM221 -87v147l-108 -147h108z" />
    <glyph glyph-name="uni2085" unicode="&#x2085;" horiz-adv-x="350" 
d="M89.5 -182q-34.5 29 -34.5 69q0 16 4 27l56 -10q-2 -6 -2 -15q0 -23 18.5 -36.5t51.5 -13.5q32 0 51 19.5t19 54.5q0 34 -18.5 54t-52.5 20q-25 0 -45 -13.5t-30 -31.5l-47 15l18 189h215v-50h-170l-12 -101q13 19 35.5 29.5t47.5 10.5q54 0 86 -34t32 -87
q0 -55 -36.5 -90t-95.5 -35q-56 0 -90.5 29z" />
    <glyph glyph-name="uni2086" unicode="&#x2086;" horiz-adv-x="352" 
d="M89.5 -167.5q-36.5 43.5 -36.5 118.5q0 79 28 127q17 36 47 55.5t67 19.5q47 0 77 -23t30 -60q0 -15 -5 -30l-53 10q4 10 4 18q0 17 -15 27t-38 10q-39 0 -61 -35.5t-24 -90.5q13 20 36 32.5t51 12.5q50 0 82.5 -32t32.5 -84t-36 -85.5t-91 -33.5q-59 0 -95.5 43.5z
M235 -143q20 19 20 50t-20 49.5t-50 18.5t-49.5 -18.5t-19.5 -49.5t20 -50t49 -19q30 0 50 19z" />
    <glyph glyph-name="uni2087" unicode="&#x2087;" horiz-adv-x="307" 
d="M215 96h-166v50h227v-47l-142 -303h-60z" />
    <glyph glyph-name="uni2088" unicode="&#x2088;" horiz-adv-x="334" 
d="M77.5 -181q-35.5 30 -35.5 77q0 60 58 88q-46 28 -46 76q0 40 31.5 66.5t81.5 26.5t81.5 -26.5t31.5 -66.5q0 -48 -46 -76q58 -28 58 -88q0 -47 -35.5 -77t-89.5 -30t-89.5 30zM207 18.5q15 14.5 15 37.5t-15.5 37t-39.5 14t-39.5 -14t-15.5 -37t15 -37.5t40 -14.5
t40 14.5zM212 -146.5q18 16.5 18 44.5q0 29 -18 45t-45 16t-45 -16t-18 -45q0 -28 18 -44.5t45 -16.5t45 16.5z" />
    <glyph glyph-name="uni2089" unicode="&#x2089;" horiz-adv-x="336" 
d="M87.5 -188q-30.5 23 -30.5 60q0 18 6 30l52 -10q-4 -10 -4 -18q0 -17 15 -27t39 -10q39 0 60.5 34.5t24.5 91.5q-12 -21 -34.5 -33t-51.5 -12q-50 0 -83.5 32t-33.5 84t36 85.5t91 33.5q61 0 97 -42t36 -120q0 -77 -28 -127q-17 -35 -47.5 -55t-67.5 -20q-46 0 -76.5 23z
M223.5 -16q19.5 19 19.5 51t-19.5 50.5t-49.5 18.5t-50 -19t-20 -50q0 -32 20 -51t50 -19t49.5 19z" />
    <glyph glyph-name="Euro" unicode="&#x20ac;" horiz-adv-x="753" 
d="M228 56.5q-80 70.5 -106 187.5h-82l28 62h43q-2 28 -2 44q0 22 3 44h-72l28 62h54q19 76 63 134.5t106.5 91t136.5 32.5q107 0 176 -51t96 -140l-73 -31q-46 147 -201 147q-80 0 -137.5 -49.5t-82.5 -133.5h292l-28 -62h-275q-2 -15 -2 -44q0 -30 1 -44h304l-28 -62h-264
q23 -84 80 -133.5t138 -49.5q78 0 127 41t76 121l71 -26q-32 -101 -101 -156t-174 -55q-115 0 -195 70.5z" />
    <glyph glyph-name="uni20B4" unicode="&#x20b4;" horiz-adv-x="600" 
d="M23 444h377q47 36 47 88q0 51 -38 80t-97 29q-61 0 -104.5 -32.5t-66.5 -96.5l-67 39q26 78 88 120.5t150 42.5q62 0 111.5 -22.5t77 -62t27.5 -89.5q0 -29 -10.5 -54.5t-31.5 -41.5h92v-63h-555v63zM174 11q-54 25 -84 68.5t-30 99.5q0 41 16 70h-53v63h555v-63h-419
q-15 -25 -15 -59q0 -35 19 -65t54 -48t82 -18q75 0 115 34t55 96l81 -19q-21 -84 -83 -134t-168 -50q-71 0 -125 25z" />
    <glyph glyph-name="uni20BA" unicode="&#x20ba;" horiz-adv-x="531" 
d="M484 293v-19q0 -82 -37.5 -144t-106.5 -96t-160 -34h-84v217l-76 -36v78l76 36v92l-76 -36v79l76 36v234h84v-194l125 60v-79l-125 -60v-92l125 60v-78l-125 -60v-182q107 0 166.5 54.5t59.5 144.5v19h78z" />
    <glyph glyph-name="uni20BD" unicode="&#x20bd;" horiz-adv-x="610" 
d="M175 170h274v-70h-274v-100h-84v100h-79v70h79v91h-79v74h79v365h223q113 0 179.5 -58.5t66.5 -160.5t-66.5 -161t-179.5 -59h-139v-91zM175 335h137q81 0 122.5 38t41.5 108q0 69 -41.5 107t-122.5 38h-137v-291z" />
    <glyph glyph-name="uni2113" unicode="&#x2113;" horiz-adv-x="550" 
d="M314 86.5q34 31.5 69 97.5l55 -36q-40 -80 -90.5 -121t-117.5 -41q-61 0 -97.5 42.5t-41.5 129.5q-24 -7 -66 -16v77q34 6 66 15q6 149 50 258t110 165.5t138 56.5q67 0 99 -40t32 -111q0 -124 -94 -223.5t-262 -158.5q4 -126 79 -126q37 0 71 31.5zM285.5 594.5
q-46.5 -51.5 -79 -141t-40.5 -196.5q134 48 206 126t72 174q0 89 -66 89q-46 0 -92.5 -51.5z" />
    <glyph glyph-name="uni2116" unicode="&#x2116;" horiz-adv-x="1111" 
d="M799.5 359.5q-41.5 22.5 -67 65t-25.5 100.5q0 59 25.5 101.5t67 65t90.5 22.5t90.5 -22.5t67 -65t25.5 -101.5q0 -58 -25.5 -100.5t-67 -65t-90.5 -22.5t-90.5 22.5zM168 700l335 -523q24 -41 30 -55v578h81v-700h-87l-335 524q-24 41 -30 55v-579h-81v700h87z
M962 441.5q29 32.5 29 83.5t-29 83.5t-72 32.5q-44 0 -73 -32.5t-29 -83.5t29 -83.5t73 -32.5q43 0 72 32.5zM735 273h309v-64h-309v64z" />
    <glyph glyph-name="uni2117" unicode="&#x2117;" horiz-adv-x="841" 
d="M238.5 35q-83.5 49 -132.5 132.5t-49 182.5t49 182.5t132.5 132.5t182.5 49t182.5 -49t132.5 -132.5t49 -182.5t-49 -182.5t-132.5 -132.5t-182.5 -49t-182.5 49zM573 86q69 41 109.5 111t40.5 153t-40.5 153t-109.5 111t-152 41t-152.5 -41t-110 -111t-40.5 -153
t40.5 -153t110 -111t152.5 -41t152 41zM282 549h176q62 0 96.5 -32.5t34.5 -85.5q0 -52 -34.5 -84t-96.5 -32h-116v-164h-60v398zM456 365q36 0 55 17.5t19 48.5t-19 48.5t-55 17.5h-114v-132h114z" />
    <glyph glyph-name="uni2120" unicode="&#x2120;" horiz-adv-x="869" 
d="M94 326.5q-40 33.5 -54 89.5l49 23q25 -95 112 -95q41 0 66.5 19.5t25.5 48.5q0 30 -25 47t-77 26q-131 24 -131 115q0 48 36 78t96 30q57 0 95 -25.5t55 -73.5l-44 -26q-14 38 -41 57t-64 19q-36 0 -59 -16t-23 -41q0 -30 26.5 -46t83.5 -27q128 -26 128 -113
q0 -53 -40.5 -88t-106.5 -35q-68 0 -108 33.5zM414 700h61l141 -339l142 339h60v-400h-55v284l-118 -284h-57l-118 284v-284h-56v400z" />
    <glyph glyph-name="trademark" unicode="&#x2122;" horiz-adv-x="847" 
d="M158 649h-122v51h303v-51h-122v-349h-59v349zM392 700h61l141 -339l142 339h60v-400h-55v284l-118 -284h-57l-118 284v-284h-56v400z" />
    <glyph glyph-name="uni2126" unicode="&#x2126;" horiz-adv-x="781" 
d="M74 71h159q-76 49 -128 130t-52 182q0 95 44 170.5t121 118t173 42.5t173 -42.5t121 -118t44 -170.5q0 -100 -52 -181.5t-128 -130.5h158v-71h-256v82q77 41 135.5 117.5t58.5 179.5q0 74 -32 133.5t-89.5 93t-132.5 33.5t-132.5 -33.5t-89.5 -93t-32 -133.5
q0 -103 58.5 -179.5t135.5 -117.5v-82h-257v71z" />
    <glyph glyph-name="estimated" unicode="&#x212e;" horiz-adv-x="848" 
d="M596.5 83q77.5 51 115.5 135h51q-26 -68 -77 -120.5t-118.5 -82t-143.5 -29.5q-99 0 -182.5 49t-132.5 132.5t-49 182.5t49 182.5t132.5 132.5t182.5 49t182.5 -49t132.5 -132.5t49 -182.5h-596v-217q44 -47 104 -74t128 -27q95 0 172.5 51zM296 641q-60 -27 -104 -74
v-171h464v171q-44 47 -104 74t-128 27t-128 -27z" />
    <glyph glyph-name="uni2153" unicode="&#x2153;" horiz-adv-x="759" 
d="M503 23.5q-34 30.5 -34 71.5q0 16 6 32l55 -12q-3 -7 -3 -18q0 -24 19 -38t48 -14q30 0 47.5 15.5t17.5 44.5t-25.5 44t-67.5 15v46q39 0 57.5 14.5t18.5 40.5q0 19 -14.5 30.5t-38.5 11.5t-40 -12.5t-16 -33.5q0 -7 2 -17l-52 -6q-5 13 -5 27q0 38 31 65t80 27
q52 0 82 -24.5t30 -61.5q0 -24 -13 -44.5t-39 -33.5q29 -10 48.5 -33t19.5 -56q0 -51 -34.5 -81t-89.5 -30q-56 0 -90 30.5zM122 35l434 665l52 -35l-435 -665zM118 623q-12 -13 -30 -18.5t-45 -5.5v58q32 0 50 10t29 33h56v-350h-60v273z" />
    <glyph glyph-name="uni2154" unicode="&#x2154;" horiz-adv-x="833" 
d="M577 23.5q-34 30.5 -34 71.5q0 16 6 32l55 -12q-3 -7 -3 -18q0 -24 19 -38t48 -14q30 0 47.5 15.5t17.5 44.5t-25.5 44t-67.5 15v46q39 0 57.5 14.5t18.5 40.5q0 19 -14.5 30.5t-38.5 11.5t-40 -12.5t-16 -33.5q0 -7 2 -17l-52 -6q-5 13 -5 27q0 38 31 65t80 27
q52 0 82 -24.5t30 -61.5q0 -24 -13 -44.5t-39 -33.5q29 -10 48.5 -33t19.5 -56q0 -51 -34.5 -81t-89.5 -30q-56 0 -90 30.5zM198 35l434 665l52 -35l-435 -665zM59 392l131 126q25 25 34.5 44t9.5 42q0 22 -15.5 36.5t-42.5 14.5t-43.5 -15.5t-16.5 -40.5q0 -14 4 -23
l-54 -8q-6 15 -6 36q0 41 32 72t84 31q54 0 85.5 -28t31.5 -72q0 -35 -14.5 -61.5t-49.5 -61.5l-82 -80h150v-54h-238v42z" />
    <glyph glyph-name="oneeighth" unicode="&#x215b;" horiz-adv-x="760" 
d="M118 623q-12 -13 -30 -18.5t-45 -5.5v58q32 0 50 10t29 33h56v-350h-60v273zM123 35l434 665l52 -35l-435 -665zM503.5 23q-35.5 30 -35.5 77q0 60 58 88q-46 28 -46 76q0 40 31.5 66.5t81.5 26.5t81.5 -26.5t31.5 -66.5q0 -48 -46 -76q58 -28 58 -88q0 -47 -35.5 -77
t-89.5 -30t-89.5 30zM633 222.5q15 14.5 15 37.5t-15.5 37t-39.5 14t-39.5 -14t-15.5 -37t15 -37.5t40 -14.5t40 14.5zM638 57.5q18 16.5 18 44.5q0 29 -18 45t-45 16t-45 -16t-18 -45q0 -28 18 -44.5t45 -16.5t45 16.5z" />
    <glyph glyph-name="threeeighths" unicode="&#x215c;" horiz-adv-x="813" 
d="M83 373.5q-34 30.5 -34 71.5q0 16 6 32l55 -12q-3 -7 -3 -18q0 -24 19 -38t48 -14q30 0 47.5 15.5t17.5 44.5t-25.5 44t-67.5 15v46q39 0 57.5 14.5t18.5 40.5q0 19 -14.5 30.5t-38.5 11.5t-40 -12.5t-16 -33.5q0 -7 2 -17l-52 -6q-5 13 -5 27q0 38 31 65t80 27
q52 0 82 -24.5t30 -61.5q0 -24 -13 -44.5t-39 -33.5q29 -10 48.5 -33t19.5 -56q0 -51 -34.5 -81t-89.5 -30q-56 0 -90 30.5zM176 35l434 665l52 -35l-435 -665zM556.5 23q-35.5 30 -35.5 77q0 60 58 88q-46 28 -46 76q0 40 31.5 66.5t81.5 26.5t81.5 -26.5t31.5 -66.5
q0 -48 -46 -76q58 -28 58 -88q0 -47 -35.5 -77t-89.5 -30t-89.5 30zM686 222.5q15 14.5 15 37.5t-15.5 37t-39.5 14t-39.5 -14t-15.5 -37t15 -37.5t40 -14.5t40 14.5zM691 57.5q18 16.5 18 44.5q0 29 -18 45t-45 16t-45 -16t-18 -45q0 -28 18 -44.5t45 -16.5t45 16.5z" />
    <glyph glyph-name="fiveeighths" unicode="&#x215d;" horiz-adv-x="813" 
d="M89.5 372q-34.5 29 -34.5 69q0 16 4 27l56 -10q-2 -6 -2 -15q0 -23 18.5 -36.5t51.5 -13.5q32 0 51 19.5t19 54.5q0 34 -18.5 54t-52.5 20q-25 0 -45 -13.5t-30 -31.5l-47 15l18 189h215v-50h-170l-12 -101q13 19 35.5 29.5t47.5 10.5q54 0 86 -34t32 -87
q0 -55 -36.5 -90t-95.5 -35q-56 0 -90.5 29zM176 35l434 665l52 -35l-435 -665zM556.5 23q-35.5 30 -35.5 77q0 60 58 88q-46 28 -46 76q0 40 31.5 66.5t81.5 26.5t81.5 -26.5t31.5 -66.5q0 -48 -46 -76q58 -28 58 -88q0 -47 -35.5 -77t-89.5 -30t-89.5 30zM686 222.5
q15 14.5 15 37.5t-15.5 37t-39.5 14t-39.5 -14t-15.5 -37t15 -37.5t40 -14.5t40 14.5zM691 57.5q18 16.5 18 44.5q0 29 -18 45t-45 16t-45 -16t-18 -45q0 -28 18 -44.5t45 -16.5t45 16.5z" />
    <glyph glyph-name="seveneighths" unicode="&#x215e;" horiz-adv-x="725" 
d="M215 650h-166v50h227v-47l-142 -303h-60zM88 35l434 665l52 -35l-435 -665zM468.5 23q-35.5 30 -35.5 77q0 60 58 88q-46 28 -46 76q0 40 31.5 66.5t81.5 26.5t81.5 -26.5t31.5 -66.5q0 -48 -46 -76q58 -28 58 -88q0 -47 -35.5 -77t-89.5 -30t-89.5 30zM598 222.5
q15 14.5 15 37.5t-15.5 37t-39.5 14t-39.5 -14t-15.5 -37t15 -37.5t40 -14.5t40 14.5zM603 57.5q18 16.5 18 44.5q0 29 -18 45t-45 16t-45 -16t-18 -45q0 -28 18 -44.5t45 -16.5t45 16.5z" />
    <glyph glyph-name="arrowleft" unicode="&#x2190;" horiz-adv-x="560" 
d="M53 311l205 204l48 -47l-124 -125h331v-64h-331l124 -125l-48 -47z" />
    <glyph glyph-name="arrowup" unicode="&#x2191;" horiz-adv-x="495" 
d="M215 473l-124 -124l-48 48l205 205l204 -205l-48 -48l-124 124v-331h-65v331z" />
    <glyph glyph-name="arrowright" unicode="&#x2192;" horiz-adv-x="560" 
d="M254 154l124 125h-331v64h331l-124 125l48 47l205 -204l-205 -204z" />
    <glyph glyph-name="arrowdown" unicode="&#x2193;" horiz-adv-x="495" 
d="M43 347l48 48l124 -124v331h65v-331l124 124l48 -48l-204 -205z" />
    <glyph glyph-name="arrowboth" unicode="&#x2194;" horiz-adv-x="763" 
d="M53 311l205 204l48 -47l-124 -125h400l-125 125l49 47l205 -204l-205 -204l-49 47l125 125h-400l124 -125l-48 -47z" />
    <glyph glyph-name="arrowupdn" unicode="&#x2195;" horiz-adv-x="495" 
d="M43 227l48 48l124 -124v400l-124 -124l-48 48l205 205l204 -205l-48 -48l-124 124v-400l124 124l48 -48l-204 -205z" />
    <glyph glyph-name="uni2196" unicode="&#x2196;" horiz-adv-x="513" 
d="M155 359v-176h-67v290h289v-67h-175l234 -236l-46 -45z" />
    <glyph glyph-name="uni2197" unicode="&#x2197;" horiz-adv-x="513" 
d="M77 170l234 236h-175v67h289v-290h-67v176l-235 -234z" />
    <glyph glyph-name="uni2198" unicode="&#x2198;" horiz-adv-x="513" 
d="M136 197h175l-234 236l46 45l235 -234v176h67v-290h-289v67z" />
    <glyph glyph-name="uni2199" unicode="&#x2199;" horiz-adv-x="513" 
d="M88 420h67v-176l235 234l46 -45l-234 -236h175v-67h-289v290z" />
    <glyph glyph-name="partialdiff" unicode="&#x2202;" horiz-adv-x="580" 
d="M162.5 12.5q-52.5 26.5 -84.5 79t-32 124.5q0 68 30 124.5t85.5 89t128.5 32.5q53 0 97 -22.5t66 -59.5q-4 68 -28 128.5t-67 98.5t-102 38q-47 0 -73.5 -21.5t-26.5 -50.5q0 -13 5 -25l-71 -30q-12 21 -12 52q0 37 22 70t63 53.5t96 20.5q137 0 205.5 -116.5
t68.5 -306.5q0 -86 -30 -155.5t-88 -109.5t-139 -40q-61 0 -113.5 26.5zM367 78q38 22 60.5 62t22.5 93q0 75 -44.5 117t-110.5 42q-50 0 -88.5 -24t-59.5 -65t-21 -89q0 -50 22.5 -85.5t58 -54t75.5 -18.5q47 0 85 22z" />
    <glyph glyph-name="uni2206" unicode="&#x2206;" horiz-adv-x="658" 
d="M286 700h86l280 -700h-646zM538 73l-200 510q-5 12 -9 25q-4 -13 -9 -25l-200 -510h418z" />
    <glyph glyph-name="product" unicode="&#x220f;" horiz-adv-x="670" 
d="M83 700h504v-904h-84v829h-336v-829h-84v904z" />
    <glyph glyph-name="summation" unicode="&#x2211;" horiz-adv-x="565" 
d="M34 -45l221 335l-212 332v78h476v-78h-380l209 -332l-220 -335h401v-75h-495v75z" />
    <glyph glyph-name="minus" unicode="&#x2212;" horiz-adv-x="513" 
d="M45 397h422v-64h-422v64z" />
    <glyph glyph-name="uni2215" unicode="&#x2215;" horiz-adv-x="495" 
d="M406 730h84l-400 -760h-84z" />
    <glyph glyph-name="uni2219" unicode="&#x2219;" horiz-adv-x="283" 
d="M76.5 209.5q-27.5 27.5 -27.5 65.5t27.5 65.5t65.5 27.5t65 -27.5t27 -65.5t-27 -65.5t-65 -27.5t-65.5 27.5z" />
    <glyph glyph-name="radical" unicode="&#x221a;" horiz-adv-x="595" 
d="M133 288h-103v68h164l83 -245l219 589h78l-260 -700h-78z" />
    <glyph glyph-name="infinity" unicode="&#x221e;" horiz-adv-x="774" 
d="M99 189q-43 44 -43 111t43 111t112 44q56 0 96.5 -28.5t79.5 -78.5q39 50 79.5 78.5t96.5 28.5q69 0 112 -44t43 -111t-43 -111t-112 -44q-56 0 -97 28t-79 78q-38 -50 -79 -78t-97 -28q-69 0 -112 44zM287 229q29 24 64 71q-35 47 -64 71t-67 24q-43 0 -69.5 -27.5
t-26.5 -67.5t26.5 -67.5t69.5 -27.5q38 0 67 24zM623.5 232.5q26.5 27.5 26.5 67.5t-26.5 67.5t-69.5 27.5q-39 0 -67.5 -24t-63.5 -71q35 -47 63.5 -71t67.5 -24q43 0 69.5 27.5z" />
    <glyph glyph-name="integral" unicode="&#x222b;" horiz-adv-x="312" 
d="M-6 -210l15 72q18 -8 34 -8q58 0 58 71v663q0 76 40 119t114 43q27 0 52 -10l-13 -69q-18 7 -39 7q-32 0 -52.5 -21.5t-20.5 -64.5v-661q0 -149 -135 -149q-31 0 -53 8z" />
    <glyph glyph-name="approxequal" unicode="&#x2248;" horiz-adv-x="438" 
d="M45 245q0 40 27 62.5t67 22.5q32 0 53.5 -10t45.5 -29q18 -14 29 -20t25 -6t22.5 8.5t8.5 21.5q0 12 -6 22l64 13q12 -18 12 -45q0 -40 -27 -62.5t-66 -22.5q-33 0 -54.5 10t-45.5 29q-18 14 -29 20t-25 6t-22.5 -8.5t-8.5 -21.5q0 -10 7 -22l-65 -13q-12 18 -12 45z
M45 415q0 40 27 62.5t67 22.5q32 0 53.5 -10t45.5 -29q18 -14 29 -20t25 -6t22.5 8.5t8.5 21.5q0 12 -6 22l64 13q12 -18 12 -45q0 -40 -27 -62.5t-66 -22.5q-33 0 -54.5 10t-45.5 29q-18 14 -29 20t-25 6t-22.5 -8.5t-8.5 -21.5q0 -10 7 -22l-65 -13q-12 18 -12 45z" />
    <glyph glyph-name="notequal" unicode="&#x2260;" horiz-adv-x="513" 
d="M85 118l59 101h-99v65h136l75 129h-211v64h248l79 135l56 -34l-59 -101h98v-64h-136l-74 -129h210v-65h-248l-78 -134z" />
    <glyph glyph-name="lessequal" unicode="&#x2264;" horiz-adv-x="517" 
d="M55 359v76l407 200v-80l-329 -158l329 -158v-81zM47 64h422v-64h-422v64z" />
    <glyph glyph-name="greaterequal" unicode="&#x2265;" horiz-adv-x="517" 
d="M56 239l328 158l-328 158v80l406 -200v-76l-406 -201v81zM47 64h422v-64h-422v64z" />
    <glyph glyph-name="lozenge" unicode="&#x25ca;" horiz-adv-x="575" 
d="M26 350l218 350h88l217 -350l-217 -350h-88zM461 350l-173 281l-174 -281l174 -281z" />
    <glyph glyph-name="uniF8FF" unicode="&#xf8ff;" horiz-adv-x="769" 
d="M95.5 6.5q-6.5 6.5 -6.5 15.5v595q0 7 4.5 13.5t11.5 8.5l270 78l10 2l10 -2l270 -78q7 -2 11.5 -8.5t4.5 -13.5v-595q0 -9 -6.5 -15.5t-15.5 -6.5l-7 1l-267 77l-267 -77l-7 -1q-9 0 -15.5 6.5zM363 669l-230 -67q4 -62 35 -114t82.5 -84.5t112.5 -37.5v303z
M519.5 403.5q51.5 32.5 82.5 84.5t35 114l-230 67v-303q61 5 112.5 37.5zM363 118v204q-73 6 -134 43.5t-97 97.5v-412zM638 463q-37 -60 -97.5 -97.5t-133.5 -43.5v-204l231 -67v412z" />
    <glyph glyph-name="fi" unicode="&#xfb01;" horiz-adv-x="540" 
d="M179 433v-433h-81v433h-76v63h76v92q0 76 40 119t114 43q29 0 52 -10l-13 -69q-18 7 -39 7q-32 0 -52.5 -21.5t-20.5 -64.5v-96h290v-496h-81v433h-209zM476 680v-97h-95v97h95z" />
    <glyph glyph-name="fl" unicode="&#xfb02;" horiz-adv-x="538" 
d="M98 496v92q0 76 40 119t114 43q29 0 52 -10l-13 -69q-18 7 -39 7q-32 0 -52.5 -21.5t-20.5 -64.5v-96h117v-63h-117v-433h-81v433h-76v63h76zM468 700v-700h-81v700h81z" />
    <glyph glyph-name="NULL" 
 />
    <glyph glyph-name="i.loclTRK" horiz-adv-x="223" 
d="M152 496v-496h-81v496h81zM64 680h95v-97h-95v97z" />
    <glyph glyph-name="a.ss01" horiz-adv-x="597" 
d="M154 19.5q-54 33.5 -84 93t-30 135.5q0 75 31 135t84 93.5t117 33.5q60 0 104 -25t68 -71v82h81v-496h-81v86q-23 -45 -66 -72.5t-102 -27.5q-68 0 -122 33.5zM372.5 83.5q37.5 24.5 58 67.5t20.5 97t-20.5 97t-58 67.5t-85.5 24.5q-74 0 -119.5 -52.5t-45.5 -136.5
t45.5 -136.5t119.5 -52.5q48 0 85.5 24.5z" />
    <glyph glyph-name="aacute.ss01" horiz-adv-x="597" 
d="M154 19.5q-54 33.5 -84 93t-30 135.5q0 75 31 135t84 93.5t117 33.5q60 0 104 -25t68 -71v82h81v-496h-81v86q-23 -45 -66 -72.5t-102 -27.5q-68 0 -122 33.5zM372.5 83.5q37.5 24.5 58 67.5t20.5 97t-20.5 97t-58 67.5t-85.5 24.5q-74 0 -119.5 -52.5t-45.5 -136.5
t45.5 -136.5t119.5 -52.5q48 0 85.5 24.5zM309 703h107l-108 -145h-66z" />
    <glyph glyph-name="abreve.ss01" horiz-adv-x="597" 
d="M154 19.5q-54 33.5 -84 93t-30 135.5q0 75 31 135t84 93.5t117 33.5q60 0 104 -25t68 -71v82h81v-496h-81v86q-23 -45 -66 -72.5t-102 -27.5q-68 0 -122 33.5zM372.5 83.5q37.5 24.5 58 67.5t20.5 97t-20.5 97t-58 67.5t-85.5 24.5q-74 0 -119.5 -52.5t-45.5 -136.5
t45.5 -136.5t119.5 -52.5q48 0 85.5 24.5zM220.5 597q-28.5 29 -28.5 75h63q0 -20 11 -32.5t29 -12.5t28.5 12.5t10.5 32.5h63q0 -46 -28 -75t-74 -29t-74.5 29z" />
    <glyph glyph-name="acircumflex.ss01" horiz-adv-x="597" 
d="M154 19.5q-54 33.5 -84 93t-30 135.5q0 75 31 135t84 93.5t117 33.5q60 0 104 -25t68 -71v82h81v-496h-81v86q-23 -45 -66 -72.5t-102 -27.5q-68 0 -122 33.5zM372.5 83.5q37.5 24.5 58 67.5t20.5 97t-20.5 97t-58 67.5t-85.5 24.5q-74 0 -119.5 -52.5t-45.5 -136.5
t45.5 -136.5t119.5 -52.5q48 0 85.5 24.5zM262 702h64l102 -144h-66l-68 72l-68 -72h-66z" />
    <glyph glyph-name="adieresis.ss01" horiz-adv-x="597" 
d="M154 19.5q-54 33.5 -84 93t-30 135.5q0 75 31 135t84 93.5t117 33.5q60 0 104 -25t68 -71v82h81v-496h-81v86q-23 -45 -66 -72.5t-102 -27.5q-68 0 -122 33.5zM372.5 83.5q37.5 24.5 58 67.5t20.5 97t-20.5 97t-58 67.5t-85.5 24.5q-74 0 -119.5 -52.5t-45.5 -136.5
t45.5 -136.5t119.5 -52.5q48 0 85.5 24.5zM169 680h93v-92h-93v92zM328 680h92v-92h-92v92z" />
    <glyph glyph-name="agrave.ss01" horiz-adv-x="597" 
d="M154 19.5q-54 33.5 -84 93t-30 135.5q0 75 31 135t84 93.5t117 33.5q60 0 104 -25t68 -71v82h81v-496h-81v86q-23 -45 -66 -72.5t-102 -27.5q-68 0 -122 33.5zM372.5 83.5q37.5 24.5 58 67.5t20.5 97t-20.5 97t-58 67.5t-85.5 24.5q-74 0 -119.5 -52.5t-45.5 -136.5
t45.5 -136.5t119.5 -52.5q48 0 85.5 24.5zM165 703h107l67 -145h-66z" />
    <glyph glyph-name="amacron.ss01" horiz-adv-x="597" 
d="M154 19.5q-54 33.5 -84 93t-30 135.5q0 75 31 135t84 93.5t117 33.5q60 0 104 -25t68 -71v82h81v-496h-81v86q-23 -45 -66 -72.5t-102 -27.5q-68 0 -122 33.5zM372.5 83.5q37.5 24.5 58 67.5t20.5 97t-20.5 97t-58 67.5t-85.5 24.5q-74 0 -119.5 -52.5t-45.5 -136.5
t45.5 -136.5t119.5 -52.5q48 0 85.5 24.5zM184 669h220v-68h-220v68z" />
    <glyph glyph-name="aogonek.ss01" horiz-adv-x="597" 
d="M532 -192q-19 -6 -46 -6q-43 0 -73.5 24.5t-30.5 68.5q0 31 17 58t46 47h-1v86q-23 -45 -66 -72.5t-102 -27.5q-68 0 -122 33.5t-84 93t-30 135.5q0 75 31 135t84 93.5t117 33.5q60 0 104 -25t68 -71v82h81v-496q-35 -18 -53 -40t-18 -45q0 -20 13.5 -32t35.5 -12
q11 0 19 2zM372.5 83.5q37.5 24.5 58 67.5t20.5 97t-20.5 97t-58 67.5t-85.5 24.5q-74 0 -119.5 -52.5t-45.5 -136.5t45.5 -136.5t119.5 -52.5q48 0 85.5 24.5z" />
    <glyph glyph-name="aring.ss01" horiz-adv-x="597" 
d="M154 19.5q-54 33.5 -84 93t-30 135.5q0 75 31 135t84 93.5t117 33.5q60 0 104 -25t68 -71v82h81v-496h-81v86q-23 -45 -66 -72.5t-102 -27.5q-68 0 -122 33.5zM372.5 83.5q37.5 24.5 58 67.5t20.5 97t-20.5 97t-58 67.5t-85.5 24.5q-74 0 -119.5 -52.5t-45.5 -136.5
t45.5 -136.5t119.5 -52.5q48 0 85.5 24.5zM227 567.5q-28 27.5 -28 67.5t28 67.5t68 27.5t68 -27.5t28 -67.5t-28 -67.5t-68 -27.5t-68 27.5zM328 601.5q13 13.5 13 33.5t-13 33.5t-33 13.5t-33 -13.5t-13 -33.5t13 -33.5t33 -13.5t33 13.5z" />
    <glyph glyph-name="atilde.ss01" horiz-adv-x="597" 
d="M154 19.5q-54 33.5 -84 93t-30 135.5q0 75 31 135t84 93.5t117 33.5q60 0 104 -25t68 -71v82h81v-496h-81v86q-23 -45 -66 -72.5t-102 -27.5q-68 0 -122 33.5zM372.5 83.5q37.5 24.5 58 67.5t20.5 97t-20.5 97t-58 67.5t-85.5 24.5q-74 0 -119.5 -52.5t-45.5 -136.5
t45.5 -136.5t119.5 -52.5q48 0 85.5 24.5zM317 571.5q-21 10.5 -43 29.5q-16 14 -27.5 20.5t-26.5 6.5q-13 0 -21 -8t-8 -20q0 -13 6 -24l-58 -12q-11 20 -11 45q0 38 26 58.5t62 20.5q35 0 56 -10.5t43 -29.5q16 -14 27 -20.5t27 -6.5q14 0 21.5 8t7.5 20t-5 24l57 12
q11 -19 11 -45q0 -38 -26 -58.5t-62 -20.5q-35 0 -56 10.5z" />
    <glyph glyph-name="ae.ss01" horiz-adv-x="978" 
d="M153 19.5q-54 33.5 -84 93t-30 135.5q0 75 31 135t84 93.5t117 33.5q60 0 104 -25t68 -71v82h81v-71q29 39 75.5 62t100.5 23q72 0 126 -31.5t83 -88t29 -128.5v-27h-409q4 -78 50.5 -129t119.5 -51q62 0 101.5 29.5t64.5 81.5l59 -35q-69 -145 -228 -145
q-51 0 -96.5 22.5t-75.5 62.5v-71h-81v86q-23 -45 -66 -72.5t-102 -27.5q-68 0 -122 33.5zM858 299q-4 69 -49 107.5t-110 38.5q-63 0 -110.5 -41.5t-59.5 -104.5h329zM371.5 83.5q37.5 24.5 58 67.5t20.5 97t-20.5 97t-58 67.5t-85.5 24.5q-74 0 -119.5 -52.5t-45.5 -136.5
t45.5 -136.5t119.5 -52.5q48 0 85.5 24.5z" />
    <glyph glyph-name="aeacute.ss01" horiz-adv-x="978" 
d="M153 19.5q-54 33.5 -84 93t-30 135.5q0 75 31 135t84 93.5t117 33.5q60 0 104 -25t68 -71v82h81v-71q29 39 75.5 62t100.5 23q72 0 126 -31.5t83 -88t29 -128.5v-27h-409q4 -78 50.5 -129t119.5 -51q62 0 101.5 29.5t64.5 81.5l59 -35q-69 -145 -228 -145
q-51 0 -96.5 22.5t-75.5 62.5v-71h-81v86q-23 -45 -66 -72.5t-102 -27.5q-68 0 -122 33.5zM858 299q-4 69 -49 107.5t-110 38.5q-63 0 -110.5 -41.5t-59.5 -104.5h329zM371.5 83.5q37.5 24.5 58 67.5t20.5 97t-20.5 97t-58 67.5t-85.5 24.5q-74 0 -119.5 -52.5t-45.5 -136.5
t45.5 -136.5t119.5 -52.5q48 0 85.5 24.5zM504 703h107l-108 -145h-66z" />
    <glyph glyph-name="f_f_j" horiz-adv-x="819" 
d="M559 -202l11 72q19 -8 40 -8q28 0 42.5 18t14.5 52v501h-209v-433h-81v433h-198v-433h-81v433h-76v63h76v92q0 76 40 119t114 43q29 0 52 -10l-13 -69q-18 7 -39 7q-32 0 -52.5 -21.5t-20.5 -64.5v-96h198v92q0 76 39.5 119t113.5 43q28 0 53 -10l-14 -69q-18 7 -39 7
q-32 0 -52 -21.5t-20 -64.5v-96h289v-560q0 -68 -30.5 -107.5t-95.5 -39.5q-33 0 -62 9zM659 680h96v-97h-96v97z" />
    <glyph glyph-name="f_j" horiz-adv-x="540" 
d="M331 -138q57 0 57 70v501h-209v-433h-81v433h-76v63h76v92q0 76 40 119t114 43q29 0 52 -10l-13 -69q-18 7 -39 7q-32 0 -52.5 -21.5t-20.5 -64.5v-96h290v-560q0 -68 -31 -107.5t-95 -39.5q-34 0 -63 9l11 72q19 -8 40 -8zM476 680v-97h-95v97h95z" />
    <glyph glyph-name="uni0414.loclBGR" horiz-adv-x="703" 
d="M691 75v-201h-79v126h-521v-126h-79v201h73l221 625h91l221 -625h73zM530 75l-154 451q-12 34 -25 79q-13 -45 -25 -79l-155 -451h359z" />
    <glyph glyph-name="uni041B.loclBGR" horiz-adv-x="615" 
d="M262 700h91l260 -700h-87l-192 530q-16 46 -26 81q-10 -35 -26 -81l-192 -530h-88z" />
    <glyph glyph-name="uni0432.loclBGR" horiz-adv-x="505" 
d="M68 523q0 90 52 140.5t140 50.5q83 0 131.5 -49.5t48.5 -129.5q0 -59 -30 -101.5t-74 -61.5q55 -16 90.5 -61t35.5 -117q0 -94 -54 -151t-149 -57q-83 0 -137 48.5t-54 139.5v349zM242 400q31 0 59.5 15.5t45.5 44.5t17 66q0 60 -29 90.5t-75 30.5q-56 0 -84 -29t-28 -96
v-122h94zM180 84q32 -31 79 -31q58 0 90.5 37.5t32.5 105.5t-39.5 104t-109.5 36h-85v-166q0 -55 32 -86z" />
    <glyph glyph-name="uni0433.loclBGR" horiz-adv-x="482" 
d="M127.5 6.5q-42.5 20.5 -64 55.5t-21.5 77q0 63 44.5 98.5t127.5 50.5q62 11 92 32t30 55q0 32 -26 49.5t-69 17.5q-86 0 -125 -70l-57 40q27 48 71 73t111 25q74 0 122 -36t48 -97q0 -63 -43 -99.5t-118 -50.5q-67 -12 -98.5 -32.5t-31.5 -56.5q0 -39 28 -61t80 -22
q50 0 87 25t56 65l65 -40q-24 -52 -77 -85.5t-131 -33.5q-58 0 -100.5 20.5z" />
    <glyph glyph-name="uni0434.loclBGR" horiz-adv-x="584" 
d="M148 -74q0 -34 36.5 -55.5t97.5 -21.5q77 0 117 45.5t40 134.5v70q-56 -91 -167 -91q-65 0 -118 30.5t-83.5 87.5t-30.5 133q0 77 31.5 134t84.5 87t116 30q57 0 100 -23t67 -62v71h81v-463q0 -118 -63 -184.5t-175 -66.5q-105 0 -160 41t-55 105q0 12 4 30l79 -10
q-2 -12 -2 -22zM164.5 391q-44.5 -49 -44.5 -132t44.5 -132t117.5 -49t118 49t45 132t-45 132t-118 49t-117.5 -49z" />
    <glyph glyph-name="uni0436.loclBGR" horiz-adv-x="736" 
d="M328 190l-55 60l-161 -250h-92l200 309l-170 187h102l176 -205v409h80v-409l176 205h102l-170 -187l200 -309h-92l-161 250l-55 -60v-190h-80v190z" />
    <glyph glyph-name="uni0437.loclBGR" horiz-adv-x="496" 
d="M129 -178q-49 26 -75 69.5t-26 93.5q0 32 11 54l71 -23q-5 -13 -5 -30q0 -53 40.5 -87t99.5 -34q61 0 98.5 38.5t37.5 103.5q0 59 -41.5 96t-105.5 37h-36v68h37q59 0 92 33t33 88q0 52 -32.5 82t-88.5 30q-54 0 -85.5 -27t-31.5 -71q0 -13 3 -24l-67 -25q-11 22 -11 48
q0 46 23 84.5t66.5 61t102.5 22.5q91 0 144 -49t53 -128q0 -57 -27 -95.5t-70 -58.5q54 -22 88 -66t34 -108q0 -60 -26 -107.5t-75 -74.5t-116 -27q-66 0 -115 26z" />
    <glyph glyph-name="uni0438.loclBGR" horiz-adv-x="567" 
d="M152 496v-314q0 -59 32 -91t87 -32q40 0 73 22t52.5 61.5t19.5 89.5v264h81v-496h-81v87q-24 -46 -68.5 -73.5t-97.5 -27.5q-77 0 -127.5 46.5t-50.5 139.5v324h80z" />
    <glyph glyph-name="uni0439.loclBGR" horiz-adv-x="567" 
d="M152 496v-314q0 -59 32 -91t87 -32q40 0 73 22t52.5 61.5t19.5 89.5v264h81v-496h-81v87q-24 -46 -68.5 -73.5t-97.5 -27.5q-77 0 -127.5 46.5t-50.5 139.5v324h80zM210.5 597q-28.5 29 -28.5 75h63q0 -20 11 -32.5t29 -12.5t28.5 12.5t10.5 32.5h63q0 -46 -28 -75
t-74 -29t-74.5 29z" />
    <glyph glyph-name="uni043A.loclBGR" horiz-adv-x="502" 
d="M72 700h80v-391l194 187h102l-178 -172l208 -324h-92l-172 268l-62 -60v-208h-80v700z" />
    <glyph glyph-name="uni043B.loclBGR" horiz-adv-x="494" 
d="M207 496h80l199 -496h-86l-153 400l-153 -400h-86z" />
    <glyph glyph-name="uni043F.loclBGR" horiz-adv-x="567" 
d="M416 0v316q0 58 -32.5 89.5t-87.5 31.5q-38 0 -71.5 -21.5t-53.5 -59.5t-20 -85v-271h-81v496h81v-88q27 47 73 74.5t99 27.5q76 0 125 -44.5t49 -128.5v-337h-81z" />
    <glyph glyph-name="uni0442.loclBGR" horiz-adv-x="816" 
d="M665 0v339q0 101 -96 101q-51 0 -86.5 -45t-35.5 -129v-266h-80v336q0 48 -24 76t-70 28q-33 0 -61 -20t-44.5 -58.5t-16.5 -91.5v-270h-81v496h81v-77q22 41 61.5 66t86.5 25q49 0 85.5 -25t51.5 -70q24 43 66 69t91 26q70 0 111.5 -39.5t41.5 -108.5v-362h-81z" />
    <glyph glyph-name="uni0446.loclBGR" horiz-adv-x="584" 
d="M567 71v-187h-74v116h-77v87q-24 -46 -68.5 -73.5t-97.5 -27.5q-77 0 -127.5 46.5t-50.5 139.5v324h80v-314q0 -59 32 -91t87 -32q40 0 73 22t52.5 61.5t19.5 89.5v264h81v-425h70z" />
    <glyph glyph-name="uni0448.loclBGR" horiz-adv-x="816" 
d="M151 496v-339q0 -101 96 -101q51 0 86.5 45t35.5 129v266h80v-336q0 -48 24 -76t70 -28q33 0 61 20t44.5 58.5t16.5 91.5v270h81v-496h-81v77q-22 -41 -61.5 -66t-86.5 -25q-49 0 -85.5 25t-51.5 70q-24 -43 -66 -69t-91 -26q-70 0 -111.5 39.5t-41.5 108.5v362h81z" />
    <glyph glyph-name="uni0449.loclBGR" horiz-adv-x="825" 
d="M816 71v-187h-74v116h-77v77q-22 -41 -61.5 -66t-86.5 -25q-49 0 -85.5 25t-51.5 70q-24 -43 -66 -69t-91 -26q-70 0 -111.5 39.5t-41.5 108.5v362h81v-339q0 -101 96 -101q51 0 86.5 45t35.5 129v266h80v-336q0 -48 24 -76t70 -28q33 0 61 20t44.5 58.5t16.5 91.5v270
h81v-425h70z" />
    <glyph glyph-name="uni044C.loclBGR" horiz-adv-x="505" 
d="M72 496h79v-188q32 11 60 16.5t61 5.5q86 0 136 -46t50 -125q0 -49 -24 -88.5t-68.5 -62t-102.5 -22.5q-85 0 -138 48.5t-53 129.5v332zM181 83.5q30 -32.5 83 -32.5q54 0 84.5 30.5t30.5 77.5q0 48 -30.5 77t-80.5 29q-30 0 -56 -5.5t-61 -18.5v-78q0 -47 30 -79.5z" />
    <glyph glyph-name="uni044A.loclBGR" horiz-adv-x="570" 
d="M189 34.5q-53 48.5 -53 129.5v267h-119v65h199v-188q32 11 60 16.5t61 5.5q86 0 136 -46t50 -125q0 -49 -24 -88.5t-68.5 -62t-102.5 -22.5q-86 0 -139 48.5zM412.5 81.5q30.5 30.5 30.5 77.5q0 48 -30.5 77t-79.5 29q-31 0 -57 -6t-60 -18v-78q0 -47 30 -79.5t82 -32.5
q54 0 84.5 30.5z" />
    <glyph glyph-name="uni044E.loclBGR" horiz-adv-x="749" 
d="M354.5 12.5q-52.5 26.5 -87 78t-41.5 122.5h-77v-213h-79v700h79v-417h77q7 71 41.5 122.5t87 78t113.5 26.5q66 0 121.5 -31t88.5 -90t33 -141t-33 -141t-88.5 -90t-121.5 -31q-61 0 -113.5 26.5zM550.5 83q36.5 24 57.5 67t21 98t-21 98t-57.5 67t-82.5 24t-83 -24
t-58 -67t-21 -98t21 -98t58 -67t83 -24t82.5 24z" />
    <glyph glyph-name="alpha.ss02" horiz-adv-x="633" 
d="M154 19q-53 33 -83.5 92.5t-30.5 136.5q0 76 31 136t84.5 93t117.5 33q63 0 107 -27t64 -68v81h80v-381q0 -24 11.5 -40t33.5 -16q14 0 22 4l12 -67q-27 -10 -51 -10q-93 0 -104 98q-32 -50 -75 -74t-100 -24q-66 0 -119 33zM368 81.5q37 22.5 58.5 65.5t21.5 101
q0 54 -22 97.5t-59.5 67.5t-82.5 24t-82 -24t-58.5 -67t-21.5 -98t22 -98t59 -67t82 -24q46 0 83 22.5z" />
    <glyph glyph-name="delta.ss02" horiz-adv-x="579" 
d="M168.5 13.5q-55.5 27.5 -89 81.5t-33.5 129q0 54 22.5 100t60.5 77t85 41q-56 15 -92 51.5t-36 82.5q0 65 54.5 101.5t145.5 36.5q87 0 143 -32t56 -88q0 -32 -16 -62l-69 25q6 15 6 26q0 33 -36.5 49.5t-84.5 16.5q-55 0 -90 -19t-35 -54q0 -37 42 -62.5t148 -53.5
q89 -24 135.5 -84t46.5 -148q0 -73 -33.5 -128t-89 -84.5t-120.5 -29.5t-120.5 27.5zM374 76.5q39 21.5 61.5 60t22.5 87.5q0 50 -23 88.5t-62 60t-84 21.5t-84 -21.5t-62 -60t-23 -88.5q0 -49 22.5 -87.5t61.5 -60t85 -21.5t85 21.5z" />
    <glyph glyph-name="alphatonos.ss02" horiz-adv-x="633" 
d="M154 19q-53 33 -83.5 92.5t-30.5 136.5q0 76 31 136t84.5 93t117.5 33q63 0 107 -27t64 -68v81h80v-381q0 -24 11.5 -40t33.5 -16q14 0 22 4l12 -67q-27 -10 -51 -10q-93 0 -104 98q-32 -50 -75 -74t-100 -24q-66 0 -119 33zM368 81.5q37 22.5 58.5 65.5t21.5 101
q0 54 -22 97.5t-59.5 67.5t-82.5 24t-82 -24t-58.5 -67t-21.5 -98t22 -98t59 -67t82 -24q46 0 83 22.5zM296 700h104l-85 -145h-63z" />
    <glyph glyph-name="zero.osf" horiz-adv-x="652" 
d="M188 21q-64 35 -102.5 102t-38.5 159t38.5 159t102.5 102t138 35t138 -35t102.5 -102t38.5 -159t-38.5 -159t-102.5 -102t-138 -35t-138 35zM424.5 85.5q45.5 26.5 72.5 77t27 119.5t-27 119.5t-72.5 77t-98.5 26.5t-98.5 -26.5t-72.5 -77t-27 -119.5t27 -119.5t72.5 -77
t98.5 -26.5t98.5 26.5z" />
    <glyph glyph-name="one.osf" horiz-adv-x="333" 
d="M169 451q-23 -28 -53 -39t-80 -11v75q58 0 87 20t54 68h73v-564h-81v451z" />
    <glyph glyph-name="two.osf" horiz-adv-x="509" 
d="M63 55l226 196q45 39 64 76t19 78q0 46 -30.5 74.5t-82.5 28.5q-51 0 -83 -31t-32 -80q0 -25 10 -52l-75 -13q-15 35 -15 73q0 50 26 89.5t70.5 61.5t97.5 22q61 0 105 -22t67 -60t23 -85q0 -56 -25 -104t-83 -100l-146 -129h258v-78h-394v55z" />
    <glyph glyph-name="three.osf" horiz-adv-x="567" 
d="M157 -63.5q-51 26.5 -77 71.5t-26 99q0 30 9 57l74 -19q-4 -13 -4 -34q0 -58 40 -94.5t104 -36.5q62 0 101.5 34t39.5 93q0 67 -48.5 95.5t-135.5 28.5v66q75 0 118 31.5t43 81.5q0 46 -34.5 72.5t-91.5 26.5q-55 0 -90 -32t-35 -80q0 -21 6 -36l-75 -12q-8 27 -8 52
q0 48 25.5 88.5t71.5 64.5t105 24q97 0 150.5 -42.5t53.5 -116.5q0 -50 -29 -89.5t-80 -59.5q57 -16 96.5 -56.5t39.5 -102.5q0 -63 -28.5 -108.5t-78.5 -69t-114 -23.5q-71 0 -122 26.5z" />
    <glyph glyph-name="four.osf" horiz-adv-x="581" 
d="M376 65h-324v72l324 427h81v-427h83v-72h-83v-141h-81v141zM376 137v308l-237 -308h237z" />
    <glyph glyph-name="five.osf" horiz-adv-x="593" 
d="M171.5 -66q-51.5 24 -80 65t-28.5 92q0 29 8 48l73 -19q-3 -13 -3 -27q0 -51 43.5 -82t103.5 -31q74 0 118.5 44t44.5 123q0 77 -44 120.5t-118 43.5q-51 0 -91.5 -28t-63.5 -73l-68 18l36 336h386v-69h-323l-25 -196q64 78 170 78q102 0 161.5 -61.5t59.5 -169.5
q0 -66 -31 -120t-86.5 -85t-125.5 -31q-65 0 -116.5 24z" />
    <glyph glyph-name="six.osf" horiz-adv-x="577" 
d="M113.5 63q-66.5 77 -66.5 226q0 93 27.5 176t86.5 136t147 53q85 0 139 -42t54 -112q0 -31 -12 -60l-75 17q7 20 7 39q0 44 -32 67.5t-80 23.5q-52 0 -92 -32.5t-63.5 -91.5t-25.5 -138q29 45 76 69t100 24q62 0 110.5 -25t76.5 -73t28 -115q0 -66 -29 -115.5
t-81.5 -76.5t-119.5 -27q-109 0 -175.5 77zM362.5 73q34.5 18 55 51.5t20.5 77.5t-20.5 77t-54.5 51t-74 18t-73.5 -17.5t-54 -50.5t-20.5 -78t20.5 -78.5t54 -51t73.5 -17.5q39 0 73.5 18z" />
    <glyph glyph-name="seven.osf" horiz-adv-x="518" 
d="M373 491h-331v73h413v-67l-217 -573h-78z" />
    <glyph glyph-name="eight.osf" horiz-adv-x="569" 
d="M122 38.5q-62 52.5 -62 142.5q0 56 32.5 99t80.5 64q-44 23 -68 59.5t-24 82.5q0 49 26.5 87.5t73 59.5t103.5 21q58 0 104.5 -21t73 -59t26.5 -88q0 -46 -24.5 -82.5t-67.5 -59.5q48 -21 80 -63.5t32 -99.5q0 -90 -62 -142.5t-162 -52.5t-162 52.5zM375 401q37 30 37 79
q0 50 -37 79.5t-91 29.5t-91 -29.5t-37 -79.5q0 -49 37 -79t91 -30t91 30zM389 87.5q40 34.5 40 93.5t-39.5 92.5t-105.5 33.5q-65 0 -104.5 -33.5t-39.5 -92.5t39.5 -93.5t104.5 -34.5t105 34.5z" />
    <glyph glyph-name="nine.osf" horiz-adv-x="578" 
d="M135.5 -47.5q-55.5 42.5 -55.5 114.5q0 30 11 56l74 -17q-7 -23 -7 -38q0 -44 34 -67.5t90 -23.5q49 0 87 31.5t60 91t23 141.5q-28 -45 -73.5 -70t-100.5 -25q-60 0 -110 25t-79 73.5t-29 114.5q0 65 29.5 115t81.5 77t119 27q114 0 178 -76t64 -227q0 -98 -26.5 -180.5
t-83.5 -133.5t-143 -51q-88 0 -143.5 42.5zM364 233q34 18 54 51t20 78t-20 78t-54 51t-74 18t-74 -18t-54.5 -51.5t-20.5 -77.5q0 -68 42 -107.5t107 -39.5q40 0 74 18z" />
    <glyph glyph-name="zero.osf.zero" horiz-adv-x="652" 
d="M188 21q-64 35 -102.5 102t-38.5 159t38.5 159t102.5 102t138 35t138 -35t102.5 -102t38.5 -159t-38.5 -159t-102.5 -102t-138 -35t-138 35zM422 479q-42 26 -96 26q-53 0 -98.5 -26.5t-72.5 -77t-27 -119.5q0 -90 47 -150zM424.5 85.5q45.5 26.5 72.5 77t27 119.5
q0 90 -47 150l-247 -347q42 -26 96 -26q53 0 98.5 26.5z" />
    <glyph glyph-name="zero.tf" horiz-adv-x="610" 
d="M158.5 31q-63.5 45 -98 127.5t-34.5 191.5t34.5 191.5t98 127.5t146.5 45t146.5 -45t98 -127.5t34.5 -191.5t-34.5 -191.5t-97.5 -127.5t-147 -45q-83 0 -146.5 45zM406.5 96q44.5 36 69.5 101.5t25 152.5t-25 152.5t-69.5 101.5t-101.5 36t-101.5 -36t-69.5 -101.5
t-25 -152.5t25 -152.5t69.5 -101.5t101.5 -36t101.5 36z" />
    <glyph glyph-name="one.tf" horiz-adv-x="610" 
d="M98 71h181v519q-29 -32 -74.5 -53.5t-96.5 -21.5v75q58 0 105.5 31t73.5 79h74v-629h171v-71h-434v71z" />
    <glyph glyph-name="two.tf" horiz-adv-x="610" 
d="M82 59l269 266q53 53 76 95t23 90q0 60 -38.5 95.5t-104.5 35.5q-61 0 -101 -37.5t-40 -99.5q0 -23 6 -46l-81 -6q-7 31 -7 59q0 53 27.5 99.5t78.5 75t118 28.5q70 0 120.5 -25.5t76.5 -69.5t26 -101q0 -65 -27.5 -119.5t-98.5 -124.5l-194 -193h323v-81h-452v59z" />
    <glyph glyph-name="three.tf" horiz-adv-x="610" 
d="M176.5 13.5q-53.5 27.5 -81.5 73t-28 96.5q0 22 5 45l81 -10q-3 -16 -3 -32q0 -35 19 -64.5t54.5 -46.5t80.5 -17q68 0 110 37t42 105q0 71 -50.5 105.5t-131.5 34.5v70q76 0 116.5 36t40.5 88q0 51 -35 80t-95 29q-55 0 -93.5 -30.5t-38.5 -77.5q0 -9 3 -27l-79 -9
q-4 18 -4 40q0 48 28 88t76.5 63.5t108.5 23.5q66 0 113.5 -22.5t72 -62t24.5 -89.5t-30 -93.5t-87 -62.5q64 -17 104.5 -63.5t40.5 -116.5q0 -66 -30 -115.5t-83.5 -76t-122.5 -26.5q-74 0 -127.5 27.5z" />
    <glyph glyph-name="four.tf" horiz-adv-x="610" 
d="M393 139h-338v72l337 489h85v-486h77v-75h-77v-139h-84v139zM393 214v363l-251 -363h251z" />
    <glyph glyph-name="five.tf" horiz-adv-x="610" 
d="M177.5 12.5q-52.5 26.5 -79 70.5t-26.5 96q0 19 3 34l81 -6q-2 -14 -2 -25q0 -58 41 -91t110 -33q75 0 121.5 48t46.5 130q0 81 -43.5 126.5t-119.5 45.5q-48 0 -91 -23.5t-70 -57.5l-69 19l30 354h404v-75h-340l-23 -214q33 30 80 48.5t94 18.5q110 0 171 -66.5
t61 -175.5q0 -72 -32 -129t-89.5 -89t-131.5 -32t-126.5 26.5z" />
    <glyph glyph-name="six.tf" horiz-adv-x="610" 
d="M121 71q-69 85 -69 238q0 142 35 231q33 83 93.5 128.5t139.5 45.5q96 0 151.5 -42.5t55.5 -115.5q0 -18 -3 -33l-79 7q3 15 3 27q0 41 -33.5 64.5t-92.5 23.5q-90 0 -136.5 -77.5t-51.5 -215.5q26 49 78 77.5t112 28.5q66 0 119.5 -30t84 -83t30.5 -120
q0 -66 -32 -120.5t-88 -86.5t-127 -32q-121 0 -190 85zM392.5 77q37.5 20 60 57.5t22.5 87.5q0 51 -22.5 88.5t-60 57t-82.5 19.5t-83.5 -19.5t-61 -57t-22.5 -88.5q0 -50 23 -87.5t61 -57.5t83 -20t82.5 20z" />
    <glyph glyph-name="seven.tf" horiz-adv-x="610" 
d="M449 625h-370v75h453v-69l-280 -631h-83z" />
    <glyph glyph-name="eight.tf" horiz-adv-x="610" 
d="M184 12q-53 26 -83 73t-30 109t32.5 109t85.5 72q-45 24 -71 66t-26 91q0 53 27.5 94.5t76.5 64.5t109 23t109 -23t76.5 -64.5t27.5 -94.5q0 -49 -26 -91t-71 -66q53 -25 85.5 -72t32.5 -109t-30 -109t-83 -73t-121 -26t-121 26zM400 438q37 33 37 89q0 55 -38 88t-94 33
t-94 -33t-38 -88q0 -56 37 -89t95 -33t95 33zM414.5 95.5q42.5 38.5 42.5 101.5q0 41 -20.5 73t-55.5 49.5t-76 17.5t-76 -17.5t-55.5 -49.5t-20.5 -73q0 -63 42.5 -101.5t109.5 -38.5t109.5 38.5z" />
    <glyph glyph-name="nine.tf" horiz-adv-x="610" 
d="M172 7.5q-47 21.5 -71.5 59t-24.5 83.5q0 20 3 35l80 -7q-2 -14 -2 -28q0 -42 34 -68.5t93 -26.5q87 0 137 75.5t56 215.5q-25 -50 -74.5 -77t-112.5 -27q-67 0 -121.5 30t-86 83t-31.5 120q0 66 31.5 120.5t87.5 86.5t127 32q126 0 192.5 -84t66.5 -239q0 -130 -40 -232
q-32 -83 -92.5 -128t-140.5 -45q-64 0 -111 21.5zM381 333q38 20 61 57.5t23 87.5t-23 87.5t-61 57.5t-83 20t-82.5 -20t-60 -57.5t-22.5 -87.5t22.5 -87.5t60 -57.5t82.5 -20t83 20z" />
    <glyph glyph-name="zero.tf.zero" horiz-adv-x="610" 
d="M158.5 31q-63.5 45 -98 127.5t-34.5 191.5t34.5 191.5t98 127.5t146.5 45t146.5 -45t98 -127.5t34.5 -191.5t-34.5 -191.5t-97.5 -127.5t-147 -45q-83 0 -146.5 45zM410 601q-45 39 -105 39q-57 0 -101.5 -36t-69.5 -101.5t-25 -152.5q0 -112 43 -187zM406.5 96
q44.5 36 69.5 101.5t25 152.5q0 112 -43 187l-258 -438q45 -39 105 -39q57 0 101.5 36z" />
    <glyph glyph-name="zero.tosf" horiz-adv-x="610" 
d="M167 21q-64 35 -102.5 102t-38.5 159t38.5 159t102.5 102t138 35t138 -35t102.5 -102t38.5 -159t-38.5 -159t-102.5 -102t-138 -35t-138 35zM403.5 85.5q45.5 26.5 72.5 77t27 119.5t-27 119.5t-72.5 77t-98.5 26.5t-98.5 -26.5t-72.5 -77t-27 -119.5t27 -119.5t72.5 -77
t98.5 -26.5t98.5 26.5z" />
    <glyph glyph-name="one.tosf" horiz-adv-x="610" 
d="M117 70h172v384q-50 -59 -158 -59v76q59 0 101 24t65 69h74v-494h148v-70h-402v70z" />
    <glyph glyph-name="two.tosf" horiz-adv-x="610" 
d="M120 55l226 196q45 39 64 76t19 78q0 46 -30.5 74.5t-82.5 28.5q-51 0 -83 -31t-32 -80q0 -25 10 -52l-75 -13q-15 35 -15 73q0 50 26 89.5t70.5 61.5t97.5 22q61 0 105 -22t67 -60t23 -85q0 -56 -25 -104t-83 -100l-146 -129h258v-78h-394v55z" />
    <glyph glyph-name="three.tosf" horiz-adv-x="610" 
d="M189 -63.5q-51 26.5 -77 71.5t-26 99q0 30 9 57l74 -19q-4 -13 -4 -34q0 -58 40 -94.5t104 -36.5q62 0 101.5 34t39.5 93q0 67 -48.5 95.5t-135.5 28.5v66q75 0 118 31.5t43 81.5q0 46 -34.5 72.5t-91.5 26.5q-55 0 -90 -32t-35 -80q0 -21 6 -36l-75 -12q-8 27 -8 52
q0 48 25.5 88.5t71.5 64.5t105 24q97 0 150.5 -42.5t53.5 -116.5q0 -50 -29 -89.5t-80 -59.5q57 -16 96.5 -56.5t39.5 -102.5q0 -63 -28.5 -108.5t-78.5 -69t-114 -23.5q-71 0 -122 26.5z" />
    <glyph glyph-name="four.tosf" horiz-adv-x="610" 
d="M390 65h-324v72l324 427h81v-427h83v-72h-83v-141h-81v141zM390 137v308l-237 -308h237z" />
    <glyph glyph-name="five.tosf" horiz-adv-x="610" 
d="M189.5 -66q-51.5 24 -80 65t-28.5 92q0 29 8 48l73 -19q-3 -13 -3 -27q0 -51 43.5 -82t103.5 -31q74 0 118.5 44t44.5 123q0 77 -44 120.5t-118 43.5q-51 0 -91.5 -28t-63.5 -73l-68 18l36 336h386v-69h-323l-25 -196q64 78 170 78q102 0 161.5 -61.5t59.5 -169.5
q0 -66 -31 -120t-86.5 -85t-125.5 -31q-65 0 -116.5 24z" />
    <glyph glyph-name="six.tosf" horiz-adv-x="610" 
d="M142.5 63q-66.5 77 -66.5 226q0 93 27.5 176t86.5 136t147 53q85 0 139 -42t54 -112q0 -31 -12 -60l-75 17q7 20 7 39q0 44 -32 67.5t-80 23.5q-52 0 -92 -32.5t-63.5 -91.5t-25.5 -138q29 45 76 69t100 24q62 0 110.5 -25t76.5 -73t28 -115q0 -66 -29 -115.5
t-81.5 -76.5t-119.5 -27q-109 0 -175.5 77zM391.5 73q34.5 18 55 51.5t20.5 77.5t-20.5 77t-54.5 51t-74 18t-73.5 -17.5t-54 -50.5t-20.5 -78t20.5 -78.5t54 -51t73.5 -17.5q39 0 73.5 18z" />
    <glyph glyph-name="seven.tosf" horiz-adv-x="610" 
d="M421 491h-331v73h413v-67l-217 -573h-78z" />
    <glyph glyph-name="eight.tosf" horiz-adv-x="610" 
d="M143 38.5q-62 52.5 -62 142.5q0 56 32.5 99t80.5 64q-44 23 -68 59.5t-24 82.5q0 49 26.5 87.5t73 59.5t103.5 21q58 0 104.5 -21t73 -59t26.5 -88q0 -46 -24.5 -82.5t-67.5 -59.5q48 -21 80 -63.5t32 -99.5q0 -90 -62 -142.5t-162 -52.5t-162 52.5zM396 401q37 30 37 79
q0 50 -37 79.5t-91 29.5t-91 -29.5t-37 -79.5q0 -49 37 -79t91 -30t91 30zM410 87.5q40 34.5 40 93.5t-39.5 92.5t-105.5 33.5q-65 0 -104.5 -33.5t-39.5 -92.5t39.5 -93.5t104.5 -34.5t105 34.5z" />
    <glyph glyph-name="nine.tosf" horiz-adv-x="610" 
d="M156.5 -47.5q-55.5 42.5 -55.5 114.5q0 30 11 56l74 -17q-7 -23 -7 -38q0 -44 34 -67.5t90 -23.5q49 0 87 31.5t60 91t23 141.5q-28 -45 -73.5 -70t-100.5 -25q-60 0 -110 25t-79 73.5t-29 114.5q0 65 29.5 115t81.5 77t119 27q114 0 178 -76t64 -227q0 -98 -26.5 -180.5
t-83.5 -133.5t-143 -51q-88 0 -143.5 42.5zM385 233q34 18 54 51t20 78t-20 78t-54 51t-74 18t-74 -18t-54.5 -51.5t-20.5 -77.5q0 -68 42 -107.5t107 -39.5q40 0 74 18z" />
    <glyph glyph-name="zero.tosf.zero" horiz-adv-x="610" 
d="M167 21q-64 35 -102.5 102t-38.5 159t38.5 159t102.5 102t138 35t138 -35t102.5 -102t38.5 -159t-38.5 -159t-102.5 -102t-138 -35t-138 35zM401 479q-42 26 -96 26q-53 0 -98.5 -26.5t-72.5 -77t-27 -119.5q0 -90 47 -150zM403.5 85.5q45.5 26.5 72.5 77t27 119.5
q0 90 -47 150l-247 -347q42 -26 96 -26q53 0 98.5 26.5z" />
    <glyph glyph-name="zero.zero" horiz-adv-x="711" 
d="M198.5 31.5q-69.5 45.5 -108.5 128.5t-39 190t39 190t108.5 128.5t157.5 45.5t157.5 -45.5t108 -128.5t38.5 -190q0 -108 -38.5 -190.5t-108 -128t-157.5 -45.5t-157.5 45.5zM463 609q-48 31 -107 31q-64 0 -114.5 -35t-79 -100.5t-28.5 -154.5q0 -127 57 -203zM470.5 95
q50.5 35 79 100.5t28.5 154.5q0 62 -15 114t-43 89l-272 -462q50 -31 108 -31q64 0 114.5 35z" />
    <glyph glyph-name="uni2080.zero" horiz-adv-x="383" 
d="M112 -188q-35 23 -54.5 64t-19.5 95t19.5 95t54.5 64t79 23t79 -23t55 -64t20 -95t-20 -95t-55 -64t-79 -23t-79 23zM221 91q-18 6 -30 6q-41 0 -66.5 -34t-25.5 -92q0 -48 20 -83zM258 -121q26 34 26 92q0 49 -21 83l-102 -203q18 -6 30 -6q41 0 67 34z" />
    <glyph glyph-name="uni2070.zero" horiz-adv-x="383" 
d="M112 366q-35 23 -54.5 64t-19.5 95t19.5 95t54.5 64t79 23t79 -23t55 -64t20 -95t-20 -95t-55 -64t-79 -23t-79 23zM221 645q-18 6 -30 6q-41 0 -66.5 -34t-25.5 -92q0 -48 20 -83zM258 433q26 34 26 92q0 49 -21 83l-102 -203q18 -6 30 -6q41 0 67 34z" />
    <glyph glyph-name="exclamdown.case" horiz-adv-x="265" 
d="M83 701h99v-102h-99v102zM90 224l13 293h59l12 -293v-223h-84v223z" />
    <glyph glyph-name="questiondown.case" horiz-adv-x="533" 
d="M325 598h-98v102h98v-102zM318 500q0 -54 -18 -89t-68 -77q-57 -47 -79 -80.5t-22 -79.5q0 -53 38.5 -85t99.5 -32q58 0 98 35t40 98q0 22 -8 41l74 15q13 -26 13 -64q0 -50 -26.5 -95t-75.5 -73t-114 -28q-68 0 -117.5 23.5t-75.5 64.5t-26 93q0 62 26.5 106.5
t98.5 106.5q33 28 46.5 55.5t13.5 78.5h82v-14z" />
    <glyph glyph-name="bullet.case" horiz-adv-x="283" 
d="M76.5 284.5q-27.5 27.5 -27.5 65.5t27.5 65.5t65.5 27.5t65 -27.5t27 -65.5t-27 -65.5t-65 -27.5t-65.5 27.5z" />
    <glyph glyph-name="parenleft.case" horiz-adv-x="337" 
d="M102 117q-30 108 -30 233t30 233t76 191h73q-44 -86 -70.5 -196.5t-26.5 -227.5t26.5 -227.5t70.5 -196.5h-73q-46 83 -76 191z" />
    <glyph glyph-name="parenright.case" horiz-adv-x="337" 
d="M157 122.5q26 110.5 26 227.5t-26 227.5t-70 196.5h72q47 -82 77 -190.5t30 -233.5t-30 -233.5t-77 -190.5h-72q44 86 70 196.5z" />
    <glyph glyph-name="braceleft.case" horiz-adv-x="372" 
d="M166.5 -35q-36.5 40 -36.5 130v127q0 53 -17.5 73t-57.5 20v70q40 0 57.5 20t17.5 73v127q0 90 36.5 130t117.5 40h37v-73h-29q-81 0 -81 -90v-140q0 -55 -15 -80.5t-51 -41.5q36 -16 51 -41.5t15 -80.5v-140q0 -90 81 -90h29v-73h-37q-81 0 -117.5 40z" />
    <glyph glyph-name="braceright.case" horiz-adv-x="372" 
d="M51 -2h29q81 0 81 90v140q0 55 15 80.5t51 41.5q-36 16 -51 41.5t-15 80.5v140q0 90 -81 90h-29v73h37q80 0 116.5 -40t36.5 -130v-127q0 -53 18 -73t58 -20v-70q-40 0 -58 -20t-18 -73v-127q0 -90 -36.5 -130t-116.5 -40h-37v73z" />
    <glyph glyph-name="bracketleft.case" horiz-adv-x="325" 
d="M83 775h191v-73h-110v-704h110v-73h-191v850z" />
    <glyph glyph-name="bracketright.case" horiz-adv-x="325" 
d="M51 -2h110v704h-110v73h191v-850h-191v73z" />
    <glyph glyph-name="hyphen.case" horiz-adv-x="453" 
d="M45 382h363v-64h-363v64z" />
    <glyph glyph-name="uni00AD.case" horiz-adv-x="453" 
d="M45 382h363v-64h-363v64z" />
    <glyph glyph-name="endash.case" horiz-adv-x="527" 
d="M45 382h437v-64h-437v64z" />
    <glyph glyph-name="emdash.case" horiz-adv-x="796" 
d="M45 382h706v-64h-706v64z" />
    <glyph glyph-name="guillemotleft.case" horiz-adv-x="512" 
d="M45 350l157 200h94l-156 -200l156 -200h-94zM227 350l157 200h94l-156 -200l156 -200h-94z" />
    <glyph glyph-name="guillemotright.case" horiz-adv-x="512" 
d="M190 350l-156 200h94l157 -200l-157 -200h-94zM372 350l-156 200h94l157 -200l-157 -200h-94z" />
    <glyph glyph-name="guilsinglleft.case" horiz-adv-x="330" 
d="M45 350l157 201h94l-156 -201l156 -200h-94z" />
    <glyph glyph-name="guilsinglright.case" horiz-adv-x="330" 
d="M190 350l-156 201h94l157 -201l-157 -200h-94z" />
    <glyph glyph-name="at.case" horiz-adv-x="945" 
d="M254.5 -37.5q-90.5 45.5 -147 140t-56.5 235.5q0 122 57 224t158 161.5t228 59.5q107 0 196.5 -41.5t143.5 -125.5t54 -206q0 -91 -32.5 -162.5t-86.5 -111.5t-115 -40q-42 0 -66.5 22t-24.5 59q0 13 3 27q-23 -47 -68 -77.5t-95 -30.5q-48 0 -87 25t-61.5 72t-22.5 111
q0 95 37 164.5t94 105t116 35.5q44 0 80 -22.5t49 -62.5l11 69h70l-56 -377l-1 -16q0 -41 37 -41q33 0 67 28.5t56.5 84.5t22.5 134q0 91 -37.5 161t-111.5 109.5t-179 39.5q-95 0 -178.5 -50t-133.5 -137t-50 -193q0 -115 45.5 -195t121.5 -119.5t167 -39.5
q60 0 102.5 14.5t81.5 42.5l34 -57q-49 -33 -101 -49t-128 -16q-103 0 -193.5 45.5zM501 194.5q41 35.5 65.5 94.5t24.5 124q0 62 -28.5 96.5t-76.5 34.5q-44 0 -85.5 -29t-68 -83t-26.5 -126q0 -73 30.5 -110t76.5 -37q47 0 88 35.5z" />
    <glyph glyph-name="caroncomb.alt" 
d="M-83 522l35 92h-37v86h85v-87l-64 -101z" />
    <glyph glyph-name="uni0308.cap" 
d="M-251 884h93v-92h-93v92zM-92 884h92v-92h-92v92z" />
    <glyph glyph-name="uni0307.cap" 
d="M-95 884h95v-97h-95v97z" />
    <glyph glyph-name="gravecomb.cap" 
d="M-174 907h107l67 -145h-66z" />
    <glyph glyph-name="acutecomb.cap" 
d="M-107 907h107l-108 -145h-66z" />
    <glyph glyph-name="uni030B.cap" 
d="M-268 907h107l-108 -145h-66zM-107 907h107l-108 -145h-65z" />
    <glyph glyph-name="uni0302.cap" 
d="M-166 906h64l102 -144h-66l-68 72l-68 -72h-66z" />
    <glyph glyph-name="uni030C.cap" 
d="M-268 906h66l68 -72l68 72h66l-102 -144h-64z" />
    <glyph glyph-name="uni0306.cap" 
d="M-176.5 801q-28.5 29 -28.5 75h63q0 -20 11 -32.5t29 -12.5t28.5 12.5t10.5 32.5h63q0 -46 -28 -75t-74 -29t-74.5 29z" />
    <glyph glyph-name="uni030A.cap" 
d="M-164 771.5q-28 27.5 -28 67.5t28 67.5t68 27.5t68 -27.5t28 -67.5t-28 -67.5t-68 -27.5t-68 27.5zM-63 805.5q13 13.5 13 33.5t-13 33.5t-33 13.5t-33 -13.5t-13 -33.5t13 -33.5t33 -13.5t33 13.5z" />
    <glyph glyph-name="tildecomb.cap" 
d="M-144 775.5q-21 10.5 -43 29.5q-16 14 -27.5 20.5t-26.5 6.5q-13 0 -21 -8t-8 -20q0 -13 6 -24l-58 -12q-11 20 -11 45q0 38 26 58.5t62 20.5q35 0 56 -10.5t43 -29.5q16 -14 27 -20.5t27 -6.5q14 0 21.5 8t7.5 20t-5 24l57 12q11 -19 11 -45q0 -38 -26 -58.5t-62 -20.5
q-35 0 -56 10.5z" />
    </font>
</defs>
</svg>
